solid OpenSCAD_Model
  facet normal 0 -1 0
    outer loop
      vertex -18.7477 18.9898 -4.5
      vertex -1.74774 18.9898 -0.5
      vertex -18.7477 18.9898 -0.5
    endloop
  endfacet
  facet normal 0 -1 -0
    outer loop
      vertex -1.74774 18.9898 -0.5
      vertex -18.7477 18.9898 -4.5
      vertex -1.74774 18.9898 -4.5
    endloop
  endfacet
  facet normal 0 0 1
    outer loop
      vertex -1.74774 18.9898 -4.5
      vertex 1.5 16 -4.5
      vertex 1.33745 16.9741 -4.5
    endloop
  endfacet
  facet normal 0 0 1
    outer loop
      vertex 1.5 16 -4.5
      vertex -21.4591 16.4938 -4.5
      vertex 1.5 -16 -4.5
    endloop
  endfacet
  facet normal 0 0 1
    outer loop
      vertex -1.74774 18.9898 -4.5
      vertex 1.33745 16.9741 -4.5
      vertex 0.867421 17.8426 -4.5
    endloop
  endfacet
  facet normal 0 0 1
    outer loop
      vertex 1.5 16 -4.5
      vertex -1.74774 18.9898 -4.5
      vertex -21.4591 16.4938 -4.5
    endloop
  endfacet
  facet normal 0 0 1
    outer loop
      vertex -1.74774 18.9898 -4.5
      vertex 0.867421 17.8426 -4.5
      vertex 0.140844 18.5115 -4.5
    endloop
  endfacet
  facet normal 0 0 1
    outer loop
      vertex -21.4591 -16.4938 -4.5
      vertex 1.5 -16 -4.5
      vertex -21.4591 16.4938 -4.5
    endloop
  endfacet
  facet normal 0 0 1
    outer loop
      vertex -1.74774 18.9898 -4.5
      vertex 0.140844 18.5115 -4.5
      vertex -0.763544 18.9082 -4.5
    endloop
  endfacet
  facet normal 0 0 1
    outer loop
      vertex 1.33745 -16.9741 -4.5
      vertex -1.74774 -18.9898 -4.5
      vertex 0.867421 -17.8426 -4.5
    endloop
  endfacet
  facet normal 0 0 1
    outer loop
      vertex 0.867421 -17.8426 -4.5
      vertex -1.74774 -18.9898 -4.5
      vertex 0.140844 -18.5115 -4.5
    endloop
  endfacet
  facet normal 0 0 1
    outer loop
      vertex 0.140844 -18.5115 -4.5
      vertex -1.74774 -18.9898 -4.5
      vertex -0.763544 -18.9082 -4.5
    endloop
  endfacet
  facet normal 0 0 1
    outer loop
      vertex -21.4591 16.4938 -4.5
      vertex -1.74774 18.9898 -4.5
      vertex -18.7477 18.9898 -4.5
    endloop
  endfacet
  facet normal 0 -0 1
    outer loop
      vertex -1.74774 -18.9898 -4.5
      vertex 1.5 -16 -4.5
      vertex -21.4591 -16.4938 -4.5
    endloop
  endfacet
  facet normal 0 0 1
    outer loop
      vertex -21.4591 16.4938 -4.5
      vertex -18.7477 18.9898 -4.5
      vertex -19.7051 18.7473 -4.5
    endloop
  endfacet
  facet normal 0 0 1
    outer loop
      vertex 1.5 -16 -4.5
      vertex -1.74774 -18.9898 -4.5
      vertex 1.33745 -16.9741 -4.5
    endloop
  endfacet
  facet normal 0 0 1
    outer loop
      vertex -21.4591 16.4938 -4.5
      vertex -19.7051 18.7473 -4.5
      vertex -20.5318 18.2072 -4.5
    endloop
  endfacet
  facet normal 0 0 1
    outer loop
      vertex -1.74774 -18.9898 -4.5
      vertex -21.4591 -16.4938 -4.5
      vertex -18.7477 -18.9898 -4.5
    endloop
  endfacet
  facet normal 0 0 1
    outer loop
      vertex -21.4591 16.4938 -4.5
      vertex -20.5318 18.2072 -4.5
      vertex -21.1384 17.4278 -4.5
    endloop
  endfacet
  facet normal 0 0 1
    outer loop
      vertex -18.7477 -18.9898 -4.5
      vertex -21.4591 -16.4938 -4.5
      vertex -19.7051 -18.7473 -4.5
    endloop
  endfacet
  facet normal 0 0 1
    outer loop
      vertex -19.7051 -18.7473 -4.5
      vertex -21.4591 -16.4938 -4.5
      vertex -20.5318 -18.2072 -4.5
    endloop
  endfacet
  facet normal 0 0 1
    outer loop
      vertex -20.5318 -18.2072 -4.5
      vertex -21.4591 -16.4938 -4.5
      vertex -21.1384 -17.4278 -4.5
    endloop
  endfacet
  facet normal 0 1 -0
    outer loop
      vertex -1.74774 -18.9898 -4.5
      vertex -18.7477 -18.9898 -0.5
      vertex -1.74774 -18.9898 -0.5
    endloop
  endfacet
  facet normal 0 1 0
    outer loop
      vertex -18.7477 -18.9898 -0.5
      vertex -1.74774 -18.9898 -4.5
      vertex -18.7477 -18.9898 -4.5
    endloop
  endfacet
  facet normal 1 -0 0
    outer loop
      vertex -21.4591 -16.4938 -0.5
      vertex -21.4591 16.4938 -4.5
      vertex -21.4591 16.4938 -0.5
    endloop
  endfacet
  facet normal 1 0 0
    outer loop
      vertex -21.4591 16.4938 -4.5
      vertex -21.4591 -16.4938 -0.5
      vertex -21.4591 -16.4938 -4.5
    endloop
  endfacet
  facet normal 0.945817 0.3247 0
    outer loop
      vertex -21.1384 -17.4278 -0.5
      vertex -21.4591 -16.4938 -4.5
      vertex -21.4591 -16.4938 -0.5
    endloop
  endfacet
  facet normal 0.945817 0.3247 0
    outer loop
      vertex -21.4591 -16.4938 -4.5
      vertex -21.1384 -17.4278 -0.5
      vertex -21.1384 -17.4278 -4.5
    endloop
  endfacet
  facet normal 0.245487 -0.9694 0
    outer loop
      vertex -19.7051 18.7473 -4.5
      vertex -18.7477 18.9898 -0.5
      vertex -19.7051 18.7473 -0.5
    endloop
  endfacet
  facet normal 0.245487 -0.9694 0
    outer loop
      vertex -18.7477 18.9898 -0.5
      vertex -19.7051 18.7473 -4.5
      vertex -18.7477 18.9898 -4.5
    endloop
  endfacet
  facet normal -0.986361 -0.164595 0
    outer loop
      vertex 1.5 16 -4.5
      vertex 1.33745 16.9741 -0.5
      vertex 1.33745 16.9741 -4.5
    endloop
  endfacet
  facet normal -0.986361 -0.164595 0
    outer loop
      vertex 1.33745 16.9741 -0.5
      vertex 1.5 16 -4.5
      vertex 1.5 16 -0.5
    endloop
  endfacet
  facet normal -1 0 0
    outer loop
      vertex 1.5 -16 -4.5
      vertex 1.5 16 -0.5
      vertex 1.5 16 -4.5
    endloop
  endfacet
  facet normal -1 -0 0
    outer loop
      vertex 1.5 16 -0.5
      vertex 1.5 -16 -4.5
      vertex 1.5 -16 -0.5
    endloop
  endfacet
  facet normal 0.945817 -0.3247 0
    outer loop
      vertex -21.4591 16.4938 -0.5
      vertex -21.1384 17.4278 -4.5
      vertex -21.1384 17.4278 -0.5
    endloop
  endfacet
  facet normal 0.945817 -0.3247 0
    outer loop
      vertex -21.1384 17.4278 -4.5
      vertex -21.4591 16.4938 -0.5
      vertex -21.4591 16.4938 -4.5
    endloop
  endfacet
  facet normal 0.546946 -0.837168 0
    outer loop
      vertex -20.5318 18.2072 -4.5
      vertex -19.7051 18.7473 -0.5
      vertex -20.5318 18.2072 -0.5
    endloop
  endfacet
  facet normal 0.546946 -0.837168 0
    outer loop
      vertex -19.7051 18.7473 -0.5
      vertex -20.5318 18.2072 -4.5
      vertex -19.7051 18.7473 -4.5
    endloop
  endfacet
  facet normal 0.789142 -0.614211 0
    outer loop
      vertex -21.1384 17.4278 -0.5
      vertex -20.5318 18.2072 -4.5
      vertex -20.5318 18.2072 -0.5
    endloop
  endfacet
  facet normal 0.789142 -0.614211 0
    outer loop
      vertex -20.5318 18.2072 -4.5
      vertex -21.1384 17.4278 -0.5
      vertex -21.1384 17.4278 -4.5
    endloop
  endfacet
  facet normal -0.401694 0.915774 0
    outer loop
      vertex 0.140844 -18.5115 -4.5
      vertex -0.763544 -18.9082 -0.5
      vertex 0.140844 -18.5115 -0.5
    endloop
  endfacet
  facet normal -0.401694 0.915774 0
    outer loop
      vertex -0.763544 -18.9082 -0.5
      vertex 0.140844 -18.5115 -4.5
      vertex -0.763544 -18.9082 -4.5
    endloop
  endfacet
  facet normal -0.0825811 0.996584 0
    outer loop
      vertex -0.763544 -18.9082 -4.5
      vertex -1.74774 -18.9898 -0.5
      vertex -0.763544 -18.9082 -0.5
    endloop
  endfacet
  facet normal -0.0825811 0.996584 0
    outer loop
      vertex -1.74774 -18.9898 -0.5
      vertex -0.763544 -18.9082 -4.5
      vertex -1.74774 -18.9898 -4.5
    endloop
  endfacet
  facet normal -0.677282 0.735724 0
    outer loop
      vertex 0.867421 -17.8426 -4.5
      vertex 0.140844 -18.5115 -0.5
      vertex 0.867421 -17.8426 -0.5
    endloop
  endfacet
  facet normal -0.677282 0.735724 0
    outer loop
      vertex 0.140844 -18.5115 -0.5
      vertex 0.867421 -17.8426 -4.5
      vertex 0.140844 -18.5115 -4.5
    endloop
  endfacet
  facet normal 0.245487 0.9694 -0
    outer loop
      vertex -18.7477 -18.9898 -4.5
      vertex -19.7051 -18.7473 -0.5
      vertex -18.7477 -18.9898 -0.5
    endloop
  endfacet
  facet normal 0.245487 0.9694 0
    outer loop
      vertex -19.7051 -18.7473 -0.5
      vertex -18.7477 -18.9898 -4.5
      vertex -19.7051 -18.7473 -4.5
    endloop
  endfacet
  facet normal 0.546946 0.837168 -0
    outer loop
      vertex -19.7051 -18.7473 -4.5
      vertex -20.5318 -18.2072 -0.5
      vertex -19.7051 -18.7473 -0.5
    endloop
  endfacet
  facet normal 0.546946 0.837168 0
    outer loop
      vertex -20.5318 -18.2072 -0.5
      vertex -19.7051 -18.7473 -4.5
      vertex -20.5318 -18.2072 -4.5
    endloop
  endfacet
  facet normal -0.879474 0.475947 0
    outer loop
      vertex 0.867421 -17.8426 -4.5
      vertex 1.33745 -16.9741 -0.5
      vertex 1.33745 -16.9741 -4.5
    endloop
  endfacet
  facet normal -0.879474 0.475947 0
    outer loop
      vertex 1.33745 -16.9741 -0.5
      vertex 0.867421 -17.8426 -4.5
      vertex 0.867421 -17.8426 -0.5
    endloop
  endfacet
  facet normal -0.0825811 -0.996584 0
    outer loop
      vertex -1.74774 18.9898 -4.5
      vertex -0.763544 18.9082 -0.5
      vertex -1.74774 18.9898 -0.5
    endloop
  endfacet
  facet normal -0.0825811 -0.996584 -0
    outer loop
      vertex -0.763544 18.9082 -0.5
      vertex -1.74774 18.9898 -4.5
      vertex -0.763544 18.9082 -4.5
    endloop
  endfacet
  facet normal -0.879474 -0.475947 0
    outer loop
      vertex 1.33745 16.9741 -4.5
      vertex 0.867421 17.8426 -0.5
      vertex 0.867421 17.8426 -4.5
    endloop
  endfacet
  facet normal -0.879474 -0.475947 0
    outer loop
      vertex 0.867421 17.8426 -0.5
      vertex 1.33745 16.9741 -4.5
      vertex 1.33745 16.9741 -0.5
    endloop
  endfacet
  facet normal 0.789142 0.614211 0
    outer loop
      vertex -20.5318 -18.2072 -0.5
      vertex -21.1384 -17.4278 -4.5
      vertex -21.1384 -17.4278 -0.5
    endloop
  endfacet
  facet normal 0.789142 0.614211 0
    outer loop
      vertex -21.1384 -17.4278 -4.5
      vertex -20.5318 -18.2072 -0.5
      vertex -20.5318 -18.2072 -4.5
    endloop
  endfacet
  facet normal -0.986361 0.164595 0
    outer loop
      vertex 1.33745 -16.9741 -4.5
      vertex 1.5 -16 -0.5
      vertex 1.5 -16 -4.5
    endloop
  endfacet
  facet normal -0.986361 0.164595 0
    outer loop
      vertex 1.5 -16 -0.5
      vertex 1.33745 -16.9741 -4.5
      vertex 1.33745 -16.9741 -0.5
    endloop
  endfacet
  facet normal -0.401694 -0.915774 0
    outer loop
      vertex -0.763544 18.9082 -4.5
      vertex 0.140844 18.5115 -0.5
      vertex -0.763544 18.9082 -0.5
    endloop
  endfacet
  facet normal -0.401694 -0.915774 -0
    outer loop
      vertex 0.140844 18.5115 -0.5
      vertex -0.763544 18.9082 -4.5
      vertex 0.140844 18.5115 -4.5
    endloop
  endfacet
  facet normal -0.677282 -0.735724 0
    outer loop
      vertex 0.140844 18.5115 -4.5
      vertex 0.867421 17.8426 -0.5
      vertex 0.140844 18.5115 -0.5
    endloop
  endfacet
  facet normal -0.677282 -0.735724 -0
    outer loop
      vertex 0.867421 17.8426 -0.5
      vertex 0.140844 18.5115 -4.5
      vertex 0.867421 17.8426 -4.5
    endloop
  endfacet
  facet normal -1 0 0
    outer loop
      vertex -22.9591 -17.9938 -6
      vertex -22.9591 17.9938 0.5
      vertex -22.9591 17.9938 -6
    endloop
  endfacet
  facet normal -1 -0 0
    outer loop
      vertex -22.9591 17.9938 0.5
      vertex -22.9591 -17.9938 -6
      vertex -22.9591 -17.9938 0.5
    endloop
  endfacet
  facet normal -0.245487 -0.9694 0
    outer loop
      vertex -21.2051 -20.2473 -6
      vertex -20.2477 -20.4898 0.5
      vertex -21.2051 -20.2473 0.5
    endloop
  endfacet
  facet normal -0.245487 -0.9694 -0
    outer loop
      vertex -20.2477 -20.4898 0.5
      vertex -21.2051 -20.2473 -6
      vertex -20.2477 -20.4898 -6
    endloop
  endfacet
  facet normal -0.945817 0.3247 0
    outer loop
      vertex -22.9591 17.9938 -6
      vertex -22.6384 18.9278 0.5
      vertex -22.6384 18.9278 -6
    endloop
  endfacet
  facet normal -0.945817 0.3247 0
    outer loop
      vertex -22.6384 18.9278 0.5
      vertex -22.9591 17.9938 -6
      vertex -22.9591 17.9938 0.5
    endloop
  endfacet
  facet normal 1 -0 0
    outer loop
      vertex 3 -17.5 0.5
      vertex 3 17.5 -6
      vertex 3 17.5 0.5
    endloop
  endfacet
  facet normal 1 0 0
    outer loop
      vertex 3 17.5 -6
      vertex 3 -17.5 0.5
      vertex 3 -17.5 -6
    endloop
  endfacet
  facet normal 0 -1 0
    outer loop
      vertex -20.2477 -20.4898 -6
      vertex -0.247739 -20.4898 0.5
      vertex -20.2477 -20.4898 0.5
    endloop
  endfacet
  facet normal 0 -1 -0
    outer loop
      vertex -0.247739 -20.4898 0.5
      vertex -20.2477 -20.4898 -6
      vertex -0.247739 -20.4898 -6
    endloop
  endfacet
  facet normal 0 0 -1
    outer loop
      vertex -0.247739 -20.4898 -6
      vertex 3 -17.5 -6
      vertex 2.83745 -18.4741 -6
    endloop
  endfacet
  facet normal -0 0 -1
    outer loop
      vertex 3 -17.5 -6
      vertex -22.9591 -17.9938 -6
      vertex 3 17.5 -6
    endloop
  endfacet
  facet normal 0 0 -1
    outer loop
      vertex -0.247739 -20.4898 -6
      vertex 2.83745 -18.4741 -6
      vertex 2.36742 -19.3426 -6
    endloop
  endfacet
  facet normal 0 0 -1
    outer loop
      vertex 3 -17.5 -6
      vertex -0.247739 -20.4898 -6
      vertex -22.9591 -17.9938 -6
    endloop
  endfacet
  facet normal 0 0 -1
    outer loop
      vertex -0.247739 -20.4898 -6
      vertex 2.36742 -19.3426 -6
      vertex 1.64084 -20.0115 -6
    endloop
  endfacet
  facet normal 0 0 -1
    outer loop
      vertex -22.9591 17.9938 -6
      vertex 3 17.5 -6
      vertex -22.9591 -17.9938 -6
    endloop
  endfacet
  facet normal 0 0 -1
    outer loop
      vertex -0.247739 -20.4898 -6
      vertex 1.64084 -20.0115 -6
      vertex 0.736456 -20.4082 -6
    endloop
  endfacet
  facet normal 0 0 -1
    outer loop
      vertex 2.83745 18.4741 -6
      vertex -0.247739 20.4898 -6
      vertex 2.36742 19.3426 -6
    endloop
  endfacet
  facet normal 0 0 -1
    outer loop
      vertex 2.36742 19.3426 -6
      vertex -0.247739 20.4898 -6
      vertex 1.64084 20.0115 -6
    endloop
  endfacet
  facet normal 0 0 -1
    outer loop
      vertex 1.64084 20.0115 -6
      vertex -0.247739 20.4898 -6
      vertex 0.736456 20.4082 -6
    endloop
  endfacet
  facet normal 0 0 -1
    outer loop
      vertex -22.9591 -17.9938 -6
      vertex -0.247739 -20.4898 -6
      vertex -20.2477 -20.4898 -6
    endloop
  endfacet
  facet normal 0 -0 -1
    outer loop
      vertex -0.247739 20.4898 -6
      vertex 3 17.5 -6
      vertex -22.9591 17.9938 -6
    endloop
  endfacet
  facet normal 0 0 -1
    outer loop
      vertex -22.9591 -17.9938 -6
      vertex -20.2477 -20.4898 -6
      vertex -21.2051 -20.2473 -6
    endloop
  endfacet
  facet normal 0 0 -1
    outer loop
      vertex 3 17.5 -6
      vertex -0.247739 20.4898 -6
      vertex 2.83745 18.4741 -6
    endloop
  endfacet
  facet normal 0 0 -1
    outer loop
      vertex -22.9591 -17.9938 -6
      vertex -21.2051 -20.2473 -6
      vertex -22.0318 -19.7072 -6
    endloop
  endfacet
  facet normal -0 0 -1
    outer loop
      vertex -0.247739 20.4898 -6
      vertex -22.9591 17.9938 -6
      vertex -20.2477 20.4898 -6
    endloop
  endfacet
  facet normal 0 0 -1
    outer loop
      vertex -22.9591 -17.9938 -6
      vertex -22.0318 -19.7072 -6
      vertex -22.6384 -18.9278 -6
    endloop
  endfacet
  facet normal 0 0 -1
    outer loop
      vertex -20.2477 20.4898 -6
      vertex -22.9591 17.9938 -6
      vertex -21.2051 20.2473 -6
    endloop
  endfacet
  facet normal 0 0 -1
    outer loop
      vertex -21.2051 20.2473 -6
      vertex -22.9591 17.9938 -6
      vertex -22.0318 19.7072 -6
    endloop
  endfacet
  facet normal 0 0 -1
    outer loop
      vertex -22.0318 19.7072 -6
      vertex -22.9591 17.9938 -6
      vertex -22.6384 18.9278 -6
    endloop
  endfacet
  facet normal -0.546946 0.837168 0
    outer loop
      vertex -21.2051 20.2473 -6
      vertex -22.0318 19.7072 0.5
      vertex -21.2051 20.2473 0.5
    endloop
  endfacet
  facet normal -0.546946 0.837168 0
    outer loop
      vertex -22.0318 19.7072 0.5
      vertex -21.2051 20.2473 -6
      vertex -22.0318 19.7072 -6
    endloop
  endfacet
  facet normal -0.245487 0.9694 0
    outer loop
      vertex -20.2477 20.4898 -6
      vertex -21.2051 20.2473 0.5
      vertex -20.2477 20.4898 0.5
    endloop
  endfacet
  facet normal -0.245487 0.9694 0
    outer loop
      vertex -21.2051 20.2473 0.5
      vertex -20.2477 20.4898 -6
      vertex -21.2051 20.2473 -6
    endloop
  endfacet
  facet normal -0.789142 0.614211 0
    outer loop
      vertex -22.6384 18.9278 -6
      vertex -22.0318 19.7072 0.5
      vertex -22.0318 19.7072 -6
    endloop
  endfacet
  facet normal -0.789142 0.614211 0
    outer loop
      vertex -22.0318 19.7072 0.5
      vertex -22.6384 18.9278 -6
      vertex -22.6384 18.9278 0.5
    endloop
  endfacet
  facet normal 0 1 -0
    outer loop
      vertex -0.247739 20.4898 -6
      vertex -20.2477 20.4898 0.5
      vertex -0.247739 20.4898 0.5
    endloop
  endfacet
  facet normal 0 1 0
    outer loop
      vertex -20.2477 20.4898 0.5
      vertex -0.247739 20.4898 -6
      vertex -20.2477 20.4898 -6
    endloop
  endfacet
  facet normal -0.546946 -0.837168 0
    outer loop
      vertex -22.0318 -19.7072 -6
      vertex -21.2051 -20.2473 0.5
      vertex -22.0318 -19.7072 0.5
    endloop
  endfacet
  facet normal -0.546946 -0.837168 -0
    outer loop
      vertex -21.2051 -20.2473 0.5
      vertex -22.0318 -19.7072 -6
      vertex -21.2051 -20.2473 -6
    endloop
  endfacet
  facet normal -0.945817 -0.3247 0
    outer loop
      vertex -22.6384 -18.9278 -6
      vertex -22.9591 -17.9938 0.5
      vertex -22.9591 -17.9938 -6
    endloop
  endfacet
  facet normal -0.945817 -0.3247 0
    outer loop
      vertex -22.9591 -17.9938 0.5
      vertex -22.6384 -18.9278 -6
      vertex -22.6384 -18.9278 0.5
    endloop
  endfacet
  facet normal 0.0825811 -0.996584 0
    outer loop
      vertex -0.247739 -20.4898 -6
      vertex 0.736456 -20.4082 0.5
      vertex -0.247739 -20.4898 0.5
    endloop
  endfacet
  facet normal 0.0825811 -0.996584 0
    outer loop
      vertex 0.736456 -20.4082 0.5
      vertex -0.247739 -20.4898 -6
      vertex 0.736456 -20.4082 -6
    endloop
  endfacet
  facet normal 0.677282 0.735724 -0
    outer loop
      vertex 2.36742 19.3426 -6
      vertex 1.64084 20.0115 0.5
      vertex 2.36742 19.3426 0.5
    endloop
  endfacet
  facet normal 0.677282 0.735724 0
    outer loop
      vertex 1.64084 20.0115 0.5
      vertex 2.36742 19.3426 -6
      vertex 1.64084 20.0115 -6
    endloop
  endfacet
  facet normal -0.789142 -0.614211 0
    outer loop
      vertex -22.0318 -19.7072 -6
      vertex -22.6384 -18.9278 0.5
      vertex -22.6384 -18.9278 -6
    endloop
  endfacet
  facet normal -0.789142 -0.614211 0
    outer loop
      vertex -22.6384 -18.9278 0.5
      vertex -22.0318 -19.7072 -6
      vertex -22.0318 -19.7072 0.5
    endloop
  endfacet
  facet normal 0.401694 -0.915774 0
    outer loop
      vertex 0.736456 -20.4082 -6
      vertex 1.64084 -20.0115 0.5
      vertex 0.736456 -20.4082 0.5
    endloop
  endfacet
  facet normal 0.401694 -0.915774 0
    outer loop
      vertex 1.64084 -20.0115 0.5
      vertex 0.736456 -20.4082 -6
      vertex 1.64084 -20.0115 -6
    endloop
  endfacet
  facet normal 0.401694 0.915774 -0
    outer loop
      vertex 1.64084 20.0115 -6
      vertex 0.736456 20.4082 0.5
      vertex 1.64084 20.0115 0.5
    endloop
  endfacet
  facet normal 0.401694 0.915774 0
    outer loop
      vertex 0.736456 20.4082 0.5
      vertex 1.64084 20.0115 -6
      vertex 0.736456 20.4082 -6
    endloop
  endfacet
  facet normal 0.677282 -0.735724 0
    outer loop
      vertex 1.64084 -20.0115 -6
      vertex 2.36742 -19.3426 0.5
      vertex 1.64084 -20.0115 0.5
    endloop
  endfacet
  facet normal 0.677282 -0.735724 0
    outer loop
      vertex 2.36742 -19.3426 0.5
      vertex 1.64084 -20.0115 -6
      vertex 2.36742 -19.3426 -6
    endloop
  endfacet
  facet normal 0.879474 -0.475947 0
    outer loop
      vertex 2.36742 -19.3426 0.5
      vertex 2.83745 -18.4741 -6
      vertex 2.83745 -18.4741 0.5
    endloop
  endfacet
  facet normal 0.879474 -0.475947 0
    outer loop
      vertex 2.83745 -18.4741 -6
      vertex 2.36742 -19.3426 0.5
      vertex 2.36742 -19.3426 -6
    endloop
  endfacet
  facet normal 0.0825811 0.996584 -0
    outer loop
      vertex 0.736456 20.4082 -6
      vertex -0.247739 20.4898 0.5
      vertex 0.736456 20.4082 0.5
    endloop
  endfacet
  facet normal 0.0825811 0.996584 0
    outer loop
      vertex -0.247739 20.4898 0.5
      vertex 0.736456 20.4082 -6
      vertex -0.247739 20.4898 -6
    endloop
  endfacet
  facet normal 0.879474 0.475947 0
    outer loop
      vertex 2.83745 18.4741 0.5
      vertex 2.36742 19.3426 -6
      vertex 2.36742 19.3426 0.5
    endloop
  endfacet
  facet normal 0.879474 0.475947 0
    outer loop
      vertex 2.36742 19.3426 -6
      vertex 2.83745 18.4741 0.5
      vertex 2.83745 18.4741 -6
    endloop
  endfacet
  facet normal 0.986361 0.164595 0
    outer loop
      vertex 3 17.5 0.5
      vertex 2.83745 18.4741 -6
      vertex 2.83745 18.4741 0.5
    endloop
  endfacet
  facet normal 0.986361 0.164595 0
    outer loop
      vertex 2.83745 18.4741 -6
      vertex 3 17.5 0.5
      vertex 3 17.5 -6
    endloop
  endfacet
  facet normal 0.986361 -0.164595 0
    outer loop
      vertex 2.83745 -18.4741 0.5
      vertex 3 -17.5 -6
      vertex 3 -17.5 0.5
    endloop
  endfacet
  facet normal 0.986361 -0.164595 0
    outer loop
      vertex 3 -17.5 -6
      vertex 2.83745 -18.4741 0.5
      vertex 2.83745 -18.4741 -6
    endloop
  endfacet
  facet normal 0 0 1
    outer loop
      vertex 1.33745 16.9741 -0.5
      vertex 2.5 17 -0.5
      vertex 2.33745 17.9741 -0.5
    endloop
  endfacet
  facet normal 0 0 1
    outer loop
      vertex 2.5 17 -0.5
      vertex 1.5 16 -0.5
      vertex 2.5 -17 -0.5
    endloop
  endfacet
  facet normal 0 0 1
    outer loop
      vertex 0.867421 17.8426 -0.5
      vertex 2.33745 17.9741 -0.5
      vertex 1.86742 18.8426 -0.5
    endloop
  endfacet
  facet normal -0 0 1
    outer loop
      vertex 1.5 -16 -0.5
      vertex 2.5 -17 -0.5
      vertex 1.5 16 -0.5
    endloop
  endfacet
  facet normal -0 0 1
    outer loop
      vertex 1.33745 -16.9741 -0.5
      vertex 2.5 -17 -0.5
      vertex 1.5 -16 -0.5
    endloop
  endfacet
  facet normal 0 0 1
    outer loop
      vertex 2.5 17 -0.5
      vertex 1.33745 16.9741 -0.5
      vertex 1.5 16 -0.5
    endloop
  endfacet
  facet normal 0 0 1
    outer loop
      vertex 0.867421 17.8426 -0.5
      vertex 1.86742 18.8426 -0.5
      vertex 1.14084 19.5115 -0.5
    endloop
  endfacet
  facet normal 0 0 1
    outer loop
      vertex 2.33745 17.9741 -0.5
      vertex 0.867421 17.8426 -0.5
      vertex 1.33745 16.9741 -0.5
    endloop
  endfacet
  facet normal 0 0 1
    outer loop
      vertex 0.140844 18.5115 -0.5
      vertex 1.14084 19.5115 -0.5
      vertex 0.236456 19.9082 -0.5
    endloop
  endfacet
  facet normal 0 0 1
    outer loop
      vertex 1.14084 19.5115 -0.5
      vertex 0.140844 18.5115 -0.5
      vertex 0.867421 17.8426 -0.5
    endloop
  endfacet
  facet normal 0 0 1
    outer loop
      vertex -0.763544 18.9082 -0.5
      vertex 0.236456 19.9082 -0.5
      vertex -0.747739 19.9898 -0.5
    endloop
  endfacet
  facet normal 0 0 1
    outer loop
      vertex 0.236456 19.9082 -0.5
      vertex -0.763544 18.9082 -0.5
      vertex 0.140844 18.5115 -0.5
    endloop
  endfacet
  facet normal 0 0 1
    outer loop
      vertex -0.747739 19.9898 -0.5
      vertex -1.74774 18.9898 -0.5
      vertex -0.763544 18.9082 -0.5
    endloop
  endfacet
  facet normal 0 0 1
    outer loop
      vertex -0.747739 19.9898 -0.5
      vertex -18.7477 18.9898 -0.5
      vertex -1.74774 18.9898 -0.5
    endloop
  endfacet
  facet normal -0 0 1
    outer loop
      vertex -19.7477 19.9898 -0.5
      vertex -18.7477 18.9898 -0.5
      vertex -0.747739 19.9898 -0.5
    endloop
  endfacet
  facet normal 0 0 1
    outer loop
      vertex -19.7477 19.9898 -0.5
      vertex -19.7051 18.7473 -0.5
      vertex -18.7477 18.9898 -0.5
    endloop
  endfacet
  facet normal -0 0 1
    outer loop
      vertex -20.7051 19.7473 -0.5
      vertex -19.7051 18.7473 -0.5
      vertex -19.7477 19.9898 -0.5
    endloop
  endfacet
  facet normal 0 0 1
    outer loop
      vertex -19.7051 18.7473 -0.5
      vertex -20.7051 19.7473 -0.5
      vertex -20.5318 18.2072 -0.5
    endloop
  endfacet
  facet normal -0 0 1
    outer loop
      vertex -21.5318 19.2072 -0.5
      vertex -20.5318 18.2072 -0.5
      vertex -20.7051 19.7473 -0.5
    endloop
  endfacet
  facet normal -0 0 1
    outer loop
      vertex -22.1384 18.4278 -0.5
      vertex -20.5318 18.2072 -0.5
      vertex -21.5318 19.2072 -0.5
    endloop
  endfacet
  facet normal -0 0 1
    outer loop
      vertex -22.4591 17.4938 -0.5
      vertex -21.1384 17.4278 -0.5
      vertex -22.1384 18.4278 -0.5
    endloop
  endfacet
  facet normal 0 0 1
    outer loop
      vertex -20.5318 18.2072 -0.5
      vertex -22.1384 18.4278 -0.5
      vertex -21.1384 17.4278 -0.5
    endloop
  endfacet
  facet normal 0 0 1
    outer loop
      vertex 2.5 -17 -0.5
      vertex 1.33745 -16.9741 -0.5
      vertex 2.33745 -17.9741 -0.5
    endloop
  endfacet
  facet normal -0 0 1
    outer loop
      vertex 0.867421 -17.8426 -0.5
      vertex 2.33745 -17.9741 -0.5
      vertex 1.33745 -16.9741 -0.5
    endloop
  endfacet
  facet normal 0 0 1
    outer loop
      vertex 2.33745 -17.9741 -0.5
      vertex 0.867421 -17.8426 -0.5
      vertex 1.86742 -18.8426 -0.5
    endloop
  endfacet
  facet normal 0 0 1
    outer loop
      vertex 1.86742 -18.8426 -0.5
      vertex 0.867421 -17.8426 -0.5
      vertex 1.14084 -19.5115 -0.5
    endloop
  endfacet
  facet normal -0 0 1
    outer loop
      vertex 0.140844 -18.5115 -0.5
      vertex 1.14084 -19.5115 -0.5
      vertex 0.867421 -17.8426 -0.5
    endloop
  endfacet
  facet normal 0 0 1
    outer loop
      vertex 1.14084 -19.5115 -0.5
      vertex 0.140844 -18.5115 -0.5
      vertex 0.236456 -19.9082 -0.5
    endloop
  endfacet
  facet normal -0 0 1
    outer loop
      vertex -0.763544 -18.9082 -0.5
      vertex 0.236456 -19.9082 -0.5
      vertex 0.140844 -18.5115 -0.5
    endloop
  endfacet
  facet normal 0 0 1
    outer loop
      vertex 0.236456 -19.9082 -0.5
      vertex -0.763544 -18.9082 -0.5
      vertex -0.747739 -19.9898 -0.5
    endloop
  endfacet
  facet normal -0 0 1
    outer loop
      vertex -1.74774 -18.9898 -0.5
      vertex -0.747739 -19.9898 -0.5
      vertex -0.763544 -18.9082 -0.5
    endloop
  endfacet
  facet normal -0 0 1
    outer loop
      vertex -18.7477 -18.9898 -0.5
      vertex -0.747739 -19.9898 -0.5
      vertex -1.74774 -18.9898 -0.5
    endloop
  endfacet
  facet normal 0 0 1
    outer loop
      vertex -18.7477 -18.9898 -0.5
      vertex -19.7477 -19.9898 -0.5
      vertex -0.747739 -19.9898 -0.5
    endloop
  endfacet
  facet normal 0 0 1
    outer loop
      vertex -19.7051 -18.7473 -0.5
      vertex -19.7477 -19.9898 -0.5
      vertex -18.7477 -18.9898 -0.5
    endloop
  endfacet
  facet normal 0 0 1
    outer loop
      vertex -20.7051 -19.7473 -0.5
      vertex -19.7051 -18.7473 -0.5
      vertex -20.5318 -18.2072 -0.5
    endloop
  endfacet
  facet normal 0 0 1
    outer loop
      vertex -19.7051 -18.7473 -0.5
      vertex -20.7051 -19.7473 -0.5
      vertex -19.7477 -19.9898 -0.5
    endloop
  endfacet
  facet normal 0 0 1
    outer loop
      vertex -22.1384 -18.4278 -0.5
      vertex -20.5318 -18.2072 -0.5
      vertex -21.1384 -17.4278 -0.5
    endloop
  endfacet
  facet normal 0 0 1
    outer loop
      vertex -22.4591 -17.4938 -0.5
      vertex -21.1384 -17.4278 -0.5
      vertex -21.4591 -16.4938 -0.5
    endloop
  endfacet
  facet normal 0 0 1
    outer loop
      vertex -20.5318 -18.2072 -0.5
      vertex -21.5318 -19.2072 -0.5
      vertex -20.7051 -19.7473 -0.5
    endloop
  endfacet
  facet normal 0 0 1
    outer loop
      vertex -21.4591 16.4938 -0.5
      vertex -22.4591 17.4938 -0.5
      vertex -21.4591 -16.4938 -0.5
    endloop
  endfacet
  facet normal 0 0 1
    outer loop
      vertex -21.1384 17.4278 -0.5
      vertex -22.4591 17.4938 -0.5
      vertex -21.4591 16.4938 -0.5
    endloop
  endfacet
  facet normal 0 0 1
    outer loop
      vertex -22.4591 -17.4938 -0.5
      vertex -21.4591 -16.4938 -0.5
      vertex -22.4591 17.4938 -0.5
    endloop
  endfacet
  facet normal 0 0 1
    outer loop
      vertex -21.1384 -17.4278 -0.5
      vertex -22.4591 -17.4938 -0.5
      vertex -22.1384 -18.4278 -0.5
    endloop
  endfacet
  facet normal 0 0 1
    outer loop
      vertex -20.5318 -18.2072 -0.5
      vertex -22.1384 -18.4278 -0.5
      vertex -21.5318 -19.2072 -0.5
    endloop
  endfacet
  facet normal 0 -1 0
    outer loop
      vertex -19.7477 19.9898 -0.5
      vertex -0.747739 19.9898 0.5
      vertex -19.7477 19.9898 0.5
    endloop
  endfacet
  facet normal 0 -1 -0
    outer loop
      vertex -0.747739 19.9898 0.5
      vertex -19.7477 19.9898 -0.5
      vertex -0.747739 19.9898 -0.5
    endloop
  endfacet
  facet normal 0 1 -0
    outer loop
      vertex -0.747739 -19.9898 -0.5
      vertex -19.7477 -19.9898 0.5
      vertex -0.747739 -19.9898 0.5
    endloop
  endfacet
  facet normal 0 1 0
    outer loop
      vertex -19.7477 -19.9898 0.5
      vertex -0.747739 -19.9898 -0.5
      vertex -19.7477 -19.9898 -0.5
    endloop
  endfacet
  facet normal 1 -0 0
    outer loop
      vertex -22.4591 -17.4938 0.5
      vertex -22.4591 17.4938 -0.5
      vertex -22.4591 17.4938 0.5
    endloop
  endfacet
  facet normal 1 0 0
    outer loop
      vertex -22.4591 17.4938 -0.5
      vertex -22.4591 -17.4938 0.5
      vertex -22.4591 -17.4938 -0.5
    endloop
  endfacet
  facet normal 0.945817 0.3247 0
    outer loop
      vertex -22.1384 -18.4278 0.5
      vertex -22.4591 -17.4938 -0.5
      vertex -22.4591 -17.4938 0.5
    endloop
  endfacet
  facet normal 0.945817 0.3247 0
    outer loop
      vertex -22.4591 -17.4938 -0.5
      vertex -22.1384 -18.4278 0.5
      vertex -22.1384 -18.4278 -0.5
    endloop
  endfacet
  facet normal 0.245487 -0.9694 0
    outer loop
      vertex -20.7051 19.7473 -0.5
      vertex -19.7477 19.9898 0.5
      vertex -20.7051 19.7473 0.5
    endloop
  endfacet
  facet normal 0.245487 -0.9694 0
    outer loop
      vertex -19.7477 19.9898 0.5
      vertex -20.7051 19.7473 -0.5
      vertex -19.7477 19.9898 -0.5
    endloop
  endfacet
  facet normal -0.986361 -0.164595 0
    outer loop
      vertex 2.5 17 -0.5
      vertex 2.33745 17.9741 0.5
      vertex 2.33745 17.9741 -0.5
    endloop
  endfacet
  facet normal -0.986361 -0.164595 0
    outer loop
      vertex 2.33745 17.9741 0.5
      vertex 2.5 17 -0.5
      vertex 2.5 17 0.5
    endloop
  endfacet
  facet normal -1 0 0
    outer loop
      vertex 2.5 -17 -0.5
      vertex 2.5 17 0.5
      vertex 2.5 17 -0.5
    endloop
  endfacet
  facet normal -1 -0 0
    outer loop
      vertex 2.5 17 0.5
      vertex 2.5 -17 -0.5
      vertex 2.5 -17 0.5
    endloop
  endfacet
  facet normal 0.945817 -0.3247 0
    outer loop
      vertex -22.4591 17.4938 0.5
      vertex -22.1384 18.4278 -0.5
      vertex -22.1384 18.4278 0.5
    endloop
  endfacet
  facet normal 0.945817 -0.3247 0
    outer loop
      vertex -22.1384 18.4278 -0.5
      vertex -22.4591 17.4938 0.5
      vertex -22.4591 17.4938 -0.5
    endloop
  endfacet
  facet normal 0.546946 -0.837168 0
    outer loop
      vertex -21.5318 19.2072 -0.5
      vertex -20.7051 19.7473 0.5
      vertex -21.5318 19.2072 0.5
    endloop
  endfacet
  facet normal 0.546946 -0.837168 0
    outer loop
      vertex -20.7051 19.7473 0.5
      vertex -21.5318 19.2072 -0.5
      vertex -20.7051 19.7473 -0.5
    endloop
  endfacet
  facet normal 0.789142 -0.614211 0
    outer loop
      vertex -22.1384 18.4278 0.5
      vertex -21.5318 19.2072 -0.5
      vertex -21.5318 19.2072 0.5
    endloop
  endfacet
  facet normal 0.789142 -0.614211 0
    outer loop
      vertex -21.5318 19.2072 -0.5
      vertex -22.1384 18.4278 0.5
      vertex -22.1384 18.4278 -0.5
    endloop
  endfacet
  facet normal -0.401694 0.915774 0
    outer loop
      vertex 1.14084 -19.5115 -0.5
      vertex 0.236456 -19.9082 0.5
      vertex 1.14084 -19.5115 0.5
    endloop
  endfacet
  facet normal -0.401694 0.915774 0
    outer loop
      vertex 0.236456 -19.9082 0.5
      vertex 1.14084 -19.5115 -0.5
      vertex 0.236456 -19.9082 -0.5
    endloop
  endfacet
  facet normal -0.0825811 0.996584 0
    outer loop
      vertex 0.236456 -19.9082 -0.5
      vertex -0.747739 -19.9898 0.5
      vertex 0.236456 -19.9082 0.5
    endloop
  endfacet
  facet normal -0.0825811 0.996584 0
    outer loop
      vertex -0.747739 -19.9898 0.5
      vertex 0.236456 -19.9082 -0.5
      vertex -0.747739 -19.9898 -0.5
    endloop
  endfacet
  facet normal -0.677282 0.735724 0
    outer loop
      vertex 1.86742 -18.8426 -0.5
      vertex 1.14084 -19.5115 0.5
      vertex 1.86742 -18.8426 0.5
    endloop
  endfacet
  facet normal -0.677282 0.735724 0
    outer loop
      vertex 1.14084 -19.5115 0.5
      vertex 1.86742 -18.8426 -0.5
      vertex 1.14084 -19.5115 -0.5
    endloop
  endfacet
  facet normal 0.245487 0.9694 -0
    outer loop
      vertex -19.7477 -19.9898 -0.5
      vertex -20.7051 -19.7473 0.5
      vertex -19.7477 -19.9898 0.5
    endloop
  endfacet
  facet normal 0.245487 0.9694 0
    outer loop
      vertex -20.7051 -19.7473 0.5
      vertex -19.7477 -19.9898 -0.5
      vertex -20.7051 -19.7473 -0.5
    endloop
  endfacet
  facet normal 0.546946 0.837168 -0
    outer loop
      vertex -20.7051 -19.7473 -0.5
      vertex -21.5318 -19.2072 0.5
      vertex -20.7051 -19.7473 0.5
    endloop
  endfacet
  facet normal 0.546946 0.837168 0
    outer loop
      vertex -21.5318 -19.2072 0.5
      vertex -20.7051 -19.7473 -0.5
      vertex -21.5318 -19.2072 -0.5
    endloop
  endfacet
  facet normal -0.879474 0.475947 0
    outer loop
      vertex 1.86742 -18.8426 -0.5
      vertex 2.33745 -17.9741 0.5
      vertex 2.33745 -17.9741 -0.5
    endloop
  endfacet
  facet normal -0.879474 0.475947 0
    outer loop
      vertex 2.33745 -17.9741 0.5
      vertex 1.86742 -18.8426 -0.5
      vertex 1.86742 -18.8426 0.5
    endloop
  endfacet
  facet normal -0.0825811 -0.996584 0
    outer loop
      vertex -0.747739 19.9898 -0.5
      vertex 0.236456 19.9082 0.5
      vertex -0.747739 19.9898 0.5
    endloop
  endfacet
  facet normal -0.0825811 -0.996584 -0
    outer loop
      vertex 0.236456 19.9082 0.5
      vertex -0.747739 19.9898 -0.5
      vertex 0.236456 19.9082 -0.5
    endloop
  endfacet
  facet normal -0.879474 -0.475947 0
    outer loop
      vertex 2.33745 17.9741 -0.5
      vertex 1.86742 18.8426 0.5
      vertex 1.86742 18.8426 -0.5
    endloop
  endfacet
  facet normal -0.879474 -0.475947 0
    outer loop
      vertex 1.86742 18.8426 0.5
      vertex 2.33745 17.9741 -0.5
      vertex 2.33745 17.9741 0.5
    endloop
  endfacet
  facet normal 0.789142 0.614211 0
    outer loop
      vertex -21.5318 -19.2072 0.5
      vertex -22.1384 -18.4278 -0.5
      vertex -22.1384 -18.4278 0.5
    endloop
  endfacet
  facet normal 0.789142 0.614211 0
    outer loop
      vertex -22.1384 -18.4278 -0.5
      vertex -21.5318 -19.2072 0.5
      vertex -21.5318 -19.2072 -0.5
    endloop
  endfacet
  facet normal -0.986361 0.164595 0
    outer loop
      vertex 2.33745 -17.9741 -0.5
      vertex 2.5 -17 0.5
      vertex 2.5 -17 -0.5
    endloop
  endfacet
  facet normal -0.986361 0.164595 0
    outer loop
      vertex 2.5 -17 0.5
      vertex 2.33745 -17.9741 -0.5
      vertex 2.33745 -17.9741 0.5
    endloop
  endfacet
  facet normal -0.401694 -0.915774 0
    outer loop
      vertex 0.236456 19.9082 -0.5
      vertex 1.14084 19.5115 0.5
      vertex 0.236456 19.9082 0.5
    endloop
  endfacet
  facet normal -0.401694 -0.915774 -0
    outer loop
      vertex 1.14084 19.5115 0.5
      vertex 0.236456 19.9082 -0.5
      vertex 1.14084 19.5115 -0.5
    endloop
  endfacet
  facet normal -0.677282 -0.735724 0
    outer loop
      vertex 1.14084 19.5115 -0.5
      vertex 1.86742 18.8426 0.5
      vertex 1.14084 19.5115 0.5
    endloop
  endfacet
  facet normal -0.677282 -0.735724 -0
    outer loop
      vertex 1.86742 18.8426 0.5
      vertex 1.14084 19.5115 -0.5
      vertex 1.86742 18.8426 -0.5
    endloop
  endfacet
  facet normal -0 0 1
    outer loop
      vertex 2.33745 17.9741 0.5
      vertex 3 17.5 0.5
      vertex 2.83745 18.4741 0.5
    endloop
  endfacet
  facet normal 0 0 1
    outer loop
      vertex 3 17.5 0.5
      vertex 2.5 17 0.5
      vertex 3 -17.5 0.5
    endloop
  endfacet
  facet normal -0 0 1
    outer loop
      vertex 2.5 -17 0.5
      vertex 3 -17.5 0.5
      vertex 2.5 17 0.5
    endloop
  endfacet
  facet normal -0 0 1
    outer loop
      vertex 1.86742 18.8426 0.5
      vertex 2.83745 18.4741 0.5
      vertex 2.36742 19.3426 0.5
    endloop
  endfacet
  facet normal 0 0 1
    outer loop
      vertex 3 17.5 0.5
      vertex 2.33745 17.9741 0.5
      vertex 2.5 17 0.5
    endloop
  endfacet
  facet normal 0 0 1
    outer loop
      vertex 2.83745 18.4741 0.5
      vertex 1.86742 18.8426 0.5
      vertex 2.33745 17.9741 0.5
    endloop
  endfacet
  facet normal 0 0 1
    outer loop
      vertex 1.64084 20.0115 0.5
      vertex 1.86742 18.8426 0.5
      vertex 2.36742 19.3426 0.5
    endloop
  endfacet
  facet normal 0 0 1
    outer loop
      vertex 1.64084 20.0115 0.5
      vertex 1.14084 19.5115 0.5
      vertex 1.86742 18.8426 0.5
    endloop
  endfacet
  facet normal 0 0 1
    outer loop
      vertex 0.736456 20.4082 0.5
      vertex 1.14084 19.5115 0.5
      vertex 1.64084 20.0115 0.5
    endloop
  endfacet
  facet normal 0 0 1
    outer loop
      vertex 0.736456 20.4082 0.5
      vertex 0.236456 19.9082 0.5
      vertex 1.14084 19.5115 0.5
    endloop
  endfacet
  facet normal 0 0 1
    outer loop
      vertex -0.247739 20.4898 0.5
      vertex 0.236456 19.9082 0.5
      vertex 0.736456 20.4082 0.5
    endloop
  endfacet
  facet normal 0 0 1
    outer loop
      vertex -0.247739 20.4898 0.5
      vertex -0.747739 19.9898 0.5
      vertex 0.236456 19.9082 0.5
    endloop
  endfacet
  facet normal 0 0 1
    outer loop
      vertex -0.247739 20.4898 0.5
      vertex -19.7477 19.9898 0.5
      vertex -0.747739 19.9898 0.5
    endloop
  endfacet
  facet normal -0 0 1
    outer loop
      vertex -20.2477 20.4898 0.5
      vertex -19.7477 19.9898 0.5
      vertex -0.247739 20.4898 0.5
    endloop
  endfacet
  facet normal 0 0 1
    outer loop
      vertex -20.2477 20.4898 0.5
      vertex -20.7051 19.7473 0.5
      vertex -19.7477 19.9898 0.5
    endloop
  endfacet
  facet normal -0 0 1
    outer loop
      vertex -21.2051 20.2473 0.5
      vertex -20.7051 19.7473 0.5
      vertex -20.2477 20.4898 0.5
    endloop
  endfacet
  facet normal 0 0 1
    outer loop
      vertex -21.2051 20.2473 0.5
      vertex -21.5318 19.2072 0.5
      vertex -20.7051 19.7473 0.5
    endloop
  endfacet
  facet normal -0 0 1
    outer loop
      vertex -22.0318 19.7072 0.5
      vertex -21.5318 19.2072 0.5
      vertex -21.2051 20.2473 0.5
    endloop
  endfacet
  facet normal 0 0 1
    outer loop
      vertex -22.6384 18.9278 0.5
      vertex -21.5318 19.2072 0.5
      vertex -22.0318 19.7072 0.5
    endloop
  endfacet
  facet normal 0 0 1
    outer loop
      vertex -21.5318 19.2072 0.5
      vertex -22.6384 18.9278 0.5
      vertex -22.1384 18.4278 0.5
    endloop
  endfacet
  facet normal 0 0 1
    outer loop
      vertex -22.1384 18.4278 0.5
      vertex -22.9591 17.9938 0.5
      vertex -22.4591 17.4938 0.5
    endloop
  endfacet
  facet normal 0 0 1
    outer loop
      vertex -22.9591 17.9938 0.5
      vertex -22.1384 18.4278 0.5
      vertex -22.6384 18.9278 0.5
    endloop
  endfacet
  facet normal 0 0 1
    outer loop
      vertex 2.33745 -17.9741 0.5
      vertex 3 -17.5 0.5
      vertex 2.5 -17 0.5
    endloop
  endfacet
  facet normal 0 0 1
    outer loop
      vertex 3 -17.5 0.5
      vertex 2.33745 -17.9741 0.5
      vertex 2.83745 -18.4741 0.5
    endloop
  endfacet
  facet normal 0 0 1
    outer loop
      vertex 1.86742 -18.8426 0.5
      vertex 2.83745 -18.4741 0.5
      vertex 2.33745 -17.9741 0.5
    endloop
  endfacet
  facet normal 0 0 1
    outer loop
      vertex 2.83745 -18.4741 0.5
      vertex 1.86742 -18.8426 0.5
      vertex 2.36742 -19.3426 0.5
    endloop
  endfacet
  facet normal 0 0 1
    outer loop
      vertex 1.86742 -18.8426 0.5
      vertex 1.64084 -20.0115 0.5
      vertex 2.36742 -19.3426 0.5
    endloop
  endfacet
  facet normal -0 0 1
    outer loop
      vertex 1.14084 -19.5115 0.5
      vertex 1.64084 -20.0115 0.5
      vertex 1.86742 -18.8426 0.5
    endloop
  endfacet
  facet normal 0 0 1
    outer loop
      vertex 1.14084 -19.5115 0.5
      vertex 0.736456 -20.4082 0.5
      vertex 1.64084 -20.0115 0.5
    endloop
  endfacet
  facet normal -0 0 1
    outer loop
      vertex 0.236456 -19.9082 0.5
      vertex 0.736456 -20.4082 0.5
      vertex 1.14084 -19.5115 0.5
    endloop
  endfacet
  facet normal 0 0 1
    outer loop
      vertex 0.236456 -19.9082 0.5
      vertex -0.247739 -20.4898 0.5
      vertex 0.736456 -20.4082 0.5
    endloop
  endfacet
  facet normal -0 0 1
    outer loop
      vertex -0.747739 -19.9898 0.5
      vertex -0.247739 -20.4898 0.5
      vertex 0.236456 -19.9082 0.5
    endloop
  endfacet
  facet normal -0 0 1
    outer loop
      vertex -19.7477 -19.9898 0.5
      vertex -0.247739 -20.4898 0.5
      vertex -0.747739 -19.9898 0.5
    endloop
  endfacet
  facet normal 0 0 1
    outer loop
      vertex -19.7477 -19.9898 0.5
      vertex -20.2477 -20.4898 0.5
      vertex -0.247739 -20.4898 0.5
    endloop
  endfacet
  facet normal 0 0 1
    outer loop
      vertex -20.7051 -19.7473 0.5
      vertex -20.2477 -20.4898 0.5
      vertex -19.7477 -19.9898 0.5
    endloop
  endfacet
  facet normal 0 0 1
    outer loop
      vertex -20.7051 -19.7473 0.5
      vertex -21.2051 -20.2473 0.5
      vertex -20.2477 -20.4898 0.5
    endloop
  endfacet
  facet normal 0 0 1
    outer loop
      vertex -21.5318 -19.2072 0.5
      vertex -21.2051 -20.2473 0.5
      vertex -20.7051 -19.7473 0.5
    endloop
  endfacet
  facet normal 0 0 1
    outer loop
      vertex -21.5318 -19.2072 0.5
      vertex -22.0318 -19.7072 0.5
      vertex -21.2051 -20.2473 0.5
    endloop
  endfacet
  facet normal -0 0 1
    outer loop
      vertex -22.6384 -18.9278 0.5
      vertex -21.5318 -19.2072 0.5
      vertex -22.1384 -18.4278 0.5
    endloop
  endfacet
  facet normal -0 0 1
    outer loop
      vertex -22.9591 -17.9938 0.5
      vertex -22.1384 -18.4278 0.5
      vertex -22.4591 -17.4938 0.5
    endloop
  endfacet
  facet normal 0 0 1
    outer loop
      vertex -21.5318 -19.2072 0.5
      vertex -22.6384 -18.9278 0.5
      vertex -22.0318 -19.7072 0.5
    endloop
  endfacet
  facet normal 0 0 1
    outer loop
      vertex -22.4591 17.4938 0.5
      vertex -22.9591 17.9938 0.5
      vertex -22.4591 -17.4938 0.5
    endloop
  endfacet
  facet normal 0 0 1
    outer loop
      vertex -22.9591 -17.9938 0.5
      vertex -22.4591 -17.4938 0.5
      vertex -22.9591 17.9938 0.5
    endloop
  endfacet
  facet normal 0 0 1
    outer loop
      vertex -22.1384 -18.4278 0.5
      vertex -22.9591 -17.9938 0.5
      vertex -22.6384 -18.9278 0.5
    endloop
  endfacet
  facet normal 0 0 1
    outer loop
      vertex 38.2523 18.9898 -4.5
      vertex 41.5 16 -4.5
      vertex 41.3375 16.9741 -4.5
    endloop
  endfacet
  facet normal 0 0 1
    outer loop
      vertex 41.5 16 -4.5
      vertex 37.75 -5.51091e-16 -4.5
      vertex 41.5 -16 -4.5
    endloop
  endfacet
  facet normal 0 0 1
    outer loop
      vertex 38.2523 18.9898 -4.5
      vertex 41.3375 16.9741 -4.5
      vertex 40.8674 17.8426 -4.5
    endloop
  endfacet
  facet normal -0 0 1
    outer loop
      vertex 37.75 -14.5 -4.5
      vertex 41.5 -16 -4.5
      vertex 37.75 -5.51091e-16 -4.5
    endloop
  endfacet
  facet normal 0 0 1
    outer loop
      vertex 38.2523 18.9898 -4.5
      vertex 40.8674 17.8426 -4.5
      vertex 40.1408 18.5115 -4.5
    endloop
  endfacet
  facet normal 0 0 1
    outer loop
      vertex 41.5 -16 -4.5
      vertex 37.75 -14.5 -4.5
      vertex 41.3375 -16.9741 -4.5
    endloop
  endfacet
  facet normal 0 0 1
    outer loop
      vertex 38.2523 18.9898 -4.5
      vertex 40.1408 18.5115 -4.5
      vertex 39.2365 18.9082 -4.5
    endloop
  endfacet
  facet normal 0 0 1
    outer loop
      vertex 41.3375 -16.9741 -4.5
      vertex 37.75 -14.5 -4.5
      vertex 40.8674 -17.8426 -4.5
    endloop
  endfacet
  facet normal 0 0 1
    outer loop
      vertex 41.5 16 -4.5
      vertex 38.2523 18.9898 -4.5
      vertex 33.25 14.5 -4.5
    endloop
  endfacet
  facet normal 0 0 1
    outer loop
      vertex 40.8674 -17.8426 -4.5
      vertex 37.75 -14.5 -4.5
      vertex 40.1408 -18.5115 -4.5
    endloop
  endfacet
  facet normal 0 0 1
    outer loop
      vertex 40.1408 -18.5115 -4.5
      vertex 37.75 -14.5 -4.5
      vertex 39.2365 -18.9082 -4.5
    endloop
  endfacet
  facet normal 0 0 1
    outer loop
      vertex 41.5 16 -4.5
      vertex 33.25 14.5 -4.5
      vertex 33.25 8 -4.5
    endloop
  endfacet
  facet normal 0 0 1
    outer loop
      vertex 38.2523 18.9898 -4.5
      vertex 26.75 14.5 -4.5
      vertex 33.25 14.5 -4.5
    endloop
  endfacet
  facet normal 0 0 1
    outer loop
      vertex 18.5409 16.4938 -4.5
      vertex 26.75 8 -4.5
      vertex 26.75 14.5 -4.5
    endloop
  endfacet
  facet normal 0 0 1
    outer loop
      vertex 26.75 8 -4.5
      vertex 18.5409 16.4938 -4.5
      vertex 22.25 -5.51091e-16 -4.5
    endloop
  endfacet
  facet normal -0 0 1
    outer loop
      vertex 18.5409 16.4938 -4.5
      vertex 26.75 14.5 -4.5
      vertex 21.2523 18.9898 -4.5
    endloop
  endfacet
  facet normal -0 0 1
    outer loop
      vertex 21.2523 18.9898 -4.5
      vertex 26.75 14.5 -4.5
      vertex 38.2523 18.9898 -4.5
    endloop
  endfacet
  facet normal 0 0 1
    outer loop
      vertex 39.2365 -18.9082 -4.5
      vertex 37.75 -14.5 -4.5
      vertex 38.2523 -18.9898 -4.5
    endloop
  endfacet
  facet normal -0 0 1
    outer loop
      vertex 22.25 -14.5 -4.5
      vertex 38.2523 -18.9898 -4.5
      vertex 37.75 -14.5 -4.5
    endloop
  endfacet
  facet normal 0 0 1
    outer loop
      vertex 22.25 -14.5 -4.5
      vertex 21.2523 -18.9898 -4.5
      vertex 38.2523 -18.9898 -4.5
    endloop
  endfacet
  facet normal 0 0 1
    outer loop
      vertex 18.5409 -16.4938 -4.5
      vertex 22.25 -5.51091e-16 -4.5
      vertex 18.5409 16.4938 -4.5
    endloop
  endfacet
  facet normal 0 0 1
    outer loop
      vertex 18.5409 16.4938 -4.5
      vertex 21.2523 18.9898 -4.5
      vertex 20.2949 18.7473 -4.5
    endloop
  endfacet
  facet normal 0 0 1
    outer loop
      vertex 22.25 -5.51091e-16 -4.5
      vertex 18.5409 -16.4938 -4.5
      vertex 22.25 -14.5 -4.5
    endloop
  endfacet
  facet normal 0 0 1
    outer loop
      vertex 18.5409 16.4938 -4.5
      vertex 20.2949 18.7473 -4.5
      vertex 19.4682 18.2072 -4.5
    endloop
  endfacet
  facet normal 0 -0 1
    outer loop
      vertex 18.8616 -17.4278 -4.5
      vertex 22.25 -14.5 -4.5
      vertex 18.5409 -16.4938 -4.5
    endloop
  endfacet
  facet normal 0 0 1
    outer loop
      vertex 18.5409 16.4938 -4.5
      vertex 19.4682 18.2072 -4.5
      vertex 18.8616 17.4278 -4.5
    endloop
  endfacet
  facet normal 0 0 1
    outer loop
      vertex 22.25 -14.5 -4.5
      vertex 20.2949 -18.7473 -4.5
      vertex 21.2523 -18.9898 -4.5
    endloop
  endfacet
  facet normal 0 0 1
    outer loop
      vertex 22.25 -14.5 -4.5
      vertex 19.4682 -18.2072 -4.5
      vertex 20.2949 -18.7473 -4.5
    endloop
  endfacet
  facet normal 0 0 1
    outer loop
      vertex 22.25 -14.5 -4.5
      vertex 18.8616 -17.4278 -4.5
      vertex 19.4682 -18.2072 -4.5
    endloop
  endfacet
  facet normal 0 0 1
    outer loop
      vertex 41.5 16 -4.5
      vertex 33.25 8 -4.5
      vertex 37.75 -5.51091e-16 -4.5
    endloop
  endfacet
  facet normal -0 0 1
    outer loop
      vertex 26.75 8 -4.5
      vertex 37.75 -5.51091e-16 -4.5
      vertex 33.25 8 -4.5
    endloop
  endfacet
  facet normal 0 0 1
    outer loop
      vertex 37.75 -5.51091e-16 -4.5
      vertex 26.75 8 -4.5
      vertex 22.25 -5.51091e-16 -4.5
    endloop
  endfacet
  facet normal 0 1 -3.8147e-07
    outer loop
      vertex 38.2523 -18.9898 -4.5
      vertex 21.2523 -18.9898 0.5
      vertex 38.2523 -18.9898 0.5
    endloop
  endfacet
  facet normal 0 1 -3.8147e-07
    outer loop
      vertex 21.2523 -18.9898 0.5
      vertex 38.2523 -18.9898 -4.5
      vertex 21.2523 -18.9898 -4.5
    endloop
  endfacet
  facet normal 0 -1 3.8147e-07
    outer loop
      vertex 21.2523 18.9898 -4.5
      vertex 38.2523 18.9898 0.5
      vertex 21.2523 18.9898 0.5
    endloop
  endfacet
  facet normal 0 -1 3.8147e-07
    outer loop
      vertex 38.2523 18.9898 0.5
      vertex 21.2523 18.9898 -4.5
      vertex 38.2523 18.9898 -4.5
    endloop
  endfacet
  facet normal 1 -0 0
    outer loop
      vertex 18.5409 -16.4938 0.5
      vertex 18.5409 16.4938 -4.5
      vertex 18.5409 16.4938 0.5
    endloop
  endfacet
  facet normal 1 0 0
    outer loop
      vertex 18.5409 16.4938 -4.5
      vertex 18.5409 -16.4938 0.5
      vertex 18.5409 -16.4938 -4.5
    endloop
  endfacet
  facet normal 0.945817 -0.3247 0
    outer loop
      vertex 18.5409 16.4938 0.5
      vertex 18.8616 17.4278 -4.5
      vertex 18.8616 17.4278 0.5
    endloop
  endfacet
  facet normal 0.945817 -0.3247 0
    outer loop
      vertex 18.8616 17.4278 -4.5
      vertex 18.5409 16.4938 0.5
      vertex 18.5409 16.4938 -4.5
    endloop
  endfacet
  facet normal 0.245486 0.9694 -3.69797e-07
    outer loop
      vertex 21.2523 -18.9898 -4.5
      vertex 20.2949 -18.7473 0.5
      vertex 21.2523 -18.9898 0.5
    endloop
  endfacet
  facet normal 0.245487 0.9694 0
    outer loop
      vertex 20.2949 -18.7473 0.5
      vertex 21.2523 -18.9898 -4.5
      vertex 20.2949 -18.7473 -4.5
    endloop
  endfacet
  facet normal -0.986361 0.164594 0
    outer loop
      vertex 41.3375 -16.9741 -4.5
      vertex 41.5 -16 0.5
      vertex 41.5 -16 -4.5
    endloop
  endfacet
  facet normal -0.986361 0.164594 0
    outer loop
      vertex 41.5 -16 0.5
      vertex 41.3375 -16.9741 -4.5
      vertex 41.3375 -16.9741 0.5
    endloop
  endfacet
  facet normal -1 0 0
    outer loop
      vertex 41.5 -16 -4.5
      vertex 41.5 16 0.5
      vertex 41.5 16 -4.5
    endloop
  endfacet
  facet normal -1 -0 0
    outer loop
      vertex 41.5 16 0.5
      vertex 41.5 -16 -4.5
      vertex 41.5 -16 0.5
    endloop
  endfacet
  facet normal 0.945817 0.3247 0
    outer loop
      vertex 18.8616 -17.4278 0.5
      vertex 18.5409 -16.4938 -4.5
      vertex 18.5409 -16.4938 0.5
    endloop
  endfacet
  facet normal 0.945817 0.3247 0
    outer loop
      vertex 18.5409 -16.4938 -4.5
      vertex 18.8616 -17.4278 0.5
      vertex 18.8616 -17.4278 -4.5
    endloop
  endfacet
  facet normal 0.546947 0.837167 -0
    outer loop
      vertex 20.2949 -18.7473 -4.5
      vertex 19.4682 -18.2072 0.5
      vertex 20.2949 -18.7473 0.5
    endloop
  endfacet
  facet normal 0.546946 0.837168 -3.19354e-07
    outer loop
      vertex 19.4682 -18.2072 0.5
      vertex 20.2949 -18.7473 -4.5
      vertex 19.4682 -18.2072 -4.5
    endloop
  endfacet
  facet normal 0.789141 0.614212 0
    outer loop
      vertex 19.4682 -18.2072 0.5
      vertex 18.8616 -17.4278 -4.5
      vertex 18.8616 -17.4278 0.5
    endloop
  endfacet
  facet normal 0.789142 0.614211 -2.34303e-07
    outer loop
      vertex 18.8616 -17.4278 -4.5
      vertex 19.4682 -18.2072 0.5
      vertex 19.4682 -18.2072 -4.5
    endloop
  endfacet
  facet normal -0.401694 -0.915774 0
    outer loop
      vertex 39.2365 18.9082 -4.5
      vertex 40.1408 18.5115 0.5
      vertex 39.2365 18.9082 0.5
    endloop
  endfacet
  facet normal -0.401694 -0.915774 -0
    outer loop
      vertex 40.1408 18.5115 0.5
      vertex 39.2365 18.9082 -4.5
      vertex 40.1408 18.5115 -4.5
    endloop
  endfacet
  facet normal -0.082581 -0.996584 3.80167e-07
    outer loop
      vertex 38.2523 18.9898 -4.5
      vertex 39.2365 18.9082 0.5
      vertex 38.2523 18.9898 0.5
    endloop
  endfacet
  facet normal -0.0825791 -0.996585 -0
    outer loop
      vertex 39.2365 18.9082 0.5
      vertex 38.2523 18.9898 -4.5
      vertex 39.2365 18.9082 -4.5
    endloop
  endfacet
  facet normal -0.677283 -0.735722 0
    outer loop
      vertex 40.1408 18.5115 -4.5
      vertex 40.8674 17.8426 0.5
      vertex 40.1408 18.5115 0.5
    endloop
  endfacet
  facet normal -0.677283 -0.735722 -0
    outer loop
      vertex 40.8674 17.8426 0.5
      vertex 40.1408 18.5115 -4.5
      vertex 40.8674 17.8426 -4.5
    endloop
  endfacet
  facet normal 0.245487 -0.9694 0
    outer loop
      vertex 20.2949 18.7473 -4.5
      vertex 21.2523 18.9898 0.5
      vertex 20.2949 18.7473 0.5
    endloop
  endfacet
  facet normal 0.245486 -0.9694 3.69797e-07
    outer loop
      vertex 21.2523 18.9898 0.5
      vertex 20.2949 18.7473 -4.5
      vertex 21.2523 18.9898 -4.5
    endloop
  endfacet
  facet normal 0.546946 -0.837168 3.19354e-07
    outer loop
      vertex 19.4682 18.2072 -4.5
      vertex 20.2949 18.7473 0.5
      vertex 19.4682 18.2072 0.5
    endloop
  endfacet
  facet normal 0.546947 -0.837167 0
    outer loop
      vertex 20.2949 18.7473 0.5
      vertex 19.4682 18.2072 -4.5
      vertex 20.2949 18.7473 -4.5
    endloop
  endfacet
  facet normal -0.879473 -0.475949 0
    outer loop
      vertex 41.3375 16.9741 -4.5
      vertex 40.8674 17.8426 0.5
      vertex 40.8674 17.8426 -4.5
    endloop
  endfacet
  facet normal -0.879473 -0.475949 0
    outer loop
      vertex 40.8674 17.8426 0.5
      vertex 41.3375 16.9741 -4.5
      vertex 41.3375 16.9741 0.5
    endloop
  endfacet
  facet normal -0.0825791 0.996585 0
    outer loop
      vertex 39.2365 -18.9082 -4.5
      vertex 38.2523 -18.9898 0.5
      vertex 39.2365 -18.9082 0.5
    endloop
  endfacet
  facet normal -0.082581 0.996584 -3.80167e-07
    outer loop
      vertex 38.2523 -18.9898 0.5
      vertex 39.2365 -18.9082 -4.5
      vertex 38.2523 -18.9898 -4.5
    endloop
  endfacet
  facet normal -0.879473 0.475949 0
    outer loop
      vertex 40.8674 -17.8426 -4.5
      vertex 41.3375 -16.9741 0.5
      vertex 41.3375 -16.9741 -4.5
    endloop
  endfacet
  facet normal -0.879473 0.475949 0
    outer loop
      vertex 41.3375 -16.9741 0.5
      vertex 40.8674 -17.8426 -4.5
      vertex 40.8674 -17.8426 0.5
    endloop
  endfacet
  facet normal 0.789142 -0.614211 2.34303e-07
    outer loop
      vertex 18.8616 17.4278 0.5
      vertex 19.4682 18.2072 -4.5
      vertex 19.4682 18.2072 0.5
    endloop
  endfacet
  facet normal 0.789141 -0.614212 0
    outer loop
      vertex 19.4682 18.2072 -4.5
      vertex 18.8616 17.4278 0.5
      vertex 18.8616 17.4278 -4.5
    endloop
  endfacet
  facet normal -0.986361 -0.164594 0
    outer loop
      vertex 41.5 16 -4.5
      vertex 41.3375 16.9741 0.5
      vertex 41.3375 16.9741 -4.5
    endloop
  endfacet
  facet normal -0.986361 -0.164594 0
    outer loop
      vertex 41.3375 16.9741 0.5
      vertex 41.5 16 -4.5
      vertex 41.5 16 0.5
    endloop
  endfacet
  facet normal -0.401694 0.915774 0
    outer loop
      vertex 40.1408 -18.5115 -4.5
      vertex 39.2365 -18.9082 0.5
      vertex 40.1408 -18.5115 0.5
    endloop
  endfacet
  facet normal -0.401694 0.915774 0
    outer loop
      vertex 39.2365 -18.9082 0.5
      vertex 40.1408 -18.5115 -4.5
      vertex 39.2365 -18.9082 -4.5
    endloop
  endfacet
  facet normal -0.677283 0.735722 0
    outer loop
      vertex 40.8674 -17.8426 -4.5
      vertex 40.1408 -18.5115 0.5
      vertex 40.8674 -17.8426 0.5
    endloop
  endfacet
  facet normal -0.677283 0.735722 0
    outer loop
      vertex 40.1408 -18.5115 0.5
      vertex 40.8674 -17.8426 -4.5
      vertex 40.1408 -18.5115 -4.5
    endloop
  endfacet
  facet normal -1 0 0
    outer loop
      vertex 17.0409 -17.9938 -6
      vertex 17.0409 17.9938 -0.5
      vertex 17.0409 17.9938 -6
    endloop
  endfacet
  facet normal -1 -0 0
    outer loop
      vertex 17.0409 17.9938 -0.5
      vertex 17.0409 -17.9938 -6
      vertex 17.0409 -17.9938 -0.5
    endloop
  endfacet
  facet normal -0.245486 0.9694 0
    outer loop
      vertex 19.7523 20.4898 -6
      vertex 18.7949 20.2473 -0.5
      vertex 19.7523 20.4898 -0.5
    endloop
  endfacet
  facet normal -0.245486 0.9694 0
    outer loop
      vertex 18.7949 20.2473 -0.5
      vertex 19.7523 20.4898 -6
      vertex 18.7949 20.2473 -6
    endloop
  endfacet
  facet normal 0 0 -1
    outer loop
      vertex 37.75 -7.34788e-16 -6
      vertex 26.75 8 -6
      vertex 33.25 8 -6
    endloop
  endfacet
  facet normal 0 0 -1
    outer loop
      vertex 17.0409 17.9938 -6
      vertex 26.75 8 -6
      vertex 22.25 -7.34788e-16 -6
    endloop
  endfacet
  facet normal 0 0 -1
    outer loop
      vertex 22.25 -7.34788e-16 -6
      vertex 26.75 8 -6
      vertex 37.75 -7.34788e-16 -6
    endloop
  endfacet
  facet normal 0 0 -1
    outer loop
      vertex 39.7523 -20.4898 -6
      vertex 43 -17.5 -6
      vertex 42.8375 -18.4741 -6
    endloop
  endfacet
  facet normal 0 0 -1
    outer loop
      vertex 43 -17.5 -6
      vertex 37.75 -7.34788e-16 -6
      vertex 43 17.5 -6
    endloop
  endfacet
  facet normal 0 0 -1
    outer loop
      vertex 39.7523 -20.4898 -6
      vertex 42.8375 -18.4741 -6
      vertex 42.3674 -19.3426 -6
    endloop
  endfacet
  facet normal 0 0 -1
    outer loop
      vertex 33.25 8 -6
      vertex 43 17.5 -6
      vertex 37.75 -7.34788e-16 -6
    endloop
  endfacet
  facet normal 0 0 -1
    outer loop
      vertex 39.7523 -20.4898 -6
      vertex 42.3674 -19.3426 -6
      vertex 41.6408 -20.0115 -6
    endloop
  endfacet
  facet normal 0 0 -1
    outer loop
      vertex 33.25 14.5 -6
      vertex 43 17.5 -6
      vertex 33.25 8 -6
    endloop
  endfacet
  facet normal 0 0 -1
    outer loop
      vertex 39.7523 -20.4898 -6
      vertex 41.6408 -20.0115 -6
      vertex 40.7365 -20.4082 -6
    endloop
  endfacet
  facet normal 0 -0 -1
    outer loop
      vertex 39.7523 20.4898 -6
      vertex 43 17.5 -6
      vertex 33.25 14.5 -6
    endloop
  endfacet
  facet normal -0 0 -1
    outer loop
      vertex 43 -17.5 -6
      vertex 39.7523 -20.4898 -6
      vertex 37.75 -14.5 -6
    endloop
  endfacet
  facet normal 0 0 -1
    outer loop
      vertex 43 17.5 -6
      vertex 39.7523 20.4898 -6
      vertex 42.8375 18.4741 -6
    endloop
  endfacet
  facet normal 0 0 -1
    outer loop
      vertex 43 -17.5 -6
      vertex 37.75 -14.5 -6
      vertex 37.75 -7.34788e-16 -6
    endloop
  endfacet
  facet normal 0 0 -1
    outer loop
      vertex 39.7523 -20.4898 -6
      vertex 22.25 -14.5 -6
      vertex 37.75 -14.5 -6
    endloop
  endfacet
  facet normal 0 0 -1
    outer loop
      vertex 17.0409 -17.9938 -6
      vertex 22.25 -14.5 -6
      vertex 19.7523 -20.4898 -6
    endloop
  endfacet
  facet normal 0 0 -1
    outer loop
      vertex 19.7523 -20.4898 -6
      vertex 22.25 -14.5 -6
      vertex 39.7523 -20.4898 -6
    endloop
  endfacet
  facet normal 0 0 -1
    outer loop
      vertex 42.8375 18.4741 -6
      vertex 39.7523 20.4898 -6
      vertex 42.3674 19.3426 -6
    endloop
  endfacet
  facet normal 0 0 -1
    outer loop
      vertex 42.3674 19.3426 -6
      vertex 39.7523 20.4898 -6
      vertex 41.6408 20.0115 -6
    endloop
  endfacet
  facet normal 0 0 -1
    outer loop
      vertex 41.6408 20.0115 -6
      vertex 39.7523 20.4898 -6
      vertex 40.7365 20.4082 -6
    endloop
  endfacet
  facet normal 0 0 -1
    outer loop
      vertex 26.75 14.5 -6
      vertex 39.7523 20.4898 -6
      vertex 33.25 14.5 -6
    endloop
  endfacet
  facet normal 0 0 -1
    outer loop
      vertex 26.75 14.5 -6
      vertex 19.7523 20.4898 -6
      vertex 39.7523 20.4898 -6
    endloop
  endfacet
  facet normal 0 0 -1
    outer loop
      vertex 26.75 8 -6
      vertex 17.0409 17.9938 -6
      vertex 26.75 14.5 -6
    endloop
  endfacet
  facet normal -0 0 -1
    outer loop
      vertex 22.25 -14.5 -6
      vertex 17.0409 -17.9938 -6
      vertex 22.25 -7.34788e-16 -6
    endloop
  endfacet
  facet normal 0 0 -1
    outer loop
      vertex 17.0409 -17.9938 -6
      vertex 19.7523 -20.4898 -6
      vertex 18.7949 -20.2473 -6
    endloop
  endfacet
  facet normal 0 0 -1
    outer loop
      vertex 17.0409 17.9938 -6
      vertex 22.25 -7.34788e-16 -6
      vertex 17.0409 -17.9938 -6
    endloop
  endfacet
  facet normal 0 0 -1
    outer loop
      vertex 17.0409 -17.9938 -6
      vertex 18.7949 -20.2473 -6
      vertex 17.9682 -19.7072 -6
    endloop
  endfacet
  facet normal 0 0 -1
    outer loop
      vertex 26.75 14.5 -6
      vertex 17.0409 17.9938 -6
      vertex 19.7523 20.4898 -6
    endloop
  endfacet
  facet normal 0 0 -1
    outer loop
      vertex 17.0409 -17.9938 -6
      vertex 17.9682 -19.7072 -6
      vertex 17.3616 -18.9278 -6
    endloop
  endfacet
  facet normal 0 0 -1
    outer loop
      vertex 19.7523 20.4898 -6
      vertex 17.0409 17.9938 -6
      vertex 18.7949 20.2473 -6
    endloop
  endfacet
  facet normal 0 0 -1
    outer loop
      vertex 18.7949 20.2473 -6
      vertex 17.0409 17.9938 -6
      vertex 17.9682 19.7072 -6
    endloop
  endfacet
  facet normal 0 0 -1
    outer loop
      vertex 17.9682 19.7072 -6
      vertex 17.0409 17.9938 -6
      vertex 17.3616 18.9278 -6
    endloop
  endfacet
  facet normal -0.945817 -0.3247 0
    outer loop
      vertex 17.3616 -18.9278 -6
      vertex 17.0409 -17.9938 -0.5
      vertex 17.0409 -17.9938 -6
    endloop
  endfacet
  facet normal -0.945817 -0.3247 0
    outer loop
      vertex 17.0409 -17.9938 -0.5
      vertex 17.3616 -18.9278 -6
      vertex 17.3616 -18.9278 -0.5
    endloop
  endfacet
  facet normal 1 -0 0
    outer loop
      vertex 43 -17.5 -0.5
      vertex 43 17.5 -6
      vertex 43 17.5 -0.5
    endloop
  endfacet
  facet normal 1 0 0
    outer loop
      vertex 43 17.5 -6
      vertex 43 -17.5 -0.5
      vertex 43 -17.5 -6
    endloop
  endfacet
  facet normal 0 1 -0
    outer loop
      vertex 39.7523 20.4898 -6
      vertex 19.7523 20.4898 -0.5
      vertex 39.7523 20.4898 -0.5
    endloop
  endfacet
  facet normal 0 1 0
    outer loop
      vertex 19.7523 20.4898 -0.5
      vertex 39.7523 20.4898 -6
      vertex 19.7523 20.4898 -6
    endloop
  endfacet
  facet normal -0.546946 -0.837168 0
    outer loop
      vertex 17.9682 -19.7072 -6
      vertex 18.7949 -20.2473 -0.5
      vertex 17.9682 -19.7072 -0.5
    endloop
  endfacet
  facet normal -0.546946 -0.837168 -0
    outer loop
      vertex 18.7949 -20.2473 -0.5
      vertex 17.9682 -19.7072 -6
      vertex 18.7949 -20.2473 -6
    endloop
  endfacet
  facet normal -0.245487 -0.9694 0
    outer loop
      vertex 18.7949 -20.2473 -6
      vertex 19.7523 -20.4898 -0.5
      vertex 18.7949 -20.2473 -0.5
    endloop
  endfacet
  facet normal -0.245487 -0.9694 -0
    outer loop
      vertex 19.7523 -20.4898 -0.5
      vertex 18.7949 -20.2473 -6
      vertex 19.7523 -20.4898 -6
    endloop
  endfacet
  facet normal -0.789142 -0.614211 0
    outer loop
      vertex 17.9682 -19.7072 -6
      vertex 17.3616 -18.9278 -0.5
      vertex 17.3616 -18.9278 -6
    endloop
  endfacet
  facet normal -0.789142 -0.614211 0
    outer loop
      vertex 17.3616 -18.9278 -0.5
      vertex 17.9682 -19.7072 -6
      vertex 17.9682 -19.7072 -0.5
    endloop
  endfacet
  facet normal 0 -1 0
    outer loop
      vertex 19.7523 -20.4898 -6
      vertex 39.7523 -20.4898 -0.5
      vertex 19.7523 -20.4898 -0.5
    endloop
  endfacet
  facet normal 0 -1 -0
    outer loop
      vertex 39.7523 -20.4898 -0.5
      vertex 19.7523 -20.4898 -6
      vertex 39.7523 -20.4898 -6
    endloop
  endfacet
  facet normal -0.546947 0.837167 0
    outer loop
      vertex 18.7949 20.2473 -6
      vertex 17.9682 19.7072 -0.5
      vertex 18.7949 20.2473 -0.5
    endloop
  endfacet
  facet normal -0.546947 0.837167 0
    outer loop
      vertex 17.9682 19.7072 -0.5
      vertex 18.7949 20.2473 -6
      vertex 17.9682 19.7072 -6
    endloop
  endfacet
  facet normal -0.945817 0.3247 0
    outer loop
      vertex 17.0409 17.9938 -6
      vertex 17.3616 18.9278 -0.5
      vertex 17.3616 18.9278 -6
    endloop
  endfacet
  facet normal -0.945817 0.3247 0
    outer loop
      vertex 17.3616 18.9278 -0.5
      vertex 17.0409 17.9938 -6
      vertex 17.0409 17.9938 -0.5
    endloop
  endfacet
  facet normal 0.0825791 0.996585 -0
    outer loop
      vertex 40.7365 20.4082 -6
      vertex 39.7523 20.4898 -0.5
      vertex 40.7365 20.4082 -0.5
    endloop
  endfacet
  facet normal 0.0825791 0.996585 0
    outer loop
      vertex 39.7523 20.4898 -0.5
      vertex 40.7365 20.4082 -6
      vertex 39.7523 20.4898 -6
    endloop
  endfacet
  facet normal 0.677283 -0.735722 0
    outer loop
      vertex 41.6408 -20.0115 -6
      vertex 42.3674 -19.3426 -0.5
      vertex 41.6408 -20.0115 -0.5
    endloop
  endfacet
  facet normal 0.677283 -0.735722 0
    outer loop
      vertex 42.3674 -19.3426 -0.5
      vertex 41.6408 -20.0115 -6
      vertex 42.3674 -19.3426 -6
    endloop
  endfacet
  facet normal -0.789141 0.614212 0
    outer loop
      vertex 17.3616 18.9278 -6
      vertex 17.9682 19.7072 -0.5
      vertex 17.9682 19.7072 -6
    endloop
  endfacet
  facet normal -0.789141 0.614212 0
    outer loop
      vertex 17.9682 19.7072 -0.5
      vertex 17.3616 18.9278 -6
      vertex 17.3616 18.9278 -0.5
    endloop
  endfacet
  facet normal 0.401694 0.915774 -0
    outer loop
      vertex 41.6408 20.0115 -6
      vertex 40.7365 20.4082 -0.5
      vertex 41.6408 20.0115 -0.5
    endloop
  endfacet
  facet normal 0.401694 0.915774 0
    outer loop
      vertex 40.7365 20.4082 -0.5
      vertex 41.6408 20.0115 -6
      vertex 40.7365 20.4082 -6
    endloop
  endfacet
  facet normal 0.401694 -0.915774 0
    outer loop
      vertex 40.7365 -20.4082 -6
      vertex 41.6408 -20.0115 -0.5
      vertex 40.7365 -20.4082 -0.5
    endloop
  endfacet
  facet normal 0.401694 -0.915774 0
    outer loop
      vertex 41.6408 -20.0115 -0.5
      vertex 40.7365 -20.4082 -6
      vertex 41.6408 -20.0115 -6
    endloop
  endfacet
  facet normal 0.677283 0.735722 -0
    outer loop
      vertex 42.3674 19.3426 -6
      vertex 41.6408 20.0115 -0.5
      vertex 42.3674 19.3426 -0.5
    endloop
  endfacet
  facet normal 0.677283 0.735722 0
    outer loop
      vertex 41.6408 20.0115 -0.5
      vertex 42.3674 19.3426 -6
      vertex 41.6408 20.0115 -6
    endloop
  endfacet
  facet normal 0.879473 0.475949 0
    outer loop
      vertex 42.8375 18.4741 -0.5
      vertex 42.3674 19.3426 -6
      vertex 42.3674 19.3426 -0.5
    endloop
  endfacet
  facet normal 0.879473 0.475949 0
    outer loop
      vertex 42.3674 19.3426 -6
      vertex 42.8375 18.4741 -0.5
      vertex 42.8375 18.4741 -6
    endloop
  endfacet
  facet normal 0.082581 -0.996584 0
    outer loop
      vertex 39.7523 -20.4898 -6
      vertex 40.7365 -20.4082 -0.5
      vertex 39.7523 -20.4898 -0.5
    endloop
  endfacet
  facet normal 0.082581 -0.996584 0
    outer loop
      vertex 40.7365 -20.4082 -0.5
      vertex 39.7523 -20.4898 -6
      vertex 40.7365 -20.4082 -6
    endloop
  endfacet
  facet normal 0.879473 -0.475949 0
    outer loop
      vertex 42.3674 -19.3426 -0.5
      vertex 42.8375 -18.4741 -6
      vertex 42.8375 -18.4741 -0.5
    endloop
  endfacet
  facet normal 0.879473 -0.475949 0
    outer loop
      vertex 42.8375 -18.4741 -6
      vertex 42.3674 -19.3426 -0.5
      vertex 42.3674 -19.3426 -6
    endloop
  endfacet
  facet normal 0.986361 -0.164594 0
    outer loop
      vertex 42.8375 -18.4741 -0.5
      vertex 43 -17.5 -6
      vertex 43 -17.5 -0.5
    endloop
  endfacet
  facet normal 0.986361 -0.164594 0
    outer loop
      vertex 43 -17.5 -6
      vertex 42.8375 -18.4741 -0.5
      vertex 42.8375 -18.4741 -6
    endloop
  endfacet
  facet normal 0.986361 0.164594 0
    outer loop
      vertex 43 17.5 -0.5
      vertex 42.8375 18.4741 -6
      vertex 42.8375 18.4741 -0.5
    endloop
  endfacet
  facet normal 0.986361 0.164594 0
    outer loop
      vertex 42.8375 18.4741 -6
      vertex 43 17.5 -0.5
      vertex 43 17.5 -6
    endloop
  endfacet
  facet normal 1 -0 0
    outer loop
      vertex 22.25 -14.5 -4.5
      vertex 22.25 -7.34788e-16 -6
      vertex 22.25 -5.51091e-16 -4.5
    endloop
  endfacet
  facet normal 1 0 0
    outer loop
      vertex 22.25 -7.34788e-16 -6
      vertex 22.25 -14.5 -4.5
      vertex 22.25 -14.5 -6
    endloop
  endfacet
  facet normal -1 0 0
    outer loop
      vertex 37.75 -14.5 -6
      vertex 37.75 -5.51091e-16 -4.5
      vertex 37.75 -7.34788e-16 -6
    endloop
  endfacet
  facet normal -1 -0 0
    outer loop
      vertex 37.75 -5.51091e-16 -4.5
      vertex 37.75 -14.5 -6
      vertex 37.75 -14.5 -4.5
    endloop
  endfacet
  facet normal 0 1 -0
    outer loop
      vertex 37.75 -14.5 -6
      vertex 22.25 -14.5 -4.5
      vertex 37.75 -14.5 -4.5
    endloop
  endfacet
  facet normal 0 1 0
    outer loop
      vertex 22.25 -14.5 -4.5
      vertex 37.75 -14.5 -6
      vertex 22.25 -14.5 -6
    endloop
  endfacet
  facet normal 0 -1 1.22465e-16
    outer loop
      vertex 22.25 -7.34788e-16 -6
      vertex 37.75 -5.51091e-16 -4.5
      vertex 22.25 -5.51091e-16 -4.5
    endloop
  endfacet
  facet normal 0 -1 1.22465e-16
    outer loop
      vertex 37.75 -5.51091e-16 -4.5
      vertex 22.25 -7.34788e-16 -6
      vertex 37.75 -7.34788e-16 -6
    endloop
  endfacet
  facet normal 1 -0 0
    outer loop
      vertex 26.75 8 -4.5
      vertex 26.75 14.5 -6
      vertex 26.75 14.5 -4.5
    endloop
  endfacet
  facet normal 1 0 0
    outer loop
      vertex 26.75 14.5 -6
      vertex 26.75 8 -4.5
      vertex 26.75 8 -6
    endloop
  endfacet
  facet normal -1 0 0
    outer loop
      vertex 33.25 8 -6
      vertex 33.25 14.5 -4.5
      vertex 33.25 14.5 -6
    endloop
  endfacet
  facet normal -1 -0 0
    outer loop
      vertex 33.25 14.5 -4.5
      vertex 33.25 8 -6
      vertex 33.25 8 -4.5
    endloop
  endfacet
  facet normal 0 1 -0
    outer loop
      vertex 33.25 8 -6
      vertex 26.75 8 -4.5
      vertex 33.25 8 -4.5
    endloop
  endfacet
  facet normal 0 1 0
    outer loop
      vertex 26.75 8 -4.5
      vertex 33.25 8 -6
      vertex 26.75 8 -6
    endloop
  endfacet
  facet normal 0 -1 0
    outer loop
      vertex 26.75 14.5 -6
      vertex 33.25 14.5 -4.5
      vertex 26.75 14.5 -4.5
    endloop
  endfacet
  facet normal 0 -1 -0
    outer loop
      vertex 33.25 14.5 -4.5
      vertex 26.75 14.5 -6
      vertex 33.25 14.5 -6
    endloop
  endfacet
  facet normal 0 0 1
    outer loop
      vertex 41.8375 17.4741 -0.5
      vertex 43 17.5 -0.5
      vertex 42.8375 18.4741 -0.5
    endloop
  endfacet
  facet normal 0 0 1
    outer loop
      vertex 43 17.5 -0.5
      vertex 42 16.5 -0.5
      vertex 43 -17.5 -0.5
    endloop
  endfacet
  facet normal 0 0 1
    outer loop
      vertex 41.3674 18.3426 -0.5
      vertex 42.8375 18.4741 -0.5
      vertex 42.3674 19.3426 -0.5
    endloop
  endfacet
  facet normal -0 0 1
    outer loop
      vertex 42 -16.5 -0.5
      vertex 43 -17.5 -0.5
      vertex 42 16.5 -0.5
    endloop
  endfacet
  facet normal -0 0 1
    outer loop
      vertex 41.8375 -17.4741 -0.5
      vertex 43 -17.5 -0.5
      vertex 42 -16.5 -0.5
    endloop
  endfacet
  facet normal 0 0 1
    outer loop
      vertex 43 17.5 -0.5
      vertex 41.8375 17.4741 -0.5
      vertex 42 16.5 -0.5
    endloop
  endfacet
  facet normal 0 0 1
    outer loop
      vertex 41.3674 18.3426 -0.5
      vertex 42.3674 19.3426 -0.5
      vertex 41.6408 20.0115 -0.5
    endloop
  endfacet
  facet normal 0 0 1
    outer loop
      vertex 42.8375 18.4741 -0.5
      vertex 41.3674 18.3426 -0.5
      vertex 41.8375 17.4741 -0.5
    endloop
  endfacet
  facet normal 0 0 1
    outer loop
      vertex 40.6408 19.0115 -0.5
      vertex 41.6408 20.0115 -0.5
      vertex 40.7365 20.4082 -0.5
    endloop
  endfacet
  facet normal 0 0 1
    outer loop
      vertex 41.6408 20.0115 -0.5
      vertex 40.6408 19.0115 -0.5
      vertex 41.3674 18.3426 -0.5
    endloop
  endfacet
  facet normal 0 0 1
    outer loop
      vertex 39.7365 19.4082 -0.5
      vertex 40.7365 20.4082 -0.5
      vertex 39.7523 20.4898 -0.5
    endloop
  endfacet
  facet normal 0 0 1
    outer loop
      vertex 40.7365 20.4082 -0.5
      vertex 39.7365 19.4082 -0.5
      vertex 40.6408 19.0115 -0.5
    endloop
  endfacet
  facet normal 0 0 1
    outer loop
      vertex 39.7523 20.4898 -0.5
      vertex 38.7523 19.4898 -0.5
      vertex 39.7365 19.4082 -0.5
    endloop
  endfacet
  facet normal 0 0 1
    outer loop
      vertex 39.7523 20.4898 -0.5
      vertex 20.7523 19.4898 -0.5
      vertex 38.7523 19.4898 -0.5
    endloop
  endfacet
  facet normal -0 0 1
    outer loop
      vertex 19.7523 20.4898 -0.5
      vertex 20.7523 19.4898 -0.5
      vertex 39.7523 20.4898 -0.5
    endloop
  endfacet
  facet normal 0 0 1
    outer loop
      vertex 19.7523 20.4898 -0.5
      vertex 19.7949 19.2473 -0.5
      vertex 20.7523 19.4898 -0.5
    endloop
  endfacet
  facet normal -0 0 1
    outer loop
      vertex 18.7949 20.2473 -0.5
      vertex 19.7949 19.2473 -0.5
      vertex 19.7523 20.4898 -0.5
    endloop
  endfacet
  facet normal 0 0 1
    outer loop
      vertex 19.7949 19.2473 -0.5
      vertex 18.7949 20.2473 -0.5
      vertex 18.9682 18.7072 -0.5
    endloop
  endfacet
  facet normal -0 0 1
    outer loop
      vertex 17.9682 19.7072 -0.5
      vertex 18.9682 18.7072 -0.5
      vertex 18.7949 20.2473 -0.5
    endloop
  endfacet
  facet normal -0 0 1
    outer loop
      vertex 17.3616 18.9278 -0.5
      vertex 18.9682 18.7072 -0.5
      vertex 17.9682 19.7072 -0.5
    endloop
  endfacet
  facet normal -0 0 1
    outer loop
      vertex 17.0409 17.9938 -0.5
      vertex 18.3616 17.9278 -0.5
      vertex 17.3616 18.9278 -0.5
    endloop
  endfacet
  facet normal 0 0 1
    outer loop
      vertex 18.9682 18.7072 -0.5
      vertex 17.3616 18.9278 -0.5
      vertex 18.3616 17.9278 -0.5
    endloop
  endfacet
  facet normal 0 0 1
    outer loop
      vertex 43 -17.5 -0.5
      vertex 41.8375 -17.4741 -0.5
      vertex 42.8375 -18.4741 -0.5
    endloop
  endfacet
  facet normal -0 0 1
    outer loop
      vertex 41.3674 -18.3426 -0.5
      vertex 42.8375 -18.4741 -0.5
      vertex 41.8375 -17.4741 -0.5
    endloop
  endfacet
  facet normal 0 0 1
    outer loop
      vertex 42.8375 -18.4741 -0.5
      vertex 41.3674 -18.3426 -0.5
      vertex 42.3674 -19.3426 -0.5
    endloop
  endfacet
  facet normal 0 0 1
    outer loop
      vertex 42.3674 -19.3426 -0.5
      vertex 41.3674 -18.3426 -0.5
      vertex 41.6408 -20.0115 -0.5
    endloop
  endfacet
  facet normal -0 0 1
    outer loop
      vertex 40.6408 -19.0115 -0.5
      vertex 41.6408 -20.0115 -0.5
      vertex 41.3674 -18.3426 -0.5
    endloop
  endfacet
  facet normal 0 0 1
    outer loop
      vertex 41.6408 -20.0115 -0.5
      vertex 40.6408 -19.0115 -0.5
      vertex 40.7365 -20.4082 -0.5
    endloop
  endfacet
  facet normal -0 0 1
    outer loop
      vertex 39.7365 -19.4082 -0.5
      vertex 40.7365 -20.4082 -0.5
      vertex 40.6408 -19.0115 -0.5
    endloop
  endfacet
  facet normal 0 0 1
    outer loop
      vertex 40.7365 -20.4082 -0.5
      vertex 39.7365 -19.4082 -0.5
      vertex 39.7523 -20.4898 -0.5
    endloop
  endfacet
  facet normal -0 0 1
    outer loop
      vertex 38.7523 -19.4898 -0.5
      vertex 39.7523 -20.4898 -0.5
      vertex 39.7365 -19.4082 -0.5
    endloop
  endfacet
  facet normal -0 0 1
    outer loop
      vertex 20.7523 -19.4898 -0.5
      vertex 39.7523 -20.4898 -0.5
      vertex 38.7523 -19.4898 -0.5
    endloop
  endfacet
  facet normal 0 0 1
    outer loop
      vertex 20.7523 -19.4898 -0.5
      vertex 19.7523 -20.4898 -0.5
      vertex 39.7523 -20.4898 -0.5
    endloop
  endfacet
  facet normal 0 0 1
    outer loop
      vertex 19.7949 -19.2473 -0.5
      vertex 19.7523 -20.4898 -0.5
      vertex 20.7523 -19.4898 -0.5
    endloop
  endfacet
  facet normal 0 0 1
    outer loop
      vertex 18.7949 -20.2473 -0.5
      vertex 19.7949 -19.2473 -0.5
      vertex 18.9682 -18.7072 -0.5
    endloop
  endfacet
  facet normal 0 0 1
    outer loop
      vertex 19.7949 -19.2473 -0.5
      vertex 18.7949 -20.2473 -0.5
      vertex 19.7523 -20.4898 -0.5
    endloop
  endfacet
  facet normal 0 0 1
    outer loop
      vertex 17.3616 -18.9278 -0.5
      vertex 18.9682 -18.7072 -0.5
      vertex 18.3616 -17.9278 -0.5
    endloop
  endfacet
  facet normal 0 0 1
    outer loop
      vertex 17.0409 -17.9938 -0.5
      vertex 18.3616 -17.9278 -0.5
      vertex 18.0409 -16.9938 -0.5
    endloop
  endfacet
  facet normal 0 0 1
    outer loop
      vertex 18.9682 -18.7072 -0.5
      vertex 17.9682 -19.7072 -0.5
      vertex 18.7949 -20.2473 -0.5
    endloop
  endfacet
  facet normal 0 0 1
    outer loop
      vertex 18.0409 16.9938 -0.5
      vertex 17.0409 17.9938 -0.5
      vertex 18.0409 -16.9938 -0.5
    endloop
  endfacet
  facet normal 0 0 1
    outer loop
      vertex 18.3616 17.9278 -0.5
      vertex 17.0409 17.9938 -0.5
      vertex 18.0409 16.9938 -0.5
    endloop
  endfacet
  facet normal 0 0 1
    outer loop
      vertex 17.0409 -17.9938 -0.5
      vertex 18.0409 -16.9938 -0.5
      vertex 17.0409 17.9938 -0.5
    endloop
  endfacet
  facet normal 0 0 1
    outer loop
      vertex 18.3616 -17.9278 -0.5
      vertex 17.0409 -17.9938 -0.5
      vertex 17.3616 -18.9278 -0.5
    endloop
  endfacet
  facet normal 0 0 1
    outer loop
      vertex 18.9682 -18.7072 -0.5
      vertex 17.3616 -18.9278 -0.5
      vertex 17.9682 -19.7072 -0.5
    endloop
  endfacet
  facet normal 0 -1 1.90735e-06
    outer loop
      vertex 20.7523 -19.4898 -0.5
      vertex 38.7523 -19.4898 0.5
      vertex 20.7523 -19.4898 0.5
    endloop
  endfacet
  facet normal 0 -1 1.90735e-06
    outer loop
      vertex 38.7523 -19.4898 0.5
      vertex 20.7523 -19.4898 -0.5
      vertex 38.7523 -19.4898 -0.5
    endloop
  endfacet
  facet normal 0 1 -1.90735e-06
    outer loop
      vertex 38.7523 19.4898 -0.5
      vertex 20.7523 19.4898 0.5
      vertex 38.7523 19.4898 0.5
    endloop
  endfacet
  facet normal 0 1 -1.90735e-06
    outer loop
      vertex 20.7523 19.4898 0.5
      vertex 38.7523 19.4898 -0.5
      vertex 20.7523 19.4898 -0.5
    endloop
  endfacet
  facet normal -1 0 0
    outer loop
      vertex 18.0409 -16.9938 -0.5
      vertex 18.0409 16.9938 0.5
      vertex 18.0409 16.9938 -0.5
    endloop
  endfacet
  facet normal -1 -0 0
    outer loop
      vertex 18.0409 16.9938 0.5
      vertex 18.0409 -16.9938 -0.5
      vertex 18.0409 -16.9938 0.5
    endloop
  endfacet
  facet normal -0.945817 0.3247 0
    outer loop
      vertex 18.0409 16.9938 -0.5
      vertex 18.3616 17.9278 0.5
      vertex 18.3616 17.9278 -0.5
    endloop
  endfacet
  facet normal -0.945817 0.3247 0
    outer loop
      vertex 18.3616 17.9278 0.5
      vertex 18.0409 16.9938 -0.5
      vertex 18.0409 16.9938 0.5
    endloop
  endfacet
  facet normal -0.245486 -0.9694 0
    outer loop
      vertex 19.7949 -19.2473 -0.5
      vertex 20.7523 -19.4898 0.5
      vertex 19.7949 -19.2473 0.5
    endloop
  endfacet
  facet normal -0.245487 -0.9694 1.84898e-06
    outer loop
      vertex 20.7523 -19.4898 0.5
      vertex 19.7949 -19.2473 -0.5
      vertex 20.7523 -19.4898 -0.5
    endloop
  endfacet
  facet normal 0.986361 -0.164594 0
    outer loop
      vertex 41.8375 -17.4741 0.5
      vertex 42 -16.5 -0.5
      vertex 42 -16.5 0.5
    endloop
  endfacet
  facet normal 0.986361 -0.164594 0
    outer loop
      vertex 42 -16.5 -0.5
      vertex 41.8375 -17.4741 0.5
      vertex 41.8375 -17.4741 -0.5
    endloop
  endfacet
  facet normal 1 -0 0
    outer loop
      vertex 42 -16.5 0.5
      vertex 42 16.5 -0.5
      vertex 42 16.5 0.5
    endloop
  endfacet
  facet normal 1 0 0
    outer loop
      vertex 42 16.5 -0.5
      vertex 42 -16.5 0.5
      vertex 42 -16.5 -0.5
    endloop
  endfacet
  facet normal -0.945817 -0.3247 0
    outer loop
      vertex 18.3616 -17.9278 -0.5
      vertex 18.0409 -16.9938 0.5
      vertex 18.0409 -16.9938 -0.5
    endloop
  endfacet
  facet normal -0.945817 -0.3247 0
    outer loop
      vertex 18.0409 -16.9938 0.5
      vertex 18.3616 -17.9278 -0.5
      vertex 18.3616 -17.9278 0.5
    endloop
  endfacet
  facet normal -0.546947 -0.837167 1.59677e-06
    outer loop
      vertex 18.9682 -18.7072 -0.5
      vertex 19.7949 -19.2473 0.5
      vertex 18.9682 -18.7072 0.5
    endloop
  endfacet
  facet normal -0.546946 -0.837168 -0
    outer loop
      vertex 19.7949 -19.2473 0.5
      vertex 18.9682 -18.7072 -0.5
      vertex 19.7949 -19.2473 -0.5
    endloop
  endfacet
  facet normal -0.789141 -0.614212 0
    outer loop
      vertex 18.3616 -17.9278 -0.5
      vertex 18.9682 -18.7072 0.5
      vertex 18.3616 -17.9278 0.5
    endloop
  endfacet
  facet normal -0.789142 -0.614211 1.17151e-06
    outer loop
      vertex 18.9682 -18.7072 0.5
      vertex 18.3616 -17.9278 -0.5
      vertex 18.9682 -18.7072 -0.5
    endloop
  endfacet
  facet normal 0.401694 0.915774 -0
    outer loop
      vertex 40.6408 19.0115 -0.5
      vertex 39.7365 19.4082 0.5
      vertex 40.6408 19.0115 0.5
    endloop
  endfacet
  facet normal 0.401694 0.915774 0
    outer loop
      vertex 39.7365 19.4082 0.5
      vertex 40.6408 19.0115 -0.5
      vertex 39.7365 19.4082 -0.5
    endloop
  endfacet
  facet normal 0.082581 0.996584 -0
    outer loop
      vertex 39.7365 19.4082 -0.5
      vertex 38.7523 19.4898 0.5
      vertex 39.7365 19.4082 0.5
    endloop
  endfacet
  facet normal 0.0825791 0.996585 -1.90083e-06
    outer loop
      vertex 38.7523 19.4898 0.5
      vertex 39.7365 19.4082 -0.5
      vertex 38.7523 19.4898 -0.5
    endloop
  endfacet
  facet normal 0.677283 0.735722 -0
    outer loop
      vertex 41.3674 18.3426 -0.5
      vertex 40.6408 19.0115 0.5
      vertex 41.3674 18.3426 0.5
    endloop
  endfacet
  facet normal 0.677283 0.735722 0
    outer loop
      vertex 40.6408 19.0115 0.5
      vertex 41.3674 18.3426 -0.5
      vertex 40.6408 19.0115 -0.5
    endloop
  endfacet
  facet normal -0.245487 0.9694 -1.84898e-06
    outer loop
      vertex 20.7523 19.4898 -0.5
      vertex 19.7949 19.2473 0.5
      vertex 20.7523 19.4898 0.5
    endloop
  endfacet
  facet normal -0.245486 0.9694 0
    outer loop
      vertex 19.7949 19.2473 0.5
      vertex 20.7523 19.4898 -0.5
      vertex 19.7949 19.2473 -0.5
    endloop
  endfacet
  facet normal -0.546946 0.837168 0
    outer loop
      vertex 19.7949 19.2473 -0.5
      vertex 18.9682 18.7072 0.5
      vertex 19.7949 19.2473 0.5
    endloop
  endfacet
  facet normal -0.546947 0.837167 -1.59677e-06
    outer loop
      vertex 18.9682 18.7072 0.5
      vertex 19.7949 19.2473 -0.5
      vertex 18.9682 18.7072 -0.5
    endloop
  endfacet
  facet normal 0.879473 0.475949 0
    outer loop
      vertex 41.8375 17.4741 0.5
      vertex 41.3674 18.3426 -0.5
      vertex 41.3674 18.3426 0.5
    endloop
  endfacet
  facet normal 0.879473 0.475949 0
    outer loop
      vertex 41.3674 18.3426 -0.5
      vertex 41.8375 17.4741 0.5
      vertex 41.8375 17.4741 -0.5
    endloop
  endfacet
  facet normal 0.0825791 -0.996585 1.90083e-06
    outer loop
      vertex 38.7523 -19.4898 -0.5
      vertex 39.7365 -19.4082 0.5
      vertex 38.7523 -19.4898 0.5
    endloop
  endfacet
  facet normal 0.082581 -0.996584 0
    outer loop
      vertex 39.7365 -19.4082 0.5
      vertex 38.7523 -19.4898 -0.5
      vertex 39.7365 -19.4082 -0.5
    endloop
  endfacet
  facet normal 0.879473 -0.475949 0
    outer loop
      vertex 41.3674 -18.3426 0.5
      vertex 41.8375 -17.4741 -0.5
      vertex 41.8375 -17.4741 0.5
    endloop
  endfacet
  facet normal 0.879473 -0.475949 0
    outer loop
      vertex 41.8375 -17.4741 -0.5
      vertex 41.3674 -18.3426 0.5
      vertex 41.3674 -18.3426 -0.5
    endloop
  endfacet
  facet normal -0.789141 0.614212 -1.17152e-06
    outer loop
      vertex 18.3616 17.9278 -0.5
      vertex 18.9682 18.7072 0.5
      vertex 18.9682 18.7072 -0.5
    endloop
  endfacet
  facet normal -0.789142 0.614211 0
    outer loop
      vertex 18.9682 18.7072 0.5
      vertex 18.3616 17.9278 -0.5
      vertex 18.3616 17.9278 0.5
    endloop
  endfacet
  facet normal 0.986361 0.164594 0
    outer loop
      vertex 42 16.5 0.5
      vertex 41.8375 17.4741 -0.5
      vertex 41.8375 17.4741 0.5
    endloop
  endfacet
  facet normal 0.986361 0.164594 0
    outer loop
      vertex 41.8375 17.4741 -0.5
      vertex 42 16.5 0.5
      vertex 42 16.5 -0.5
    endloop
  endfacet
  facet normal 0.401694 -0.915774 0
    outer loop
      vertex 39.7365 -19.4082 -0.5
      vertex 40.6408 -19.0115 0.5
      vertex 39.7365 -19.4082 0.5
    endloop
  endfacet
  facet normal 0.401694 -0.915774 0
    outer loop
      vertex 40.6408 -19.0115 0.5
      vertex 39.7365 -19.4082 -0.5
      vertex 40.6408 -19.0115 -0.5
    endloop
  endfacet
  facet normal 0.677283 -0.735722 0
    outer loop
      vertex 40.6408 -19.0115 -0.5
      vertex 41.3674 -18.3426 0.5
      vertex 40.6408 -19.0115 0.5
    endloop
  endfacet
  facet normal 0.677283 -0.735722 0
    outer loop
      vertex 41.3674 -18.3426 0.5
      vertex 40.6408 -19.0115 -0.5
      vertex 41.3674 -18.3426 -0.5
    endloop
  endfacet
  facet normal -0 0 1
    outer loop
      vertex 41.3375 16.9741 0.5
      vertex 42 16.5 0.5
      vertex 41.8375 17.4741 0.5
    endloop
  endfacet
  facet normal 0 0 1
    outer loop
      vertex 42 16.5 0.5
      vertex 41.5 16 0.5
      vertex 42 -16.5 0.5
    endloop
  endfacet
  facet normal -0 0 1
    outer loop
      vertex 41.5 -16 0.5
      vertex 42 -16.5 0.5
      vertex 41.5 16 0.5
    endloop
  endfacet
  facet normal -0 0 1
    outer loop
      vertex 40.8674 17.8426 0.5
      vertex 41.8375 17.4741 0.5
      vertex 41.3674 18.3426 0.5
    endloop
  endfacet
  facet normal 0 0 1
    outer loop
      vertex 42 16.5 0.5
      vertex 41.3375 16.9741 0.5
      vertex 41.5 16 0.5
    endloop
  endfacet
  facet normal 0 0 1
    outer loop
      vertex 41.8375 17.4741 0.5
      vertex 40.8674 17.8426 0.5
      vertex 41.3375 16.9741 0.5
    endloop
  endfacet
  facet normal 0 0 1
    outer loop
      vertex 40.6408 19.0115 0.5
      vertex 40.8674 17.8426 0.5
      vertex 41.3674 18.3426 0.5
    endloop
  endfacet
  facet normal 0 0 1
    outer loop
      vertex 40.6408 19.0115 0.5
      vertex 40.1408 18.5115 0.5
      vertex 40.8674 17.8426 0.5
    endloop
  endfacet
  facet normal 0 0 1
    outer loop
      vertex 39.7365 19.4082 0.5
      vertex 40.1408 18.5115 0.5
      vertex 40.6408 19.0115 0.5
    endloop
  endfacet
  facet normal 0 0 1
    outer loop
      vertex 39.7365 19.4082 0.5
      vertex 39.2365 18.9082 0.5
      vertex 40.1408 18.5115 0.5
    endloop
  endfacet
  facet normal 0 0 1
    outer loop
      vertex 38.7523 19.4898 0.5
      vertex 39.2365 18.9082 0.5
      vertex 39.7365 19.4082 0.5
    endloop
  endfacet
  facet normal 0 0 1
    outer loop
      vertex 38.7523 19.4898 0.5
      vertex 38.2523 18.9898 0.5
      vertex 39.2365 18.9082 0.5
    endloop
  endfacet
  facet normal 0 0 1
    outer loop
      vertex 38.7523 19.4898 0.5
      vertex 21.2523 18.9898 0.5
      vertex 38.2523 18.9898 0.5
    endloop
  endfacet
  facet normal -0 0 1
    outer loop
      vertex 20.7523 19.4898 0.5
      vertex 21.2523 18.9898 0.5
      vertex 38.7523 19.4898 0.5
    endloop
  endfacet
  facet normal 0 0 1
    outer loop
      vertex 20.7523 19.4898 0.5
      vertex 20.2949 18.7473 0.5
      vertex 21.2523 18.9898 0.5
    endloop
  endfacet
  facet normal -0 0 1
    outer loop
      vertex 19.7949 19.2473 0.5
      vertex 20.2949 18.7473 0.5
      vertex 20.7523 19.4898 0.5
    endloop
  endfacet
  facet normal 0 0 1
    outer loop
      vertex 19.7949 19.2473 0.5
      vertex 19.4682 18.2072 0.5
      vertex 20.2949 18.7473 0.5
    endloop
  endfacet
  facet normal -0 0 1
    outer loop
      vertex 18.9682 18.7072 0.5
      vertex 19.4682 18.2072 0.5
      vertex 19.7949 19.2473 0.5
    endloop
  endfacet
  facet normal 0 0 1
    outer loop
      vertex 18.3616 17.9278 0.5
      vertex 19.4682 18.2072 0.5
      vertex 18.9682 18.7072 0.5
    endloop
  endfacet
  facet normal 0 0 1
    outer loop
      vertex 19.4682 18.2072 0.5
      vertex 18.3616 17.9278 0.5
      vertex 18.8616 17.4278 0.5
    endloop
  endfacet
  facet normal 0 0 1
    outer loop
      vertex 18.8616 17.4278 0.5
      vertex 18.0409 16.9938 0.5
      vertex 18.5409 16.4938 0.5
    endloop
  endfacet
  facet normal 0 0 1
    outer loop
      vertex 18.0409 16.9938 0.5
      vertex 18.8616 17.4278 0.5
      vertex 18.3616 17.9278 0.5
    endloop
  endfacet
  facet normal 0 0 1
    outer loop
      vertex 41.3375 -16.9741 0.5
      vertex 42 -16.5 0.5
      vertex 41.5 -16 0.5
    endloop
  endfacet
  facet normal 0 0 1
    outer loop
      vertex 42 -16.5 0.5
      vertex 41.3375 -16.9741 0.5
      vertex 41.8375 -17.4741 0.5
    endloop
  endfacet
  facet normal 0 0 1
    outer loop
      vertex 40.8674 -17.8426 0.5
      vertex 41.8375 -17.4741 0.5
      vertex 41.3375 -16.9741 0.5
    endloop
  endfacet
  facet normal 0 0 1
    outer loop
      vertex 41.8375 -17.4741 0.5
      vertex 40.8674 -17.8426 0.5
      vertex 41.3674 -18.3426 0.5
    endloop
  endfacet
  facet normal 0 0 1
    outer loop
      vertex 40.8674 -17.8426 0.5
      vertex 40.6408 -19.0115 0.5
      vertex 41.3674 -18.3426 0.5
    endloop
  endfacet
  facet normal -0 0 1
    outer loop
      vertex 40.1408 -18.5115 0.5
      vertex 40.6408 -19.0115 0.5
      vertex 40.8674 -17.8426 0.5
    endloop
  endfacet
  facet normal 0 0 1
    outer loop
      vertex 40.1408 -18.5115 0.5
      vertex 39.7365 -19.4082 0.5
      vertex 40.6408 -19.0115 0.5
    endloop
  endfacet
  facet normal -0 0 1
    outer loop
      vertex 39.2365 -18.9082 0.5
      vertex 39.7365 -19.4082 0.5
      vertex 40.1408 -18.5115 0.5
    endloop
  endfacet
  facet normal 0 0 1
    outer loop
      vertex 39.2365 -18.9082 0.5
      vertex 38.7523 -19.4898 0.5
      vertex 39.7365 -19.4082 0.5
    endloop
  endfacet
  facet normal -0 0 1
    outer loop
      vertex 38.2523 -18.9898 0.5
      vertex 38.7523 -19.4898 0.5
      vertex 39.2365 -18.9082 0.5
    endloop
  endfacet
  facet normal -0 0 1
    outer loop
      vertex 21.2523 -18.9898 0.5
      vertex 38.7523 -19.4898 0.5
      vertex 38.2523 -18.9898 0.5
    endloop
  endfacet
  facet normal 0 0 1
    outer loop
      vertex 21.2523 -18.9898 0.5
      vertex 20.7523 -19.4898 0.5
      vertex 38.7523 -19.4898 0.5
    endloop
  endfacet
  facet normal 0 0 1
    outer loop
      vertex 20.2949 -18.7473 0.5
      vertex 20.7523 -19.4898 0.5
      vertex 21.2523 -18.9898 0.5
    endloop
  endfacet
  facet normal 0 0 1
    outer loop
      vertex 20.2949 -18.7473 0.5
      vertex 19.7949 -19.2473 0.5
      vertex 20.7523 -19.4898 0.5
    endloop
  endfacet
  facet normal 0 0 1
    outer loop
      vertex 19.4682 -18.2072 0.5
      vertex 19.7949 -19.2473 0.5
      vertex 20.2949 -18.7473 0.5
    endloop
  endfacet
  facet normal 0 0 1
    outer loop
      vertex 19.4682 -18.2072 0.5
      vertex 18.9682 -18.7072 0.5
      vertex 19.7949 -19.2473 0.5
    endloop
  endfacet
  facet normal -0 0 1
    outer loop
      vertex 18.3616 -17.9278 0.5
      vertex 19.4682 -18.2072 0.5
      vertex 18.8616 -17.4278 0.5
    endloop
  endfacet
  facet normal -0 0 1
    outer loop
      vertex 18.0409 -16.9938 0.5
      vertex 18.8616 -17.4278 0.5
      vertex 18.5409 -16.4938 0.5
    endloop
  endfacet
  facet normal 0 0 1
    outer loop
      vertex 19.4682 -18.2072 0.5
      vertex 18.3616 -17.9278 0.5
      vertex 18.9682 -18.7072 0.5
    endloop
  endfacet
  facet normal 0 0 1
    outer loop
      vertex 18.5409 16.4938 0.5
      vertex 18.0409 16.9938 0.5
      vertex 18.5409 -16.4938 0.5
    endloop
  endfacet
  facet normal 0 0 1
    outer loop
      vertex 18.0409 -16.9938 0.5
      vertex 18.5409 -16.4938 0.5
      vertex 18.0409 16.9938 0.5
    endloop
  endfacet
  facet normal 0 0 1
    outer loop
      vertex 18.8616 -17.4278 0.5
      vertex 18.0409 -16.9938 0.5
      vertex 18.3616 -17.9278 0.5
    endloop
  endfacet
endsolid OpenSCAD_Model
