solid OpenSCAD_Model
  facet normal 0 -1 0
    outer loop
      vertex -18.7477 18.9898 -4.5
      vertex -1.74774 18.9898 -1
      vertex -18.7477 18.9898 -1
    endloop
  endfacet
  facet normal 0 -1 -0
    outer loop
      vertex -1.74774 18.9898 -1
      vertex -18.7477 18.9898 -4.5
      vertex -1.74774 18.9898 -4.5
    endloop
  endfacet
  facet normal 0 0 1
    outer loop
      vertex -1.74774 18.9898 -4.5
      vertex 1.5 16 -4.5
      vertex 1.33745 16.9741 -4.5
    endloop
  endfacet
  facet normal 0 0 1
    outer loop
      vertex 1.5 16 -4.5
      vertex -21.4591 16.4938 -4.5
      vertex 1.5 -16 -4.5
    endloop
  endfacet
  facet normal 0 0 1
    outer loop
      vertex -1.74774 18.9898 -4.5
      vertex 1.33745 16.9741 -4.5
      vertex 0.867421 17.8426 -4.5
    endloop
  endfacet
  facet normal 0 0 1
    outer loop
      vertex 1.5 16 -4.5
      vertex -1.74774 18.9898 -4.5
      vertex -21.4591 16.4938 -4.5
    endloop
  endfacet
  facet normal 0 0 1
    outer loop
      vertex -1.74774 18.9898 -4.5
      vertex 0.867421 17.8426 -4.5
      vertex 0.140844 18.5115 -4.5
    endloop
  endfacet
  facet normal 0 0 1
    outer loop
      vertex -21.4591 -16.4938 -4.5
      vertex 1.5 -16 -4.5
      vertex -21.4591 16.4938 -4.5
    endloop
  endfacet
  facet normal 0 0 1
    outer loop
      vertex -1.74774 18.9898 -4.5
      vertex 0.140844 18.5115 -4.5
      vertex -0.763544 18.9082 -4.5
    endloop
  endfacet
  facet normal 0 0 1
    outer loop
      vertex 1.33745 -16.9741 -4.5
      vertex -1.74774 -18.9898 -4.5
      vertex 0.867421 -17.8426 -4.5
    endloop
  endfacet
  facet normal 0 0 1
    outer loop
      vertex 0.867421 -17.8426 -4.5
      vertex -1.74774 -18.9898 -4.5
      vertex 0.140844 -18.5115 -4.5
    endloop
  endfacet
  facet normal 0 0 1
    outer loop
      vertex 0.140844 -18.5115 -4.5
      vertex -1.74774 -18.9898 -4.5
      vertex -0.763544 -18.9082 -4.5
    endloop
  endfacet
  facet normal 0 0 1
    outer loop
      vertex -21.4591 16.4938 -4.5
      vertex -1.74774 18.9898 -4.5
      vertex -18.7477 18.9898 -4.5
    endloop
  endfacet
  facet normal 0 -0 1
    outer loop
      vertex -1.74774 -18.9898 -4.5
      vertex 1.5 -16 -4.5
      vertex -21.4591 -16.4938 -4.5
    endloop
  endfacet
  facet normal 0 0 1
    outer loop
      vertex -21.4591 16.4938 -4.5
      vertex -18.7477 18.9898 -4.5
      vertex -19.7051 18.7473 -4.5
    endloop
  endfacet
  facet normal 0 0 1
    outer loop
      vertex 1.5 -16 -4.5
      vertex -1.74774 -18.9898 -4.5
      vertex 1.33745 -16.9741 -4.5
    endloop
  endfacet
  facet normal 0 0 1
    outer loop
      vertex -21.4591 16.4938 -4.5
      vertex -19.7051 18.7473 -4.5
      vertex -20.5318 18.2072 -4.5
    endloop
  endfacet
  facet normal 0 0 1
    outer loop
      vertex -1.74774 -18.9898 -4.5
      vertex -21.4591 -16.4938 -4.5
      vertex -18.7477 -18.9898 -4.5
    endloop
  endfacet
  facet normal 0 0 1
    outer loop
      vertex -21.4591 16.4938 -4.5
      vertex -20.5318 18.2072 -4.5
      vertex -21.1384 17.4278 -4.5
    endloop
  endfacet
  facet normal 0 0 1
    outer loop
      vertex -18.7477 -18.9898 -4.5
      vertex -21.4591 -16.4938 -4.5
      vertex -19.7051 -18.7473 -4.5
    endloop
  endfacet
  facet normal 0 0 1
    outer loop
      vertex -19.7051 -18.7473 -4.5
      vertex -21.4591 -16.4938 -4.5
      vertex -20.5318 -18.2072 -4.5
    endloop
  endfacet
  facet normal 0 0 1
    outer loop
      vertex -20.5318 -18.2072 -4.5
      vertex -21.4591 -16.4938 -4.5
      vertex -21.1384 -17.4278 -4.5
    endloop
  endfacet
  facet normal 0 1 -0
    outer loop
      vertex -1.74774 -18.9898 -4.5
      vertex -18.7477 -18.9898 -1
      vertex -1.74774 -18.9898 -1
    endloop
  endfacet
  facet normal 0 1 0
    outer loop
      vertex -18.7477 -18.9898 -1
      vertex -1.74774 -18.9898 -4.5
      vertex -18.7477 -18.9898 -4.5
    endloop
  endfacet
  facet normal 1 -0 0
    outer loop
      vertex -21.4591 -16.4938 -1
      vertex -21.4591 16.4938 -4.5
      vertex -21.4591 16.4938 -1
    endloop
  endfacet
  facet normal 1 0 0
    outer loop
      vertex -21.4591 16.4938 -4.5
      vertex -21.4591 -16.4938 -1
      vertex -21.4591 -16.4938 -4.5
    endloop
  endfacet
  facet normal 0.945817 0.3247 0
    outer loop
      vertex -21.1384 -17.4278 -1
      vertex -21.4591 -16.4938 -4.5
      vertex -21.4591 -16.4938 -1
    endloop
  endfacet
  facet normal 0.945817 0.3247 0
    outer loop
      vertex -21.4591 -16.4938 -4.5
      vertex -21.1384 -17.4278 -1
      vertex -21.1384 -17.4278 -4.5
    endloop
  endfacet
  facet normal 0.245487 -0.9694 0
    outer loop
      vertex -19.7051 18.7473 -4.5
      vertex -18.7477 18.9898 -1
      vertex -19.7051 18.7473 -1
    endloop
  endfacet
  facet normal 0.245487 -0.9694 0
    outer loop
      vertex -18.7477 18.9898 -1
      vertex -19.7051 18.7473 -4.5
      vertex -18.7477 18.9898 -4.5
    endloop
  endfacet
  facet normal -0.986361 -0.164595 0
    outer loop
      vertex 1.5 16 -4.5
      vertex 1.33745 16.9741 -1
      vertex 1.33745 16.9741 -4.5
    endloop
  endfacet
  facet normal -0.986361 -0.164595 0
    outer loop
      vertex 1.33745 16.9741 -1
      vertex 1.5 16 -4.5
      vertex 1.5 16 -1
    endloop
  endfacet
  facet normal -1 0 0
    outer loop
      vertex 1.5 -16 -4.5
      vertex 1.5 16 -1
      vertex 1.5 16 -4.5
    endloop
  endfacet
  facet normal -1 -0 0
    outer loop
      vertex 1.5 16 -1
      vertex 1.5 -16 -4.5
      vertex 1.5 -16 -1
    endloop
  endfacet
  facet normal 0.945817 -0.3247 0
    outer loop
      vertex -21.4591 16.4938 -1
      vertex -21.1384 17.4278 -4.5
      vertex -21.1384 17.4278 -1
    endloop
  endfacet
  facet normal 0.945817 -0.3247 0
    outer loop
      vertex -21.1384 17.4278 -4.5
      vertex -21.4591 16.4938 -1
      vertex -21.4591 16.4938 -4.5
    endloop
  endfacet
  facet normal 0.546946 -0.837168 0
    outer loop
      vertex -20.5318 18.2072 -4.5
      vertex -19.7051 18.7473 -1
      vertex -20.5318 18.2072 -1
    endloop
  endfacet
  facet normal 0.546946 -0.837168 0
    outer loop
      vertex -19.7051 18.7473 -1
      vertex -20.5318 18.2072 -4.5
      vertex -19.7051 18.7473 -4.5
    endloop
  endfacet
  facet normal 0.789142 -0.614211 0
    outer loop
      vertex -21.1384 17.4278 -1
      vertex -20.5318 18.2072 -4.5
      vertex -20.5318 18.2072 -1
    endloop
  endfacet
  facet normal 0.789142 -0.614211 0
    outer loop
      vertex -20.5318 18.2072 -4.5
      vertex -21.1384 17.4278 -1
      vertex -21.1384 17.4278 -4.5
    endloop
  endfacet
  facet normal -0.401694 0.915774 0
    outer loop
      vertex 0.140844 -18.5115 -4.5
      vertex -0.763544 -18.9082 -1
      vertex 0.140844 -18.5115 -1
    endloop
  endfacet
  facet normal -0.401694 0.915774 0
    outer loop
      vertex -0.763544 -18.9082 -1
      vertex 0.140844 -18.5115 -4.5
      vertex -0.763544 -18.9082 -4.5
    endloop
  endfacet
  facet normal -0.0825811 0.996584 0
    outer loop
      vertex -0.763544 -18.9082 -4.5
      vertex -1.74774 -18.9898 -1
      vertex -0.763544 -18.9082 -1
    endloop
  endfacet
  facet normal -0.0825811 0.996584 0
    outer loop
      vertex -1.74774 -18.9898 -1
      vertex -0.763544 -18.9082 -4.5
      vertex -1.74774 -18.9898 -4.5
    endloop
  endfacet
  facet normal -0.677282 0.735724 0
    outer loop
      vertex 0.867421 -17.8426 -4.5
      vertex 0.140844 -18.5115 -1
      vertex 0.867421 -17.8426 -1
    endloop
  endfacet
  facet normal -0.677282 0.735724 0
    outer loop
      vertex 0.140844 -18.5115 -1
      vertex 0.867421 -17.8426 -4.5
      vertex 0.140844 -18.5115 -4.5
    endloop
  endfacet
  facet normal 0.245487 0.9694 -0
    outer loop
      vertex -18.7477 -18.9898 -4.5
      vertex -19.7051 -18.7473 -1
      vertex -18.7477 -18.9898 -1
    endloop
  endfacet
  facet normal 0.245487 0.9694 0
    outer loop
      vertex -19.7051 -18.7473 -1
      vertex -18.7477 -18.9898 -4.5
      vertex -19.7051 -18.7473 -4.5
    endloop
  endfacet
  facet normal 0.546946 0.837168 -0
    outer loop
      vertex -19.7051 -18.7473 -4.5
      vertex -20.5318 -18.2072 -1
      vertex -19.7051 -18.7473 -1
    endloop
  endfacet
  facet normal 0.546946 0.837168 0
    outer loop
      vertex -20.5318 -18.2072 -1
      vertex -19.7051 -18.7473 -4.5
      vertex -20.5318 -18.2072 -4.5
    endloop
  endfacet
  facet normal -0.879474 0.475947 0
    outer loop
      vertex 0.867421 -17.8426 -4.5
      vertex 1.33745 -16.9741 -1
      vertex 1.33745 -16.9741 -4.5
    endloop
  endfacet
  facet normal -0.879474 0.475947 0
    outer loop
      vertex 1.33745 -16.9741 -1
      vertex 0.867421 -17.8426 -4.5
      vertex 0.867421 -17.8426 -1
    endloop
  endfacet
  facet normal -0.0825811 -0.996584 0
    outer loop
      vertex -1.74774 18.9898 -4.5
      vertex -0.763544 18.9082 -1
      vertex -1.74774 18.9898 -1
    endloop
  endfacet
  facet normal -0.0825811 -0.996584 -0
    outer loop
      vertex -0.763544 18.9082 -1
      vertex -1.74774 18.9898 -4.5
      vertex -0.763544 18.9082 -4.5
    endloop
  endfacet
  facet normal -0.879474 -0.475947 0
    outer loop
      vertex 1.33745 16.9741 -4.5
      vertex 0.867421 17.8426 -1
      vertex 0.867421 17.8426 -4.5
    endloop
  endfacet
  facet normal -0.879474 -0.475947 0
    outer loop
      vertex 0.867421 17.8426 -1
      vertex 1.33745 16.9741 -4.5
      vertex 1.33745 16.9741 -1
    endloop
  endfacet
  facet normal 0.789142 0.614211 0
    outer loop
      vertex -20.5318 -18.2072 -1
      vertex -21.1384 -17.4278 -4.5
      vertex -21.1384 -17.4278 -1
    endloop
  endfacet
  facet normal 0.789142 0.614211 0
    outer loop
      vertex -21.1384 -17.4278 -4.5
      vertex -20.5318 -18.2072 -1
      vertex -20.5318 -18.2072 -4.5
    endloop
  endfacet
  facet normal -0.986361 0.164595 0
    outer loop
      vertex 1.33745 -16.9741 -4.5
      vertex 1.5 -16 -1
      vertex 1.5 -16 -4.5
    endloop
  endfacet
  facet normal -0.986361 0.164595 0
    outer loop
      vertex 1.5 -16 -1
      vertex 1.33745 -16.9741 -4.5
      vertex 1.33745 -16.9741 -1
    endloop
  endfacet
  facet normal -0.401694 -0.915774 0
    outer loop
      vertex -0.763544 18.9082 -4.5
      vertex 0.140844 18.5115 -1
      vertex -0.763544 18.9082 -1
    endloop
  endfacet
  facet normal -0.401694 -0.915774 -0
    outer loop
      vertex 0.140844 18.5115 -1
      vertex -0.763544 18.9082 -4.5
      vertex 0.140844 18.5115 -4.5
    endloop
  endfacet
  facet normal -0.677282 -0.735724 0
    outer loop
      vertex 0.140844 18.5115 -4.5
      vertex 0.867421 17.8426 -1
      vertex 0.140844 18.5115 -1
    endloop
  endfacet
  facet normal -0.677282 -0.735724 -0
    outer loop
      vertex 0.867421 17.8426 -1
      vertex 0.140844 18.5115 -4.5
      vertex 0.867421 17.8426 -4.5
    endloop
  endfacet
  facet normal -1 0 0
    outer loop
      vertex -22.9591 -17.9938 -6
      vertex -22.9591 17.9938 1
      vertex -22.9591 17.9938 -6
    endloop
  endfacet
  facet normal -1 -0 0
    outer loop
      vertex -22.9591 17.9938 1
      vertex -22.9591 -17.9938 -6
      vertex -22.9591 -17.9938 1
    endloop
  endfacet
  facet normal -0.245487 -0.9694 0
    outer loop
      vertex -21.2051 -20.2473 -6
      vertex -20.2477 -20.4898 1
      vertex -21.2051 -20.2473 1
    endloop
  endfacet
  facet normal -0.245487 -0.9694 -0
    outer loop
      vertex -20.2477 -20.4898 1
      vertex -21.2051 -20.2473 -6
      vertex -20.2477 -20.4898 -6
    endloop
  endfacet
  facet normal -0.945817 0.3247 0
    outer loop
      vertex -22.9591 17.9938 -6
      vertex -22.6384 18.9278 1
      vertex -22.6384 18.9278 -6
    endloop
  endfacet
  facet normal -0.945817 0.3247 0
    outer loop
      vertex -22.6384 18.9278 1
      vertex -22.9591 17.9938 -6
      vertex -22.9591 17.9938 1
    endloop
  endfacet
  facet normal 1 -0 0
    outer loop
      vertex 3 -17.5 1
      vertex 3 17.5 -6
      vertex 3 17.5 1
    endloop
  endfacet
  facet normal 1 0 0
    outer loop
      vertex 3 17.5 -6
      vertex 3 -17.5 1
      vertex 3 -17.5 -6
    endloop
  endfacet
  facet normal 0 -1 0
    outer loop
      vertex -20.2477 -20.4898 -6
      vertex -0.247739 -20.4898 1
      vertex -20.2477 -20.4898 1
    endloop
  endfacet
  facet normal 0 -1 -0
    outer loop
      vertex -0.247739 -20.4898 1
      vertex -20.2477 -20.4898 -6
      vertex -0.247739 -20.4898 -6
    endloop
  endfacet
  facet normal 0 0 -1
    outer loop
      vertex -0.247739 -20.4898 -6
      vertex 3 -17.5 -6
      vertex 2.83745 -18.4741 -6
    endloop
  endfacet
  facet normal -0 0 -1
    outer loop
      vertex 3 -17.5 -6
      vertex -22.9591 -17.9938 -6
      vertex 3 17.5 -6
    endloop
  endfacet
  facet normal 0 0 -1
    outer loop
      vertex -0.247739 -20.4898 -6
      vertex 2.83745 -18.4741 -6
      vertex 2.36742 -19.3426 -6
    endloop
  endfacet
  facet normal 0 0 -1
    outer loop
      vertex 3 -17.5 -6
      vertex -0.247739 -20.4898 -6
      vertex -22.9591 -17.9938 -6
    endloop
  endfacet
  facet normal 0 0 -1
    outer loop
      vertex -0.247739 -20.4898 -6
      vertex 2.36742 -19.3426 -6
      vertex 1.64084 -20.0115 -6
    endloop
  endfacet
  facet normal 0 0 -1
    outer loop
      vertex -22.9591 17.9938 -6
      vertex 3 17.5 -6
      vertex -22.9591 -17.9938 -6
    endloop
  endfacet
  facet normal 0 0 -1
    outer loop
      vertex -0.247739 -20.4898 -6
      vertex 1.64084 -20.0115 -6
      vertex 0.736456 -20.4082 -6
    endloop
  endfacet
  facet normal 0 0 -1
    outer loop
      vertex 2.83745 18.4741 -6
      vertex -0.247739 20.4898 -6
      vertex 2.36742 19.3426 -6
    endloop
  endfacet
  facet normal 0 0 -1
    outer loop
      vertex 2.36742 19.3426 -6
      vertex -0.247739 20.4898 -6
      vertex 1.64084 20.0115 -6
    endloop
  endfacet
  facet normal 0 0 -1
    outer loop
      vertex 1.64084 20.0115 -6
      vertex -0.247739 20.4898 -6
      vertex 0.736456 20.4082 -6
    endloop
  endfacet
  facet normal 0 0 -1
    outer loop
      vertex -22.9591 -17.9938 -6
      vertex -0.247739 -20.4898 -6
      vertex -20.2477 -20.4898 -6
    endloop
  endfacet
  facet normal 0 -0 -1
    outer loop
      vertex -0.247739 20.4898 -6
      vertex 3 17.5 -6
      vertex -22.9591 17.9938 -6
    endloop
  endfacet
  facet normal 0 0 -1
    outer loop
      vertex -22.9591 -17.9938 -6
      vertex -20.2477 -20.4898 -6
      vertex -21.2051 -20.2473 -6
    endloop
  endfacet
  facet normal 0 0 -1
    outer loop
      vertex 3 17.5 -6
      vertex -0.247739 20.4898 -6
      vertex 2.83745 18.4741 -6
    endloop
  endfacet
  facet normal 0 0 -1
    outer loop
      vertex -22.9591 -17.9938 -6
      vertex -21.2051 -20.2473 -6
      vertex -22.0318 -19.7072 -6
    endloop
  endfacet
  facet normal -0 0 -1
    outer loop
      vertex -0.247739 20.4898 -6
      vertex -22.9591 17.9938 -6
      vertex -20.2477 20.4898 -6
    endloop
  endfacet
  facet normal 0 0 -1
    outer loop
      vertex -22.9591 -17.9938 -6
      vertex -22.0318 -19.7072 -6
      vertex -22.6384 -18.9278 -6
    endloop
  endfacet
  facet normal 0 0 -1
    outer loop
      vertex -20.2477 20.4898 -6
      vertex -22.9591 17.9938 -6
      vertex -21.2051 20.2473 -6
    endloop
  endfacet
  facet normal 0 0 -1
    outer loop
      vertex -21.2051 20.2473 -6
      vertex -22.9591 17.9938 -6
      vertex -22.0318 19.7072 -6
    endloop
  endfacet
  facet normal 0 0 -1
    outer loop
      vertex -22.0318 19.7072 -6
      vertex -22.9591 17.9938 -6
      vertex -22.6384 18.9278 -6
    endloop
  endfacet
  facet normal -0.546946 0.837168 0
    outer loop
      vertex -21.2051 20.2473 -6
      vertex -22.0318 19.7072 1
      vertex -21.2051 20.2473 1
    endloop
  endfacet
  facet normal -0.546946 0.837168 0
    outer loop
      vertex -22.0318 19.7072 1
      vertex -21.2051 20.2473 -6
      vertex -22.0318 19.7072 -6
    endloop
  endfacet
  facet normal -0.245487 0.9694 0
    outer loop
      vertex -20.2477 20.4898 -6
      vertex -21.2051 20.2473 1
      vertex -20.2477 20.4898 1
    endloop
  endfacet
  facet normal -0.245487 0.9694 0
    outer loop
      vertex -21.2051 20.2473 1
      vertex -20.2477 20.4898 -6
      vertex -21.2051 20.2473 -6
    endloop
  endfacet
  facet normal -0.789142 0.614211 0
    outer loop
      vertex -22.6384 18.9278 -6
      vertex -22.0318 19.7072 1
      vertex -22.0318 19.7072 -6
    endloop
  endfacet
  facet normal -0.789142 0.614211 0
    outer loop
      vertex -22.0318 19.7072 1
      vertex -22.6384 18.9278 -6
      vertex -22.6384 18.9278 1
    endloop
  endfacet
  facet normal 0 1 -0
    outer loop
      vertex -0.247739 20.4898 -6
      vertex -20.2477 20.4898 1
      vertex -0.247739 20.4898 1
    endloop
  endfacet
  facet normal 0 1 0
    outer loop
      vertex -20.2477 20.4898 1
      vertex -0.247739 20.4898 -6
      vertex -20.2477 20.4898 -6
    endloop
  endfacet
  facet normal -0.546946 -0.837168 0
    outer loop
      vertex -22.0318 -19.7072 -6
      vertex -21.2051 -20.2473 1
      vertex -22.0318 -19.7072 1
    endloop
  endfacet
  facet normal -0.546946 -0.837168 -0
    outer loop
      vertex -21.2051 -20.2473 1
      vertex -22.0318 -19.7072 -6
      vertex -21.2051 -20.2473 -6
    endloop
  endfacet
  facet normal -0.945817 -0.3247 0
    outer loop
      vertex -22.6384 -18.9278 -6
      vertex -22.9591 -17.9938 1
      vertex -22.9591 -17.9938 -6
    endloop
  endfacet
  facet normal -0.945817 -0.3247 0
    outer loop
      vertex -22.9591 -17.9938 1
      vertex -22.6384 -18.9278 -6
      vertex -22.6384 -18.9278 1
    endloop
  endfacet
  facet normal 0.0825811 -0.996584 0
    outer loop
      vertex -0.247739 -20.4898 -6
      vertex 0.736456 -20.4082 1
      vertex -0.247739 -20.4898 1
    endloop
  endfacet
  facet normal 0.0825811 -0.996584 0
    outer loop
      vertex 0.736456 -20.4082 1
      vertex -0.247739 -20.4898 -6
      vertex 0.736456 -20.4082 -6
    endloop
  endfacet
  facet normal 0.677282 0.735724 -0
    outer loop
      vertex 2.36742 19.3426 -6
      vertex 1.64084 20.0115 1
      vertex 2.36742 19.3426 1
    endloop
  endfacet
  facet normal 0.677282 0.735724 0
    outer loop
      vertex 1.64084 20.0115 1
      vertex 2.36742 19.3426 -6
      vertex 1.64084 20.0115 -6
    endloop
  endfacet
  facet normal -0.789142 -0.614211 0
    outer loop
      vertex -22.0318 -19.7072 -6
      vertex -22.6384 -18.9278 1
      vertex -22.6384 -18.9278 -6
    endloop
  endfacet
  facet normal -0.789142 -0.614211 0
    outer loop
      vertex -22.6384 -18.9278 1
      vertex -22.0318 -19.7072 -6
      vertex -22.0318 -19.7072 1
    endloop
  endfacet
  facet normal 0.401694 -0.915774 0
    outer loop
      vertex 0.736456 -20.4082 -6
      vertex 1.64084 -20.0115 1
      vertex 0.736456 -20.4082 1
    endloop
  endfacet
  facet normal 0.401694 -0.915774 0
    outer loop
      vertex 1.64084 -20.0115 1
      vertex 0.736456 -20.4082 -6
      vertex 1.64084 -20.0115 -6
    endloop
  endfacet
  facet normal 0.401694 0.915774 -0
    outer loop
      vertex 1.64084 20.0115 -6
      vertex 0.736456 20.4082 1
      vertex 1.64084 20.0115 1
    endloop
  endfacet
  facet normal 0.401694 0.915774 0
    outer loop
      vertex 0.736456 20.4082 1
      vertex 1.64084 20.0115 -6
      vertex 0.736456 20.4082 -6
    endloop
  endfacet
  facet normal 0.677282 -0.735724 0
    outer loop
      vertex 1.64084 -20.0115 -6
      vertex 2.36742 -19.3426 1
      vertex 1.64084 -20.0115 1
    endloop
  endfacet
  facet normal 0.677282 -0.735724 0
    outer loop
      vertex 2.36742 -19.3426 1
      vertex 1.64084 -20.0115 -6
      vertex 2.36742 -19.3426 -6
    endloop
  endfacet
  facet normal 0.0825811 0.996584 -0
    outer loop
      vertex 0.736456 20.4082 -6
      vertex -0.247739 20.4898 1
      vertex 0.736456 20.4082 1
    endloop
  endfacet
  facet normal 0.0825811 0.996584 0
    outer loop
      vertex -0.247739 20.4898 1
      vertex 0.736456 20.4082 -6
      vertex -0.247739 20.4898 -6
    endloop
  endfacet
  facet normal 0.879474 0.475947 0
    outer loop
      vertex 2.83745 18.4741 1
      vertex 2.36742 19.3426 -6
      vertex 2.36742 19.3426 1
    endloop
  endfacet
  facet normal 0.879474 0.475947 0
    outer loop
      vertex 2.36742 19.3426 -6
      vertex 2.83745 18.4741 1
      vertex 2.83745 18.4741 -6
    endloop
  endfacet
  facet normal 0.986361 0.164595 0
    outer loop
      vertex 3 17.5 1
      vertex 2.83745 18.4741 -6
      vertex 2.83745 18.4741 1
    endloop
  endfacet
  facet normal 0.986361 0.164595 0
    outer loop
      vertex 2.83745 18.4741 -6
      vertex 3 17.5 1
      vertex 3 17.5 -6
    endloop
  endfacet
  facet normal 0.986361 -0.164595 0
    outer loop
      vertex 2.83745 -18.4741 1
      vertex 3 -17.5 -6
      vertex 3 -17.5 1
    endloop
  endfacet
  facet normal 0.986361 -0.164595 0
    outer loop
      vertex 3 -17.5 -6
      vertex 2.83745 -18.4741 1
      vertex 2.83745 -18.4741 -6
    endloop
  endfacet
  facet normal 0.879474 -0.475947 0
    outer loop
      vertex 2.36742 -19.3426 1
      vertex 2.83745 -18.4741 -6
      vertex 2.83745 -18.4741 1
    endloop
  endfacet
  facet normal 0.879474 -0.475947 0
    outer loop
      vertex 2.83745 -18.4741 -6
      vertex 2.36742 -19.3426 1
      vertex 2.36742 -19.3426 -6
    endloop
  endfacet
  facet normal -0 0 1
    outer loop
      vertex 1.33745 16.9741 -1
      vertex 2.25 16.75 -1
      vertex 2.08745 17.7241 -1
    endloop
  endfacet
  facet normal 0 0 1
    outer loop
      vertex 2.25 16.75 -1
      vertex 1.5 16 -1
      vertex 2.25 -16.75 -1
    endloop
  endfacet
  facet normal -0 0 1
    outer loop
      vertex 0.867421 17.8426 -1
      vertex 2.08745 17.7241 -1
      vertex 1.61742 18.5926 -1
    endloop
  endfacet
  facet normal -0 0 1
    outer loop
      vertex 1.5 -16 -1
      vertex 2.25 -16.75 -1
      vertex 1.5 16 -1
    endloop
  endfacet
  facet normal 0 0 1
    outer loop
      vertex 1.33745 -16.9741 -1
      vertex 2.25 -16.75 -1
      vertex 1.5 -16 -1
    endloop
  endfacet
  facet normal 0 0 1
    outer loop
      vertex 2.25 16.75 -1
      vertex 1.33745 16.9741 -1
      vertex 1.5 16 -1
    endloop
  endfacet
  facet normal 0 0 1
    outer loop
      vertex 0.867421 17.8426 -1
      vertex 1.61742 18.5926 -1
      vertex 0.890844 19.2615 -1
    endloop
  endfacet
  facet normal 0 0 1
    outer loop
      vertex 2.08745 17.7241 -1
      vertex 0.867421 17.8426 -1
      vertex 1.33745 16.9741 -1
    endloop
  endfacet
  facet normal 0 0 1
    outer loop
      vertex 0.890844 19.2615 -1
      vertex 0.140844 18.5115 -1
      vertex 0.867421 17.8426 -1
    endloop
  endfacet
  facet normal 0 0 1
    outer loop
      vertex -0.0135441 19.6582 -1
      vertex 0.140844 18.5115 -1
      vertex 0.890844 19.2615 -1
    endloop
  endfacet
  facet normal 0 0 1
    outer loop
      vertex -0.0135441 19.6582 -1
      vertex -0.763544 18.9082 -1
      vertex 0.140844 18.5115 -1
    endloop
  endfacet
  facet normal 0 0 1
    outer loop
      vertex -0.997739 19.7398 -1
      vertex -0.763544 18.9082 -1
      vertex -0.0135441 19.6582 -1
    endloop
  endfacet
  facet normal 0 0 1
    outer loop
      vertex -0.997739 19.7398 -1
      vertex -1.74774 18.9898 -1
      vertex -0.763544 18.9082 -1
    endloop
  endfacet
  facet normal 0 0 1
    outer loop
      vertex -0.997739 19.7398 -1
      vertex -18.7477 18.9898 -1
      vertex -1.74774 18.9898 -1
    endloop
  endfacet
  facet normal -0 0 1
    outer loop
      vertex -19.4977 19.7398 -1
      vertex -18.7477 18.9898 -1
      vertex -0.997739 19.7398 -1
    endloop
  endfacet
  facet normal 0 0 1
    outer loop
      vertex -19.4977 19.7398 -1
      vertex -19.7051 18.7473 -1
      vertex -18.7477 18.9898 -1
    endloop
  endfacet
  facet normal -0 0 1
    outer loop
      vertex -20.4551 19.4973 -1
      vertex -19.7051 18.7473 -1
      vertex -19.4977 19.7398 -1
    endloop
  endfacet
  facet normal 0 0 1
    outer loop
      vertex -20.4551 19.4973 -1
      vertex -20.5318 18.2072 -1
      vertex -19.7051 18.7473 -1
    endloop
  endfacet
  facet normal -0 0 1
    outer loop
      vertex -21.2818 18.9572 -1
      vertex -20.5318 18.2072 -1
      vertex -20.4551 19.4973 -1
    endloop
  endfacet
  facet normal 0 0 1
    outer loop
      vertex -21.8884 18.1778 -1
      vertex -20.5318 18.2072 -1
      vertex -21.2818 18.9572 -1
    endloop
  endfacet
  facet normal 0 0 1
    outer loop
      vertex -20.5318 18.2072 -1
      vertex -21.8884 18.1778 -1
      vertex -21.1384 17.4278 -1
    endloop
  endfacet
  facet normal 0 0 1
    outer loop
      vertex -21.1384 17.4278 -1
      vertex -22.2091 17.2438 -1
      vertex -21.4591 16.4938 -1
    endloop
  endfacet
  facet normal 0 0 1
    outer loop
      vertex -22.2091 17.2438 -1
      vertex -21.1384 17.4278 -1
      vertex -21.8884 18.1778 -1
    endloop
  endfacet
  facet normal 0 0 1
    outer loop
      vertex 2.25 -16.75 -1
      vertex 1.33745 -16.9741 -1
      vertex 2.08745 -17.7241 -1
    endloop
  endfacet
  facet normal 0 0 1
    outer loop
      vertex 0.867421 -17.8426 -1
      vertex 2.08745 -17.7241 -1
      vertex 1.33745 -16.9741 -1
    endloop
  endfacet
  facet normal 0 0 1
    outer loop
      vertex 2.08745 -17.7241 -1
      vertex 0.867421 -17.8426 -1
      vertex 1.61742 -18.5926 -1
    endloop
  endfacet
  facet normal 0 0 1
    outer loop
      vertex 1.61742 -18.5926 -1
      vertex 0.867421 -17.8426 -1
      vertex 0.890844 -19.2615 -1
    endloop
  endfacet
  facet normal -0 0 1
    outer loop
      vertex 0.140844 -18.5115 -1
      vertex 0.890844 -19.2615 -1
      vertex 0.867421 -17.8426 -1
    endloop
  endfacet
  facet normal 0 0 1
    outer loop
      vertex 0.140844 -18.5115 -1
      vertex -0.0135441 -19.6582 -1
      vertex 0.890844 -19.2615 -1
    endloop
  endfacet
  facet normal -0 0 1
    outer loop
      vertex -0.763544 -18.9082 -1
      vertex -0.0135441 -19.6582 -1
      vertex 0.140844 -18.5115 -1
    endloop
  endfacet
  facet normal 0 0 1
    outer loop
      vertex -0.763544 -18.9082 -1
      vertex -0.997739 -19.7398 -1
      vertex -0.0135441 -19.6582 -1
    endloop
  endfacet
  facet normal -0 0 1
    outer loop
      vertex -1.74774 -18.9898 -1
      vertex -0.997739 -19.7398 -1
      vertex -0.763544 -18.9082 -1
    endloop
  endfacet
  facet normal -0 0 1
    outer loop
      vertex -18.7477 -18.9898 -1
      vertex -0.997739 -19.7398 -1
      vertex -1.74774 -18.9898 -1
    endloop
  endfacet
  facet normal 0 0 1
    outer loop
      vertex -18.7477 -18.9898 -1
      vertex -19.4977 -19.7398 -1
      vertex -0.997739 -19.7398 -1
    endloop
  endfacet
  facet normal 0 0 1
    outer loop
      vertex -19.7051 -18.7473 -1
      vertex -19.4977 -19.7398 -1
      vertex -18.7477 -18.9898 -1
    endloop
  endfacet
  facet normal 0 0 1
    outer loop
      vertex -19.7051 -18.7473 -1
      vertex -20.4551 -19.4973 -1
      vertex -19.4977 -19.7398 -1
    endloop
  endfacet
  facet normal 0 0 1
    outer loop
      vertex -20.5318 -18.2072 -1
      vertex -20.4551 -19.4973 -1
      vertex -19.7051 -18.7473 -1
    endloop
  endfacet
  facet normal -0 0 1
    outer loop
      vertex -21.8884 -18.1778 -1
      vertex -20.5318 -18.2072 -1
      vertex -21.1384 -17.4278 -1
    endloop
  endfacet
  facet normal 0 0 1
    outer loop
      vertex -20.5318 -18.2072 -1
      vertex -21.2818 -18.9572 -1
      vertex -20.4551 -19.4973 -1
    endloop
  endfacet
  facet normal -0 0 1
    outer loop
      vertex -22.2091 -17.2438 -1
      vertex -21.1384 -17.4278 -1
      vertex -21.4591 -16.4938 -1
    endloop
  endfacet
  facet normal 0 0 1
    outer loop
      vertex -20.5318 -18.2072 -1
      vertex -21.8884 -18.1778 -1
      vertex -21.2818 -18.9572 -1
    endloop
  endfacet
  facet normal 0 0 1
    outer loop
      vertex -21.4591 16.4938 -1
      vertex -22.2091 17.2438 -1
      vertex -21.4591 -16.4938 -1
    endloop
  endfacet
  facet normal 0 0 1
    outer loop
      vertex -22.2091 -17.2438 -1
      vertex -21.4591 -16.4938 -1
      vertex -22.2091 17.2438 -1
    endloop
  endfacet
  facet normal 0 0 1
    outer loop
      vertex -21.1384 -17.4278 -1
      vertex -22.2091 -17.2438 -1
      vertex -21.8884 -18.1778 -1
    endloop
  endfacet
  facet normal 0 -1 0
    outer loop
      vertex -19.4977 19.7398 -1
      vertex -0.997739 19.7398 1
      vertex -19.4977 19.7398 1
    endloop
  endfacet
  facet normal 0 -1 -0
    outer loop
      vertex -0.997739 19.7398 1
      vertex -19.4977 19.7398 -1
      vertex -0.997739 19.7398 -1
    endloop
  endfacet
  facet normal 0 1 -0
    outer loop
      vertex -0.997739 -19.7398 -1
      vertex -19.4977 -19.7398 1
      vertex -0.997739 -19.7398 1
    endloop
  endfacet
  facet normal 0 1 0
    outer loop
      vertex -19.4977 -19.7398 1
      vertex -0.997739 -19.7398 -1
      vertex -19.4977 -19.7398 -1
    endloop
  endfacet
  facet normal 1 -0 0
    outer loop
      vertex -22.2091 -17.2438 1
      vertex -22.2091 17.2438 -1
      vertex -22.2091 17.2438 1
    endloop
  endfacet
  facet normal 1 0 0
    outer loop
      vertex -22.2091 17.2438 -1
      vertex -22.2091 -17.2438 1
      vertex -22.2091 -17.2438 -1
    endloop
  endfacet
  facet normal 0.945817 0.3247 0
    outer loop
      vertex -21.8884 -18.1778 1
      vertex -22.2091 -17.2438 -1
      vertex -22.2091 -17.2438 1
    endloop
  endfacet
  facet normal 0.945817 0.3247 0
    outer loop
      vertex -22.2091 -17.2438 -1
      vertex -21.8884 -18.1778 1
      vertex -21.8884 -18.1778 -1
    endloop
  endfacet
  facet normal 0.245487 -0.9694 0
    outer loop
      vertex -20.4551 19.4973 -1
      vertex -19.4977 19.7398 1
      vertex -20.4551 19.4973 1
    endloop
  endfacet
  facet normal 0.245487 -0.9694 0
    outer loop
      vertex -19.4977 19.7398 1
      vertex -20.4551 19.4973 -1
      vertex -19.4977 19.7398 -1
    endloop
  endfacet
  facet normal -0.986361 -0.164595 0
    outer loop
      vertex 2.25 16.75 -1
      vertex 2.08745 17.7241 1
      vertex 2.08745 17.7241 -1
    endloop
  endfacet
  facet normal -0.986361 -0.164595 0
    outer loop
      vertex 2.08745 17.7241 1
      vertex 2.25 16.75 -1
      vertex 2.25 16.75 1
    endloop
  endfacet
  facet normal -1 0 0
    outer loop
      vertex 2.25 -16.75 -1
      vertex 2.25 16.75 1
      vertex 2.25 16.75 -1
    endloop
  endfacet
  facet normal -1 -0 0
    outer loop
      vertex 2.25 16.75 1
      vertex 2.25 -16.75 -1
      vertex 2.25 -16.75 1
    endloop
  endfacet
  facet normal 0.945817 -0.3247 0
    outer loop
      vertex -22.2091 17.2438 1
      vertex -21.8884 18.1778 -1
      vertex -21.8884 18.1778 1
    endloop
  endfacet
  facet normal 0.945817 -0.3247 0
    outer loop
      vertex -21.8884 18.1778 -1
      vertex -22.2091 17.2438 1
      vertex -22.2091 17.2438 -1
    endloop
  endfacet
  facet normal 0.546946 -0.837168 0
    outer loop
      vertex -21.2818 18.9572 -1
      vertex -20.4551 19.4973 1
      vertex -21.2818 18.9572 1
    endloop
  endfacet
  facet normal 0.546946 -0.837168 0
    outer loop
      vertex -20.4551 19.4973 1
      vertex -21.2818 18.9572 -1
      vertex -20.4551 19.4973 -1
    endloop
  endfacet
  facet normal 0.789142 -0.614211 0
    outer loop
      vertex -21.8884 18.1778 1
      vertex -21.2818 18.9572 -1
      vertex -21.2818 18.9572 1
    endloop
  endfacet
  facet normal 0.789142 -0.614211 0
    outer loop
      vertex -21.2818 18.9572 -1
      vertex -21.8884 18.1778 1
      vertex -21.8884 18.1778 -1
    endloop
  endfacet
  facet normal -0.401694 0.915774 0
    outer loop
      vertex 0.890844 -19.2615 -1
      vertex -0.0135441 -19.6582 1
      vertex 0.890844 -19.2615 1
    endloop
  endfacet
  facet normal -0.401694 0.915774 0
    outer loop
      vertex -0.0135441 -19.6582 1
      vertex 0.890844 -19.2615 -1
      vertex -0.0135441 -19.6582 -1
    endloop
  endfacet
  facet normal -0.0825811 0.996584 0
    outer loop
      vertex -0.0135441 -19.6582 -1
      vertex -0.997739 -19.7398 1
      vertex -0.0135441 -19.6582 1
    endloop
  endfacet
  facet normal -0.0825811 0.996584 0
    outer loop
      vertex -0.997739 -19.7398 1
      vertex -0.0135441 -19.6582 -1
      vertex -0.997739 -19.7398 -1
    endloop
  endfacet
  facet normal -0.677282 0.735724 0
    outer loop
      vertex 1.61742 -18.5926 -1
      vertex 0.890844 -19.2615 1
      vertex 1.61742 -18.5926 1
    endloop
  endfacet
  facet normal -0.677282 0.735724 0
    outer loop
      vertex 0.890844 -19.2615 1
      vertex 1.61742 -18.5926 -1
      vertex 0.890844 -19.2615 -1
    endloop
  endfacet
  facet normal 0.245487 0.9694 -0
    outer loop
      vertex -19.4977 -19.7398 -1
      vertex -20.4551 -19.4973 1
      vertex -19.4977 -19.7398 1
    endloop
  endfacet
  facet normal 0.245487 0.9694 0
    outer loop
      vertex -20.4551 -19.4973 1
      vertex -19.4977 -19.7398 -1
      vertex -20.4551 -19.4973 -1
    endloop
  endfacet
  facet normal 0.546946 0.837168 -0
    outer loop
      vertex -20.4551 -19.4973 -1
      vertex -21.2818 -18.9572 1
      vertex -20.4551 -19.4973 1
    endloop
  endfacet
  facet normal 0.546946 0.837168 0
    outer loop
      vertex -21.2818 -18.9572 1
      vertex -20.4551 -19.4973 -1
      vertex -21.2818 -18.9572 -1
    endloop
  endfacet
  facet normal -0.879474 0.475947 0
    outer loop
      vertex 1.61742 -18.5926 -1
      vertex 2.08745 -17.7241 1
      vertex 2.08745 -17.7241 -1
    endloop
  endfacet
  facet normal -0.879474 0.475947 0
    outer loop
      vertex 2.08745 -17.7241 1
      vertex 1.61742 -18.5926 -1
      vertex 1.61742 -18.5926 1
    endloop
  endfacet
  facet normal -0.0825811 -0.996584 0
    outer loop
      vertex -0.997739 19.7398 -1
      vertex -0.0135441 19.6582 1
      vertex -0.997739 19.7398 1
    endloop
  endfacet
  facet normal -0.0825811 -0.996584 -0
    outer loop
      vertex -0.0135441 19.6582 1
      vertex -0.997739 19.7398 -1
      vertex -0.0135441 19.6582 -1
    endloop
  endfacet
  facet normal -0.879474 -0.475947 0
    outer loop
      vertex 2.08745 17.7241 -1
      vertex 1.61742 18.5926 1
      vertex 1.61742 18.5926 -1
    endloop
  endfacet
  facet normal -0.879474 -0.475947 0
    outer loop
      vertex 1.61742 18.5926 1
      vertex 2.08745 17.7241 -1
      vertex 2.08745 17.7241 1
    endloop
  endfacet
  facet normal 0.789142 0.614211 0
    outer loop
      vertex -21.2818 -18.9572 1
      vertex -21.8884 -18.1778 -1
      vertex -21.8884 -18.1778 1
    endloop
  endfacet
  facet normal 0.789142 0.614211 0
    outer loop
      vertex -21.8884 -18.1778 -1
      vertex -21.2818 -18.9572 1
      vertex -21.2818 -18.9572 -1
    endloop
  endfacet
  facet normal -0.986361 0.164595 0
    outer loop
      vertex 2.08745 -17.7241 -1
      vertex 2.25 -16.75 1
      vertex 2.25 -16.75 -1
    endloop
  endfacet
  facet normal -0.986361 0.164595 0
    outer loop
      vertex 2.25 -16.75 1
      vertex 2.08745 -17.7241 -1
      vertex 2.08745 -17.7241 1
    endloop
  endfacet
  facet normal -0.401694 -0.915774 0
    outer loop
      vertex -0.0135441 19.6582 -1
      vertex 0.890844 19.2615 1
      vertex -0.0135441 19.6582 1
    endloop
  endfacet
  facet normal -0.401694 -0.915774 -0
    outer loop
      vertex 0.890844 19.2615 1
      vertex -0.0135441 19.6582 -1
      vertex 0.890844 19.2615 -1
    endloop
  endfacet
  facet normal -0.677282 -0.735724 0
    outer loop
      vertex 0.890844 19.2615 -1
      vertex 1.61742 18.5926 1
      vertex 0.890844 19.2615 1
    endloop
  endfacet
  facet normal -0.677282 -0.735724 -0
    outer loop
      vertex 1.61742 18.5926 1
      vertex 0.890844 19.2615 -1
      vertex 1.61742 18.5926 -1
    endloop
  endfacet
  facet normal -0 0 1
    outer loop
      vertex 2.08745 17.7241 1
      vertex 3 17.5 1
      vertex 2.83745 18.4741 1
    endloop
  endfacet
  facet normal 0 0 1
    outer loop
      vertex 3 17.5 1
      vertex 2.25 16.75 1
      vertex 3 -17.5 1
    endloop
  endfacet
  facet normal -0 0 1
    outer loop
      vertex 1.61742 18.5926 1
      vertex 2.83745 18.4741 1
      vertex 2.36742 19.3426 1
    endloop
  endfacet
  facet normal -0 0 1
    outer loop
      vertex 2.25 -16.75 1
      vertex 3 -17.5 1
      vertex 2.25 16.75 1
    endloop
  endfacet
  facet normal 0 0 1
    outer loop
      vertex 2.08745 -17.7241 1
      vertex 3 -17.5 1
      vertex 2.25 -16.75 1
    endloop
  endfacet
  facet normal 0 0 1
    outer loop
      vertex 3 17.5 1
      vertex 2.08745 17.7241 1
      vertex 2.25 16.75 1
    endloop
  endfacet
  facet normal 0 0 1
    outer loop
      vertex 1.61742 18.5926 1
      vertex 2.36742 19.3426 1
      vertex 1.64084 20.0115 1
    endloop
  endfacet
  facet normal 0 0 1
    outer loop
      vertex 2.83745 18.4741 1
      vertex 1.61742 18.5926 1
      vertex 2.08745 17.7241 1
    endloop
  endfacet
  facet normal 0 0 1
    outer loop
      vertex 1.64084 20.0115 1
      vertex 0.890844 19.2615 1
      vertex 1.61742 18.5926 1
    endloop
  endfacet
  facet normal 0 0 1
    outer loop
      vertex 0.736456 20.4082 1
      vertex 0.890844 19.2615 1
      vertex 1.64084 20.0115 1
    endloop
  endfacet
  facet normal 0 0 1
    outer loop
      vertex 0.736456 20.4082 1
      vertex -0.0135441 19.6582 1
      vertex 0.890844 19.2615 1
    endloop
  endfacet
  facet normal 0 0 1
    outer loop
      vertex -0.247739 20.4898 1
      vertex -0.0135441 19.6582 1
      vertex 0.736456 20.4082 1
    endloop
  endfacet
  facet normal 0 0 1
    outer loop
      vertex -0.247739 20.4898 1
      vertex -0.997739 19.7398 1
      vertex -0.0135441 19.6582 1
    endloop
  endfacet
  facet normal 0 0 1
    outer loop
      vertex -0.247739 20.4898 1
      vertex -19.4977 19.7398 1
      vertex -0.997739 19.7398 1
    endloop
  endfacet
  facet normal -0 0 1
    outer loop
      vertex -20.2477 20.4898 1
      vertex -19.4977 19.7398 1
      vertex -0.247739 20.4898 1
    endloop
  endfacet
  facet normal 0 0 1
    outer loop
      vertex -20.2477 20.4898 1
      vertex -20.4551 19.4973 1
      vertex -19.4977 19.7398 1
    endloop
  endfacet
  facet normal -0 0 1
    outer loop
      vertex -21.2051 20.2473 1
      vertex -20.4551 19.4973 1
      vertex -20.2477 20.4898 1
    endloop
  endfacet
  facet normal 0 0 1
    outer loop
      vertex -21.2051 20.2473 1
      vertex -21.2818 18.9572 1
      vertex -20.4551 19.4973 1
    endloop
  endfacet
  facet normal -0 0 1
    outer loop
      vertex -22.0318 19.7072 1
      vertex -21.2818 18.9572 1
      vertex -21.2051 20.2473 1
    endloop
  endfacet
  facet normal 0 0 1
    outer loop
      vertex -22.6384 18.9278 1
      vertex -21.2818 18.9572 1
      vertex -22.0318 19.7072 1
    endloop
  endfacet
  facet normal 0 0 1
    outer loop
      vertex -21.2818 18.9572 1
      vertex -22.6384 18.9278 1
      vertex -21.8884 18.1778 1
    endloop
  endfacet
  facet normal 0 0 1
    outer loop
      vertex -21.8884 18.1778 1
      vertex -22.9591 17.9938 1
      vertex -22.2091 17.2438 1
    endloop
  endfacet
  facet normal 0 0 1
    outer loop
      vertex -22.9591 17.9938 1
      vertex -21.8884 18.1778 1
      vertex -22.6384 18.9278 1
    endloop
  endfacet
  facet normal 0 0 1
    outer loop
      vertex 3 -17.5 1
      vertex 2.08745 -17.7241 1
      vertex 2.83745 -18.4741 1
    endloop
  endfacet
  facet normal 0 0 1
    outer loop
      vertex 1.61742 -18.5926 1
      vertex 2.83745 -18.4741 1
      vertex 2.08745 -17.7241 1
    endloop
  endfacet
  facet normal 0 0 1
    outer loop
      vertex 2.83745 -18.4741 1
      vertex 1.61742 -18.5926 1
      vertex 2.36742 -19.3426 1
    endloop
  endfacet
  facet normal 0 0 1
    outer loop
      vertex 2.36742 -19.3426 1
      vertex 1.61742 -18.5926 1
      vertex 1.64084 -20.0115 1
    endloop
  endfacet
  facet normal -0 0 1
    outer loop
      vertex 0.890844 -19.2615 1
      vertex 1.64084 -20.0115 1
      vertex 1.61742 -18.5926 1
    endloop
  endfacet
  facet normal 0 0 1
    outer loop
      vertex 0.890844 -19.2615 1
      vertex 0.736456 -20.4082 1
      vertex 1.64084 -20.0115 1
    endloop
  endfacet
  facet normal -0 0 1
    outer loop
      vertex -0.0135441 -19.6582 1
      vertex 0.736456 -20.4082 1
      vertex 0.890844 -19.2615 1
    endloop
  endfacet
  facet normal 0 0 1
    outer loop
      vertex -0.0135441 -19.6582 1
      vertex -0.247739 -20.4898 1
      vertex 0.736456 -20.4082 1
    endloop
  endfacet
  facet normal -0 0 1
    outer loop
      vertex -0.997739 -19.7398 1
      vertex -0.247739 -20.4898 1
      vertex -0.0135441 -19.6582 1
    endloop
  endfacet
  facet normal -0 0 1
    outer loop
      vertex -19.4977 -19.7398 1
      vertex -0.247739 -20.4898 1
      vertex -0.997739 -19.7398 1
    endloop
  endfacet
  facet normal 0 0 1
    outer loop
      vertex -19.4977 -19.7398 1
      vertex -20.2477 -20.4898 1
      vertex -0.247739 -20.4898 1
    endloop
  endfacet
  facet normal 0 0 1
    outer loop
      vertex -20.4551 -19.4973 1
      vertex -20.2477 -20.4898 1
      vertex -19.4977 -19.7398 1
    endloop
  endfacet
  facet normal 0 0 1
    outer loop
      vertex -20.4551 -19.4973 1
      vertex -21.2051 -20.2473 1
      vertex -20.2477 -20.4898 1
    endloop
  endfacet
  facet normal 0 0 1
    outer loop
      vertex -21.2818 -18.9572 1
      vertex -21.2051 -20.2473 1
      vertex -20.4551 -19.4973 1
    endloop
  endfacet
  facet normal -0 0 1
    outer loop
      vertex -22.6384 -18.9278 1
      vertex -21.2818 -18.9572 1
      vertex -21.8884 -18.1778 1
    endloop
  endfacet
  facet normal 0 0 1
    outer loop
      vertex -21.2818 -18.9572 1
      vertex -22.0318 -19.7072 1
      vertex -21.2051 -20.2473 1
    endloop
  endfacet
  facet normal -0 0 1
    outer loop
      vertex -22.9591 -17.9938 1
      vertex -21.8884 -18.1778 1
      vertex -22.2091 -17.2438 1
    endloop
  endfacet
  facet normal 0 0 1
    outer loop
      vertex -21.2818 -18.9572 1
      vertex -22.6384 -18.9278 1
      vertex -22.0318 -19.7072 1
    endloop
  endfacet
  facet normal 0 0 1
    outer loop
      vertex -22.2091 17.2438 1
      vertex -22.9591 17.9938 1
      vertex -22.2091 -17.2438 1
    endloop
  endfacet
  facet normal 0 0 1
    outer loop
      vertex -22.9591 -17.9938 1
      vertex -22.2091 -17.2438 1
      vertex -22.9591 17.9938 1
    endloop
  endfacet
  facet normal 0 0 1
    outer loop
      vertex -21.8884 -18.1778 1
      vertex -22.9591 -17.9938 1
      vertex -22.6384 -18.9278 1
    endloop
  endfacet
  facet normal 0 0 1
    outer loop
      vertex 38.2523 18.9898 -4.5
      vertex 41.5 16 -4.5
      vertex 41.3375 16.9741 -4.5
    endloop
  endfacet
  facet normal 0 0 1
    outer loop
      vertex 41.5 16 -4.5
      vertex 37.5 -0.5 -4.5
      vertex 41.5 -16 -4.5
    endloop
  endfacet
  facet normal 0 0 1
    outer loop
      vertex 38.2523 18.9898 -4.5
      vertex 41.3375 16.9741 -4.5
      vertex 40.8674 17.8426 -4.5
    endloop
  endfacet
  facet normal -0 0 1
    outer loop
      vertex 37.5 -14.5 -4.5
      vertex 41.5 -16 -4.5
      vertex 37.5 -0.5 -4.5
    endloop
  endfacet
  facet normal 0 0 1
    outer loop
      vertex 38.2523 18.9898 -4.5
      vertex 40.8674 17.8426 -4.5
      vertex 40.1408 18.5115 -4.5
    endloop
  endfacet
  facet normal 0 0 1
    outer loop
      vertex 41.5 -16 -4.5
      vertex 37.5 -14.5 -4.5
      vertex 41.3375 -16.9741 -4.5
    endloop
  endfacet
  facet normal 0 0 1
    outer loop
      vertex 38.2523 18.9898 -4.5
      vertex 40.1408 18.5115 -4.5
      vertex 39.2365 18.9082 -4.5
    endloop
  endfacet
  facet normal 0 0 1
    outer loop
      vertex 41.3375 -16.9741 -4.5
      vertex 37.5 -14.5 -4.5
      vertex 40.8674 -17.8426 -4.5
    endloop
  endfacet
  facet normal 0 0 1
    outer loop
      vertex 41.5 16 -4.5
      vertex 38.2523 18.9898 -4.5
      vertex 33 14.5 -4.5
    endloop
  endfacet
  facet normal 0 0 1
    outer loop
      vertex 40.8674 -17.8426 -4.5
      vertex 37.5 -14.5 -4.5
      vertex 40.1408 -18.5115 -4.5
    endloop
  endfacet
  facet normal 0 0 1
    outer loop
      vertex 40.1408 -18.5115 -4.5
      vertex 37.5 -14.5 -4.5
      vertex 39.2365 -18.9082 -4.5
    endloop
  endfacet
  facet normal 0 0 1
    outer loop
      vertex 41.5 16 -4.5
      vertex 33 14.5 -4.5
      vertex 33 8.5 -4.5
    endloop
  endfacet
  facet normal 0 0 1
    outer loop
      vertex 38.2523 18.9898 -4.5
      vertex 27 14.5 -4.5
      vertex 33 14.5 -4.5
    endloop
  endfacet
  facet normal 0 0 1
    outer loop
      vertex 18.5409 16.4938 -4.5
      vertex 27 8.5 -4.5
      vertex 27 14.5 -4.5
    endloop
  endfacet
  facet normal 0 0 1
    outer loop
      vertex 27 8.5 -4.5
      vertex 18.5409 16.4938 -4.5
      vertex 22.5 -0.5 -4.5
    endloop
  endfacet
  facet normal -0 0 1
    outer loop
      vertex 18.5409 16.4938 -4.5
      vertex 27 14.5 -4.5
      vertex 21.2523 18.9898 -4.5
    endloop
  endfacet
  facet normal -0 0 1
    outer loop
      vertex 21.2523 18.9898 -4.5
      vertex 27 14.5 -4.5
      vertex 38.2523 18.9898 -4.5
    endloop
  endfacet
  facet normal 0 0 1
    outer loop
      vertex 39.2365 -18.9082 -4.5
      vertex 37.5 -14.5 -4.5
      vertex 38.2523 -18.9898 -4.5
    endloop
  endfacet
  facet normal -0 0 1
    outer loop
      vertex 22.5 -14.5 -4.5
      vertex 38.2523 -18.9898 -4.5
      vertex 37.5 -14.5 -4.5
    endloop
  endfacet
  facet normal 0 0 1
    outer loop
      vertex 22.5 -14.5 -4.5
      vertex 21.2523 -18.9898 -4.5
      vertex 38.2523 -18.9898 -4.5
    endloop
  endfacet
  facet normal 0 0 1
    outer loop
      vertex 18.5409 -16.4938 -4.5
      vertex 22.5 -0.5 -4.5
      vertex 18.5409 16.4938 -4.5
    endloop
  endfacet
  facet normal 0 0 1
    outer loop
      vertex 18.5409 16.4938 -4.5
      vertex 21.2523 18.9898 -4.5
      vertex 20.2949 18.7473 -4.5
    endloop
  endfacet
  facet normal 0 0 1
    outer loop
      vertex 22.5 -0.5 -4.5
      vertex 18.5409 -16.4938 -4.5
      vertex 22.5 -14.5 -4.5
    endloop
  endfacet
  facet normal 0 0 1
    outer loop
      vertex 18.5409 16.4938 -4.5
      vertex 20.2949 18.7473 -4.5
      vertex 19.4682 18.2072 -4.5
    endloop
  endfacet
  facet normal 0 -0 1
    outer loop
      vertex 18.8616 -17.4278 -4.5
      vertex 22.5 -14.5 -4.5
      vertex 18.5409 -16.4938 -4.5
    endloop
  endfacet
  facet normal 0 0 1
    outer loop
      vertex 18.5409 16.4938 -4.5
      vertex 19.4682 18.2072 -4.5
      vertex 18.8616 17.4278 -4.5
    endloop
  endfacet
  facet normal 0 0 1
    outer loop
      vertex 22.5 -14.5 -4.5
      vertex 20.2949 -18.7473 -4.5
      vertex 21.2523 -18.9898 -4.5
    endloop
  endfacet
  facet normal 0 0 1
    outer loop
      vertex 22.5 -14.5 -4.5
      vertex 19.4682 -18.2072 -4.5
      vertex 20.2949 -18.7473 -4.5
    endloop
  endfacet
  facet normal 0 0 1
    outer loop
      vertex 22.5 -14.5 -4.5
      vertex 18.8616 -17.4278 -4.5
      vertex 19.4682 -18.2072 -4.5
    endloop
  endfacet
  facet normal 0 0 1
    outer loop
      vertex 41.5 16 -4.5
      vertex 33 8.5 -4.5
      vertex 37.5 -0.5 -4.5
    endloop
  endfacet
  facet normal -0 0 1
    outer loop
      vertex 27 8.5 -4.5
      vertex 37.5 -0.5 -4.5
      vertex 33 8.5 -4.5
    endloop
  endfacet
  facet normal 0 0 1
    outer loop
      vertex 37.5 -0.5 -4.5
      vertex 27 8.5 -4.5
      vertex 22.5 -0.5 -4.5
    endloop
  endfacet
  facet normal 0 1 -3.46791e-07
    outer loop
      vertex 38.2523 -18.9898 -4.5
      vertex 21.2523 -18.9898 1
      vertex 38.2523 -18.9898 1
    endloop
  endfacet
  facet normal 0 1 -3.46791e-07
    outer loop
      vertex 21.2523 -18.9898 1
      vertex 38.2523 -18.9898 -4.5
      vertex 21.2523 -18.9898 -4.5
    endloop
  endfacet
  facet normal 0 -1 3.46791e-07
    outer loop
      vertex 21.2523 18.9898 -4.5
      vertex 38.2523 18.9898 1
      vertex 21.2523 18.9898 1
    endloop
  endfacet
  facet normal 0 -1 3.46791e-07
    outer loop
      vertex 38.2523 18.9898 1
      vertex 21.2523 18.9898 -4.5
      vertex 38.2523 18.9898 -4.5
    endloop
  endfacet
  facet normal 1 -0 0
    outer loop
      vertex 18.5409 -16.4938 1
      vertex 18.5409 16.4938 -4.5
      vertex 18.5409 16.4938 1
    endloop
  endfacet
  facet normal 1 0 0
    outer loop
      vertex 18.5409 16.4938 -4.5
      vertex 18.5409 -16.4938 1
      vertex 18.5409 -16.4938 -4.5
    endloop
  endfacet
  facet normal 0.945817 -0.3247 0
    outer loop
      vertex 18.5409 16.4938 1
      vertex 18.8616 17.4278 -4.5
      vertex 18.8616 17.4278 1
    endloop
  endfacet
  facet normal 0.945817 -0.3247 0
    outer loop
      vertex 18.8616 17.4278 -4.5
      vertex 18.5409 16.4938 1
      vertex 18.5409 16.4938 -4.5
    endloop
  endfacet
  facet normal 0.245486 0.9694 -3.36179e-07
    outer loop
      vertex 21.2523 -18.9898 -4.5
      vertex 20.2949 -18.7473 1
      vertex 21.2523 -18.9898 1
    endloop
  endfacet
  facet normal 0.245487 0.9694 0
    outer loop
      vertex 20.2949 -18.7473 1
      vertex 21.2523 -18.9898 -4.5
      vertex 20.2949 -18.7473 -4.5
    endloop
  endfacet
  facet normal -0.986361 0.164594 0
    outer loop
      vertex 41.3375 -16.9741 -4.5
      vertex 41.5 -16 1
      vertex 41.5 -16 -4.5
    endloop
  endfacet
  facet normal -0.986361 0.164594 0
    outer loop
      vertex 41.5 -16 1
      vertex 41.3375 -16.9741 -4.5
      vertex 41.3375 -16.9741 1
    endloop
  endfacet
  facet normal -1 0 0
    outer loop
      vertex 41.5 -16 -4.5
      vertex 41.5 16 1
      vertex 41.5 16 -4.5
    endloop
  endfacet
  facet normal -1 -0 0
    outer loop
      vertex 41.5 16 1
      vertex 41.5 -16 -4.5
      vertex 41.5 -16 1
    endloop
  endfacet
  facet normal 0.945817 0.3247 0
    outer loop
      vertex 18.8616 -17.4278 1
      vertex 18.5409 -16.4938 -4.5
      vertex 18.5409 -16.4938 1
    endloop
  endfacet
  facet normal 0.945817 0.3247 0
    outer loop
      vertex 18.5409 -16.4938 -4.5
      vertex 18.8616 -17.4278 1
      vertex 18.8616 -17.4278 -4.5
    endloop
  endfacet
  facet normal 0.546947 0.837167 -0
    outer loop
      vertex 20.2949 -18.7473 -4.5
      vertex 19.4682 -18.2072 1
      vertex 20.2949 -18.7473 1
    endloop
  endfacet
  facet normal 0.546946 0.837168 -2.90322e-07
    outer loop
      vertex 19.4682 -18.2072 1
      vertex 20.2949 -18.7473 -4.5
      vertex 19.4682 -18.2072 -4.5
    endloop
  endfacet
  facet normal 0.789141 0.614212 0
    outer loop
      vertex 19.4682 -18.2072 1
      vertex 18.8616 -17.4278 -4.5
      vertex 18.8616 -17.4278 1
    endloop
  endfacet
  facet normal 0.789142 0.614211 -2.13003e-07
    outer loop
      vertex 18.8616 -17.4278 -4.5
      vertex 19.4682 -18.2072 1
      vertex 19.4682 -18.2072 -4.5
    endloop
  endfacet
  facet normal -0.401694 -0.915774 0
    outer loop
      vertex 39.2365 18.9082 -4.5
      vertex 40.1408 18.5115 1
      vertex 39.2365 18.9082 1
    endloop
  endfacet
  facet normal -0.401694 -0.915774 -0
    outer loop
      vertex 40.1408 18.5115 1
      vertex 39.2365 18.9082 -4.5
      vertex 40.1408 18.5115 -4.5
    endloop
  endfacet
  facet normal -0.082581 -0.996584 3.45606e-07
    outer loop
      vertex 38.2523 18.9898 -4.5
      vertex 39.2365 18.9082 1
      vertex 38.2523 18.9898 1
    endloop
  endfacet
  facet normal -0.0825791 -0.996585 -0
    outer loop
      vertex 39.2365 18.9082 1
      vertex 38.2523 18.9898 -4.5
      vertex 39.2365 18.9082 -4.5
    endloop
  endfacet
  facet normal -0.677283 -0.735722 0
    outer loop
      vertex 40.1408 18.5115 -4.5
      vertex 40.8674 17.8426 1
      vertex 40.1408 18.5115 1
    endloop
  endfacet
  facet normal -0.677283 -0.735722 -0
    outer loop
      vertex 40.8674 17.8426 1
      vertex 40.1408 18.5115 -4.5
      vertex 40.8674 17.8426 -4.5
    endloop
  endfacet
  facet normal 0.245487 -0.9694 0
    outer loop
      vertex 20.2949 18.7473 -4.5
      vertex 21.2523 18.9898 1
      vertex 20.2949 18.7473 1
    endloop
  endfacet
  facet normal 0.245486 -0.9694 3.36179e-07
    outer loop
      vertex 21.2523 18.9898 1
      vertex 20.2949 18.7473 -4.5
      vertex 21.2523 18.9898 -4.5
    endloop
  endfacet
  facet normal 0.546946 -0.837168 2.90322e-07
    outer loop
      vertex 19.4682 18.2072 -4.5
      vertex 20.2949 18.7473 1
      vertex 19.4682 18.2072 1
    endloop
  endfacet
  facet normal 0.546947 -0.837167 0
    outer loop
      vertex 20.2949 18.7473 1
      vertex 19.4682 18.2072 -4.5
      vertex 20.2949 18.7473 -4.5
    endloop
  endfacet
  facet normal -0.879473 -0.475949 0
    outer loop
      vertex 41.3375 16.9741 -4.5
      vertex 40.8674 17.8426 1
      vertex 40.8674 17.8426 -4.5
    endloop
  endfacet
  facet normal -0.879473 -0.475949 0
    outer loop
      vertex 40.8674 17.8426 1
      vertex 41.3375 16.9741 -4.5
      vertex 41.3375 16.9741 1
    endloop
  endfacet
  facet normal -0.0825791 0.996585 0
    outer loop
      vertex 39.2365 -18.9082 -4.5
      vertex 38.2523 -18.9898 1
      vertex 39.2365 -18.9082 1
    endloop
  endfacet
  facet normal -0.082581 0.996584 -3.45606e-07
    outer loop
      vertex 38.2523 -18.9898 1
      vertex 39.2365 -18.9082 -4.5
      vertex 38.2523 -18.9898 -4.5
    endloop
  endfacet
  facet normal -0.879473 0.475949 0
    outer loop
      vertex 40.8674 -17.8426 -4.5
      vertex 41.3375 -16.9741 1
      vertex 41.3375 -16.9741 -4.5
    endloop
  endfacet
  facet normal -0.879473 0.475949 0
    outer loop
      vertex 41.3375 -16.9741 1
      vertex 40.8674 -17.8426 -4.5
      vertex 40.8674 -17.8426 1
    endloop
  endfacet
  facet normal 0.789142 -0.614211 2.13003e-07
    outer loop
      vertex 18.8616 17.4278 1
      vertex 19.4682 18.2072 -4.5
      vertex 19.4682 18.2072 1
    endloop
  endfacet
  facet normal 0.789141 -0.614212 0
    outer loop
      vertex 19.4682 18.2072 -4.5
      vertex 18.8616 17.4278 1
      vertex 18.8616 17.4278 -4.5
    endloop
  endfacet
  facet normal -0.986361 -0.164594 0
    outer loop
      vertex 41.5 16 -4.5
      vertex 41.3375 16.9741 1
      vertex 41.3375 16.9741 -4.5
    endloop
  endfacet
  facet normal -0.986361 -0.164594 0
    outer loop
      vertex 41.3375 16.9741 1
      vertex 41.5 16 -4.5
      vertex 41.5 16 1
    endloop
  endfacet
  facet normal -0.401694 0.915774 0
    outer loop
      vertex 40.1408 -18.5115 -4.5
      vertex 39.2365 -18.9082 1
      vertex 40.1408 -18.5115 1
    endloop
  endfacet
  facet normal -0.401694 0.915774 0
    outer loop
      vertex 39.2365 -18.9082 1
      vertex 40.1408 -18.5115 -4.5
      vertex 39.2365 -18.9082 -4.5
    endloop
  endfacet
  facet normal -0.677283 0.735722 0
    outer loop
      vertex 40.8674 -17.8426 -4.5
      vertex 40.1408 -18.5115 1
      vertex 40.8674 -17.8426 1
    endloop
  endfacet
  facet normal -0.677283 0.735722 0
    outer loop
      vertex 40.1408 -18.5115 1
      vertex 40.8674 -17.8426 -4.5
      vertex 40.1408 -18.5115 -4.5
    endloop
  endfacet
  facet normal -1 0 0
    outer loop
      vertex 17.0409 -17.9938 -6
      vertex 17.0409 17.9938 -1
      vertex 17.0409 17.9938 -6
    endloop
  endfacet
  facet normal -1 -0 0
    outer loop
      vertex 17.0409 17.9938 -1
      vertex 17.0409 -17.9938 -6
      vertex 17.0409 -17.9938 -1
    endloop
  endfacet
  facet normal -0.245486 0.9694 0
    outer loop
      vertex 19.7523 20.4898 -6
      vertex 18.7949 20.2473 -1
      vertex 19.7523 20.4898 -1
    endloop
  endfacet
  facet normal -0.245486 0.9694 0
    outer loop
      vertex 18.7949 20.2473 -1
      vertex 19.7523 20.4898 -6
      vertex 18.7949 20.2473 -6
    endloop
  endfacet
  facet normal 0 0 -1
    outer loop
      vertex 37.5 -0.5 -6
      vertex 27 8.5 -6
      vertex 33 8.5 -6
    endloop
  endfacet
  facet normal 0 0 -1
    outer loop
      vertex 17.0409 17.9938 -6
      vertex 27 8.5 -6
      vertex 22.5 -0.5 -6
    endloop
  endfacet
  facet normal 0 0 -1
    outer loop
      vertex 22.5 -0.5 -6
      vertex 27 8.5 -6
      vertex 37.5 -0.5 -6
    endloop
  endfacet
  facet normal 0 0 -1
    outer loop
      vertex 39.7523 -20.4898 -6
      vertex 43 -17.5 -6
      vertex 42.8375 -18.4741 -6
    endloop
  endfacet
  facet normal 0 0 -1
    outer loop
      vertex 43 -17.5 -6
      vertex 37.5 -0.5 -6
      vertex 43 17.5 -6
    endloop
  endfacet
  facet normal 0 0 -1
    outer loop
      vertex 39.7523 -20.4898 -6
      vertex 42.8375 -18.4741 -6
      vertex 42.3674 -19.3426 -6
    endloop
  endfacet
  facet normal 0 0 -1
    outer loop
      vertex 33 8.5 -6
      vertex 43 17.5 -6
      vertex 37.5 -0.5 -6
    endloop
  endfacet
  facet normal 0 0 -1
    outer loop
      vertex 39.7523 -20.4898 -6
      vertex 42.3674 -19.3426 -6
      vertex 41.6408 -20.0115 -6
    endloop
  endfacet
  facet normal 0 0 -1
    outer loop
      vertex 33 14.5 -6
      vertex 43 17.5 -6
      vertex 33 8.5 -6
    endloop
  endfacet
  facet normal 0 0 -1
    outer loop
      vertex 39.7523 -20.4898 -6
      vertex 41.6408 -20.0115 -6
      vertex 40.7365 -20.4082 -6
    endloop
  endfacet
  facet normal 0 -0 -1
    outer loop
      vertex 39.7523 20.4898 -6
      vertex 43 17.5 -6
      vertex 33 14.5 -6
    endloop
  endfacet
  facet normal -0 0 -1
    outer loop
      vertex 43 -17.5 -6
      vertex 39.7523 -20.4898 -6
      vertex 37.5 -14.5 -6
    endloop
  endfacet
  facet normal 0 0 -1
    outer loop
      vertex 43 17.5 -6
      vertex 39.7523 20.4898 -6
      vertex 42.8375 18.4741 -6
    endloop
  endfacet
  facet normal 0 0 -1
    outer loop
      vertex 43 -17.5 -6
      vertex 37.5 -14.5 -6
      vertex 37.5 -0.5 -6
    endloop
  endfacet
  facet normal 0 0 -1
    outer loop
      vertex 39.7523 -20.4898 -6
      vertex 22.5 -14.5 -6
      vertex 37.5 -14.5 -6
    endloop
  endfacet
  facet normal 0 0 -1
    outer loop
      vertex 17.0409 -17.9938 -6
      vertex 22.5 -14.5 -6
      vertex 19.7523 -20.4898 -6
    endloop
  endfacet
  facet normal 0 0 -1
    outer loop
      vertex 19.7523 -20.4898 -6
      vertex 22.5 -14.5 -6
      vertex 39.7523 -20.4898 -6
    endloop
  endfacet
  facet normal 0 0 -1
    outer loop
      vertex 42.8375 18.4741 -6
      vertex 39.7523 20.4898 -6
      vertex 42.3674 19.3426 -6
    endloop
  endfacet
  facet normal 0 0 -1
    outer loop
      vertex 42.3674 19.3426 -6
      vertex 39.7523 20.4898 -6
      vertex 41.6408 20.0115 -6
    endloop
  endfacet
  facet normal 0 0 -1
    outer loop
      vertex 41.6408 20.0115 -6
      vertex 39.7523 20.4898 -6
      vertex 40.7365 20.4082 -6
    endloop
  endfacet
  facet normal 0 0 -1
    outer loop
      vertex 27 14.5 -6
      vertex 39.7523 20.4898 -6
      vertex 33 14.5 -6
    endloop
  endfacet
  facet normal 0 0 -1
    outer loop
      vertex 27 14.5 -6
      vertex 19.7523 20.4898 -6
      vertex 39.7523 20.4898 -6
    endloop
  endfacet
  facet normal 0 0 -1
    outer loop
      vertex 27 8.5 -6
      vertex 17.0409 17.9938 -6
      vertex 27 14.5 -6
    endloop
  endfacet
  facet normal -0 0 -1
    outer loop
      vertex 22.5 -14.5 -6
      vertex 17.0409 -17.9938 -6
      vertex 22.5 -0.5 -6
    endloop
  endfacet
  facet normal 0 0 -1
    outer loop
      vertex 17.0409 -17.9938 -6
      vertex 19.7523 -20.4898 -6
      vertex 18.7949 -20.2473 -6
    endloop
  endfacet
  facet normal 0 0 -1
    outer loop
      vertex 17.0409 17.9938 -6
      vertex 22.5 -0.5 -6
      vertex 17.0409 -17.9938 -6
    endloop
  endfacet
  facet normal 0 0 -1
    outer loop
      vertex 17.0409 -17.9938 -6
      vertex 18.7949 -20.2473 -6
      vertex 17.9682 -19.7072 -6
    endloop
  endfacet
  facet normal 0 0 -1
    outer loop
      vertex 27 14.5 -6
      vertex 17.0409 17.9938 -6
      vertex 19.7523 20.4898 -6
    endloop
  endfacet
  facet normal 0 0 -1
    outer loop
      vertex 17.0409 -17.9938 -6
      vertex 17.9682 -19.7072 -6
      vertex 17.3616 -18.9278 -6
    endloop
  endfacet
  facet normal 0 0 -1
    outer loop
      vertex 19.7523 20.4898 -6
      vertex 17.0409 17.9938 -6
      vertex 18.7949 20.2473 -6
    endloop
  endfacet
  facet normal 0 0 -1
    outer loop
      vertex 18.7949 20.2473 -6
      vertex 17.0409 17.9938 -6
      vertex 17.9682 19.7072 -6
    endloop
  endfacet
  facet normal 0 0 -1
    outer loop
      vertex 17.9682 19.7072 -6
      vertex 17.0409 17.9938 -6
      vertex 17.3616 18.9278 -6
    endloop
  endfacet
  facet normal -0.945817 -0.3247 0
    outer loop
      vertex 17.3616 -18.9278 -6
      vertex 17.0409 -17.9938 -1
      vertex 17.0409 -17.9938 -6
    endloop
  endfacet
  facet normal -0.945817 -0.3247 0
    outer loop
      vertex 17.0409 -17.9938 -1
      vertex 17.3616 -18.9278 -6
      vertex 17.3616 -18.9278 -1
    endloop
  endfacet
  facet normal 1 -0 0
    outer loop
      vertex 43 -17.5 -1
      vertex 43 17.5 -6
      vertex 43 17.5 -1
    endloop
  endfacet
  facet normal 1 0 0
    outer loop
      vertex 43 17.5 -6
      vertex 43 -17.5 -1
      vertex 43 -17.5 -6
    endloop
  endfacet
  facet normal 0 1 -0
    outer loop
      vertex 39.7523 20.4898 -6
      vertex 19.7523 20.4898 -1
      vertex 39.7523 20.4898 -1
    endloop
  endfacet
  facet normal 0 1 0
    outer loop
      vertex 19.7523 20.4898 -1
      vertex 39.7523 20.4898 -6
      vertex 19.7523 20.4898 -6
    endloop
  endfacet
  facet normal -0.546946 -0.837168 0
    outer loop
      vertex 17.9682 -19.7072 -6
      vertex 18.7949 -20.2473 -1
      vertex 17.9682 -19.7072 -1
    endloop
  endfacet
  facet normal -0.546946 -0.837168 -0
    outer loop
      vertex 18.7949 -20.2473 -1
      vertex 17.9682 -19.7072 -6
      vertex 18.7949 -20.2473 -6
    endloop
  endfacet
  facet normal -0.245487 -0.9694 0
    outer loop
      vertex 18.7949 -20.2473 -6
      vertex 19.7523 -20.4898 -1
      vertex 18.7949 -20.2473 -1
    endloop
  endfacet
  facet normal -0.245487 -0.9694 -0
    outer loop
      vertex 19.7523 -20.4898 -1
      vertex 18.7949 -20.2473 -6
      vertex 19.7523 -20.4898 -6
    endloop
  endfacet
  facet normal -0.789142 -0.614211 0
    outer loop
      vertex 17.9682 -19.7072 -6
      vertex 17.3616 -18.9278 -1
      vertex 17.3616 -18.9278 -6
    endloop
  endfacet
  facet normal -0.789142 -0.614211 0
    outer loop
      vertex 17.3616 -18.9278 -1
      vertex 17.9682 -19.7072 -6
      vertex 17.9682 -19.7072 -1
    endloop
  endfacet
  facet normal 0 -1 0
    outer loop
      vertex 19.7523 -20.4898 -6
      vertex 39.7523 -20.4898 -1
      vertex 19.7523 -20.4898 -1
    endloop
  endfacet
  facet normal 0 -1 -0
    outer loop
      vertex 39.7523 -20.4898 -1
      vertex 19.7523 -20.4898 -6
      vertex 39.7523 -20.4898 -6
    endloop
  endfacet
  facet normal -0.546947 0.837167 0
    outer loop
      vertex 18.7949 20.2473 -6
      vertex 17.9682 19.7072 -1
      vertex 18.7949 20.2473 -1
    endloop
  endfacet
  facet normal -0.546947 0.837167 0
    outer loop
      vertex 17.9682 19.7072 -1
      vertex 18.7949 20.2473 -6
      vertex 17.9682 19.7072 -6
    endloop
  endfacet
  facet normal -0.945817 0.3247 0
    outer loop
      vertex 17.0409 17.9938 -6
      vertex 17.3616 18.9278 -1
      vertex 17.3616 18.9278 -6
    endloop
  endfacet
  facet normal -0.945817 0.3247 0
    outer loop
      vertex 17.3616 18.9278 -1
      vertex 17.0409 17.9938 -6
      vertex 17.0409 17.9938 -1
    endloop
  endfacet
  facet normal 0.0825791 0.996585 -0
    outer loop
      vertex 40.7365 20.4082 -6
      vertex 39.7523 20.4898 -1
      vertex 40.7365 20.4082 -1
    endloop
  endfacet
  facet normal 0.0825791 0.996585 0
    outer loop
      vertex 39.7523 20.4898 -1
      vertex 40.7365 20.4082 -6
      vertex 39.7523 20.4898 -6
    endloop
  endfacet
  facet normal 0.677283 -0.735722 0
    outer loop
      vertex 41.6408 -20.0115 -6
      vertex 42.3674 -19.3426 -1
      vertex 41.6408 -20.0115 -1
    endloop
  endfacet
  facet normal 0.677283 -0.735722 0
    outer loop
      vertex 42.3674 -19.3426 -1
      vertex 41.6408 -20.0115 -6
      vertex 42.3674 -19.3426 -6
    endloop
  endfacet
  facet normal -0.789141 0.614212 0
    outer loop
      vertex 17.3616 18.9278 -6
      vertex 17.9682 19.7072 -1
      vertex 17.9682 19.7072 -6
    endloop
  endfacet
  facet normal -0.789141 0.614212 0
    outer loop
      vertex 17.9682 19.7072 -1
      vertex 17.3616 18.9278 -6
      vertex 17.3616 18.9278 -1
    endloop
  endfacet
  facet normal 0.401694 0.915774 -0
    outer loop
      vertex 41.6408 20.0115 -6
      vertex 40.7365 20.4082 -1
      vertex 41.6408 20.0115 -1
    endloop
  endfacet
  facet normal 0.401694 0.915774 0
    outer loop
      vertex 40.7365 20.4082 -1
      vertex 41.6408 20.0115 -6
      vertex 40.7365 20.4082 -6
    endloop
  endfacet
  facet normal 0.401694 -0.915774 0
    outer loop
      vertex 40.7365 -20.4082 -6
      vertex 41.6408 -20.0115 -1
      vertex 40.7365 -20.4082 -1
    endloop
  endfacet
  facet normal 0.401694 -0.915774 0
    outer loop
      vertex 41.6408 -20.0115 -1
      vertex 40.7365 -20.4082 -6
      vertex 41.6408 -20.0115 -6
    endloop
  endfacet
  facet normal 0.677283 0.735722 -0
    outer loop
      vertex 42.3674 19.3426 -6
      vertex 41.6408 20.0115 -1
      vertex 42.3674 19.3426 -1
    endloop
  endfacet
  facet normal 0.677283 0.735722 0
    outer loop
      vertex 41.6408 20.0115 -1
      vertex 42.3674 19.3426 -6
      vertex 41.6408 20.0115 -6
    endloop
  endfacet
  facet normal 0.082581 -0.996584 0
    outer loop
      vertex 39.7523 -20.4898 -6
      vertex 40.7365 -20.4082 -1
      vertex 39.7523 -20.4898 -1
    endloop
  endfacet
  facet normal 0.082581 -0.996584 0
    outer loop
      vertex 40.7365 -20.4082 -1
      vertex 39.7523 -20.4898 -6
      vertex 40.7365 -20.4082 -6
    endloop
  endfacet
  facet normal 0.879473 -0.475949 0
    outer loop
      vertex 42.3674 -19.3426 -1
      vertex 42.8375 -18.4741 -6
      vertex 42.8375 -18.4741 -1
    endloop
  endfacet
  facet normal 0.879473 -0.475949 0
    outer loop
      vertex 42.8375 -18.4741 -6
      vertex 42.3674 -19.3426 -1
      vertex 42.3674 -19.3426 -6
    endloop
  endfacet
  facet normal 0.986361 -0.164594 0
    outer loop
      vertex 42.8375 -18.4741 -1
      vertex 43 -17.5 -6
      vertex 43 -17.5 -1
    endloop
  endfacet
  facet normal 0.986361 -0.164594 0
    outer loop
      vertex 43 -17.5 -6
      vertex 42.8375 -18.4741 -1
      vertex 42.8375 -18.4741 -6
    endloop
  endfacet
  facet normal 0.986361 0.164594 0
    outer loop
      vertex 43 17.5 -1
      vertex 42.8375 18.4741 -6
      vertex 42.8375 18.4741 -1
    endloop
  endfacet
  facet normal 0.986361 0.164594 0
    outer loop
      vertex 42.8375 18.4741 -6
      vertex 43 17.5 -1
      vertex 43 17.5 -6
    endloop
  endfacet
  facet normal 0.879473 0.475949 0
    outer loop
      vertex 42.8375 18.4741 -1
      vertex 42.3674 19.3426 -6
      vertex 42.3674 19.3426 -1
    endloop
  endfacet
  facet normal 0.879473 0.475949 0
    outer loop
      vertex 42.3674 19.3426 -6
      vertex 42.8375 18.4741 -1
      vertex 42.8375 18.4741 -6
    endloop
  endfacet
  facet normal 1 -0 0
    outer loop
      vertex 22.5 -14.5 -4.5
      vertex 22.5 -0.5 -6
      vertex 22.5 -0.5 -4.5
    endloop
  endfacet
  facet normal 1 0 0
    outer loop
      vertex 22.5 -0.5 -6
      vertex 22.5 -14.5 -4.5
      vertex 22.5 -14.5 -6
    endloop
  endfacet
  facet normal -1 0 0
    outer loop
      vertex 37.5 -14.5 -6
      vertex 37.5 -0.5 -4.5
      vertex 37.5 -0.5 -6
    endloop
  endfacet
  facet normal -1 -0 0
    outer loop
      vertex 37.5 -0.5 -4.5
      vertex 37.5 -14.5 -6
      vertex 37.5 -14.5 -4.5
    endloop
  endfacet
  facet normal 0 1 -0
    outer loop
      vertex 37.5 -14.5 -6
      vertex 22.5 -14.5 -4.5
      vertex 37.5 -14.5 -4.5
    endloop
  endfacet
  facet normal 0 1 0
    outer loop
      vertex 22.5 -14.5 -4.5
      vertex 37.5 -14.5 -6
      vertex 22.5 -14.5 -6
    endloop
  endfacet
  facet normal 0 -1 0
    outer loop
      vertex 22.5 -0.5 -6
      vertex 37.5 -0.5 -4.5
      vertex 22.5 -0.5 -4.5
    endloop
  endfacet
  facet normal 0 -1 -0
    outer loop
      vertex 37.5 -0.5 -4.5
      vertex 22.5 -0.5 -6
      vertex 37.5 -0.5 -6
    endloop
  endfacet
  facet normal 1 -0 0
    outer loop
      vertex 27 8.5 -4.5
      vertex 27 14.5 -6
      vertex 27 14.5 -4.5
    endloop
  endfacet
  facet normal 1 0 0
    outer loop
      vertex 27 14.5 -6
      vertex 27 8.5 -4.5
      vertex 27 8.5 -6
    endloop
  endfacet
  facet normal -1 0 0
    outer loop
      vertex 33 8.5 -6
      vertex 33 14.5 -4.5
      vertex 33 14.5 -6
    endloop
  endfacet
  facet normal -1 -0 0
    outer loop
      vertex 33 14.5 -4.5
      vertex 33 8.5 -6
      vertex 33 8.5 -4.5
    endloop
  endfacet
  facet normal 0 1 -0
    outer loop
      vertex 33 8.5 -6
      vertex 27 8.5 -4.5
      vertex 33 8.5 -4.5
    endloop
  endfacet
  facet normal 0 1 0
    outer loop
      vertex 27 8.5 -4.5
      vertex 33 8.5 -6
      vertex 27 8.5 -6
    endloop
  endfacet
  facet normal 0 -1 0
    outer loop
      vertex 27 14.5 -6
      vertex 33 14.5 -4.5
      vertex 27 14.5 -4.5
    endloop
  endfacet
  facet normal 0 -1 -0
    outer loop
      vertex 33 14.5 -4.5
      vertex 27 14.5 -6
      vertex 33 14.5 -6
    endloop
  endfacet
  facet normal 0 -1 9.53674e-07
    outer loop
      vertex 20.5023 -19.7398 -1
      vertex 39.0023 -19.7398 1
      vertex 20.5023 -19.7398 1
    endloop
  endfacet
  facet normal 0 -1 9.53674e-07
    outer loop
      vertex 39.0023 -19.7398 1
      vertex 20.5023 -19.7398 -1
      vertex 39.0023 -19.7398 -1
    endloop
  endfacet
  facet normal 0 1 -9.53674e-07
    outer loop
      vertex 39.0023 19.7398 -1
      vertex 20.5023 19.7398 1
      vertex 39.0023 19.7398 1
    endloop
  endfacet
  facet normal 0 1 -9.53674e-07
    outer loop
      vertex 20.5023 19.7398 1
      vertex 39.0023 19.7398 -1
      vertex 20.5023 19.7398 -1
    endloop
  endfacet
  facet normal -1 0 0
    outer loop
      vertex 17.7909 -17.2438 -1
      vertex 17.7909 17.2438 1
      vertex 17.7909 17.2438 -1
    endloop
  endfacet
  facet normal -1 -0 0
    outer loop
      vertex 17.7909 17.2438 1
      vertex 17.7909 -17.2438 -1
      vertex 17.7909 -17.2438 1
    endloop
  endfacet
  facet normal -0.945817 0.3247 0
    outer loop
      vertex 17.7909 17.2438 -1
      vertex 18.1116 18.1778 1
      vertex 18.1116 18.1778 -1
    endloop
  endfacet
  facet normal -0.945817 0.3247 0
    outer loop
      vertex 18.1116 18.1778 1
      vertex 17.7909 17.2438 -1
      vertex 17.7909 17.2438 1
    endloop
  endfacet
  facet normal -0.245486 -0.9694 0
    outer loop
      vertex 19.5449 -19.4973 -1
      vertex 20.5023 -19.7398 1
      vertex 19.5449 -19.4973 1
    endloop
  endfacet
  facet normal -0.245487 -0.9694 9.24492e-07
    outer loop
      vertex 20.5023 -19.7398 1
      vertex 19.5449 -19.4973 -1
      vertex 20.5023 -19.7398 -1
    endloop
  endfacet
  facet normal 0.986361 -0.164594 0
    outer loop
      vertex 42.0875 -17.7241 1
      vertex 42.25 -16.75 -1
      vertex 42.25 -16.75 1
    endloop
  endfacet
  facet normal 0.986361 -0.164594 0
    outer loop
      vertex 42.25 -16.75 -1
      vertex 42.0875 -17.7241 1
      vertex 42.0875 -17.7241 -1
    endloop
  endfacet
  facet normal 1 -0 0
    outer loop
      vertex 42.25 -16.75 1
      vertex 42.25 16.75 -1
      vertex 42.25 16.75 1
    endloop
  endfacet
  facet normal 1 0 0
    outer loop
      vertex 42.25 16.75 -1
      vertex 42.25 -16.75 1
      vertex 42.25 -16.75 -1
    endloop
  endfacet
  facet normal -0.945817 -0.3247 0
    outer loop
      vertex 18.1116 -18.1778 -1
      vertex 17.7909 -17.2438 1
      vertex 17.7909 -17.2438 -1
    endloop
  endfacet
  facet normal -0.945817 -0.3247 0
    outer loop
      vertex 17.7909 -17.2438 1
      vertex 18.1116 -18.1778 -1
      vertex 18.1116 -18.1778 1
    endloop
  endfacet
  facet normal -0.546947 -0.837167 7.98385e-07
    outer loop
      vertex 18.7182 -18.9572 -1
      vertex 19.5449 -19.4973 1
      vertex 18.7182 -18.9572 1
    endloop
  endfacet
  facet normal -0.546946 -0.837168 -0
    outer loop
      vertex 19.5449 -19.4973 1
      vertex 18.7182 -18.9572 -1
      vertex 19.5449 -19.4973 -1
    endloop
  endfacet
  facet normal -0.789141 -0.614212 0
    outer loop
      vertex 18.1116 -18.1778 -1
      vertex 18.7182 -18.9572 1
      vertex 18.1116 -18.1778 1
    endloop
  endfacet
  facet normal -0.789142 -0.614211 5.85757e-07
    outer loop
      vertex 18.7182 -18.9572 1
      vertex 18.1116 -18.1778 -1
      vertex 18.7182 -18.9572 -1
    endloop
  endfacet
  facet normal 0.401694 0.915774 -0
    outer loop
      vertex 40.8908 19.2615 -1
      vertex 39.9865 19.6582 1
      vertex 40.8908 19.2615 1
    endloop
  endfacet
  facet normal 0.401694 0.915774 0
    outer loop
      vertex 39.9865 19.6582 1
      vertex 40.8908 19.2615 -1
      vertex 39.9865 19.6582 -1
    endloop
  endfacet
  facet normal 0.082581 0.996584 -0
    outer loop
      vertex 39.9865 19.6582 -1
      vertex 39.0023 19.7398 1
      vertex 39.9865 19.6582 1
    endloop
  endfacet
  facet normal 0.0825791 0.996585 -9.50417e-07
    outer loop
      vertex 39.0023 19.7398 1
      vertex 39.9865 19.6582 -1
      vertex 39.0023 19.7398 -1
    endloop
  endfacet
  facet normal 0.677283 0.735722 -0
    outer loop
      vertex 41.6174 18.5926 -1
      vertex 40.8908 19.2615 1
      vertex 41.6174 18.5926 1
    endloop
  endfacet
  facet normal 0.677283 0.735722 0
    outer loop
      vertex 40.8908 19.2615 1
      vertex 41.6174 18.5926 -1
      vertex 40.8908 19.2615 -1
    endloop
  endfacet
  facet normal -0.245487 0.9694 -9.24492e-07
    outer loop
      vertex 20.5023 19.7398 -1
      vertex 19.5449 19.4973 1
      vertex 20.5023 19.7398 1
    endloop
  endfacet
  facet normal -0.245486 0.9694 0
    outer loop
      vertex 19.5449 19.4973 1
      vertex 20.5023 19.7398 -1
      vertex 19.5449 19.4973 -1
    endloop
  endfacet
  facet normal -0.546946 0.837168 0
    outer loop
      vertex 19.5449 19.4973 -1
      vertex 18.7182 18.9572 1
      vertex 19.5449 19.4973 1
    endloop
  endfacet
  facet normal -0.546947 0.837167 -7.98385e-07
    outer loop
      vertex 18.7182 18.9572 1
      vertex 19.5449 19.4973 -1
      vertex 18.7182 18.9572 -1
    endloop
  endfacet
  facet normal 0.879473 0.475949 0
    outer loop
      vertex 42.0875 17.7241 1
      vertex 41.6174 18.5926 -1
      vertex 41.6174 18.5926 1
    endloop
  endfacet
  facet normal 0.879473 0.475949 0
    outer loop
      vertex 41.6174 18.5926 -1
      vertex 42.0875 17.7241 1
      vertex 42.0875 17.7241 -1
    endloop
  endfacet
  facet normal 0.0825791 -0.996585 9.50417e-07
    outer loop
      vertex 39.0023 -19.7398 -1
      vertex 39.9865 -19.6582 1
      vertex 39.0023 -19.7398 1
    endloop
  endfacet
  facet normal 0.082581 -0.996584 0
    outer loop
      vertex 39.9865 -19.6582 1
      vertex 39.0023 -19.7398 -1
      vertex 39.9865 -19.6582 -1
    endloop
  endfacet
  facet normal 0.879473 -0.475949 0
    outer loop
      vertex 41.6174 -18.5926 1
      vertex 42.0875 -17.7241 -1
      vertex 42.0875 -17.7241 1
    endloop
  endfacet
  facet normal 0.879473 -0.475949 0
    outer loop
      vertex 42.0875 -17.7241 -1
      vertex 41.6174 -18.5926 1
      vertex 41.6174 -18.5926 -1
    endloop
  endfacet
  facet normal -0.789141 0.614212 -5.85758e-07
    outer loop
      vertex 18.1116 18.1778 -1
      vertex 18.7182 18.9572 1
      vertex 18.7182 18.9572 -1
    endloop
  endfacet
  facet normal -0.789142 0.614211 0
    outer loop
      vertex 18.7182 18.9572 1
      vertex 18.1116 18.1778 -1
      vertex 18.1116 18.1778 1
    endloop
  endfacet
  facet normal 0.986361 0.164594 0
    outer loop
      vertex 42.25 16.75 1
      vertex 42.0875 17.7241 -1
      vertex 42.0875 17.7241 1
    endloop
  endfacet
  facet normal 0.986361 0.164594 0
    outer loop
      vertex 42.0875 17.7241 -1
      vertex 42.25 16.75 1
      vertex 42.25 16.75 -1
    endloop
  endfacet
  facet normal 0.401694 -0.915774 0
    outer loop
      vertex 39.9865 -19.6582 -1
      vertex 40.8908 -19.2615 1
      vertex 39.9865 -19.6582 1
    endloop
  endfacet
  facet normal 0.401694 -0.915774 0
    outer loop
      vertex 40.8908 -19.2615 1
      vertex 39.9865 -19.6582 -1
      vertex 40.8908 -19.2615 -1
    endloop
  endfacet
  facet normal 0.677283 -0.735722 0
    outer loop
      vertex 40.8908 -19.2615 -1
      vertex 41.6174 -18.5926 1
      vertex 40.8908 -19.2615 1
    endloop
  endfacet
  facet normal 0.677283 -0.735722 0
    outer loop
      vertex 41.6174 -18.5926 1
      vertex 40.8908 -19.2615 -1
      vertex 41.6174 -18.5926 -1
    endloop
  endfacet
  facet normal -0 0 1
    outer loop
      vertex 42.0875 17.7241 -1
      vertex 43 17.5 -1
      vertex 42.8375 18.4741 -1
    endloop
  endfacet
  facet normal 0 0 1
    outer loop
      vertex 43 17.5 -1
      vertex 42.25 16.75 -1
      vertex 43 -17.5 -1
    endloop
  endfacet
  facet normal -0 0 1
    outer loop
      vertex 41.6174 18.5926 -1
      vertex 42.8375 18.4741 -1
      vertex 42.3674 19.3426 -1
    endloop
  endfacet
  facet normal -0 0 1
    outer loop
      vertex 42.25 -16.75 -1
      vertex 43 -17.5 -1
      vertex 42.25 16.75 -1
    endloop
  endfacet
  facet normal 0 0 1
    outer loop
      vertex 42.0875 -17.7241 -1
      vertex 43 -17.5 -1
      vertex 42.25 -16.75 -1
    endloop
  endfacet
  facet normal 0 0 1
    outer loop
      vertex 43 17.5 -1
      vertex 42.0875 17.7241 -1
      vertex 42.25 16.75 -1
    endloop
  endfacet
  facet normal 0 0 1
    outer loop
      vertex 41.6174 18.5926 -1
      vertex 42.3674 19.3426 -1
      vertex 41.6408 20.0115 -1
    endloop
  endfacet
  facet normal 0 0 1
    outer loop
      vertex 42.8375 18.4741 -1
      vertex 41.6174 18.5926 -1
      vertex 42.0875 17.7241 -1
    endloop
  endfacet
  facet normal 0 0 1
    outer loop
      vertex 41.6408 20.0115 -1
      vertex 40.8908 19.2615 -1
      vertex 41.6174 18.5926 -1
    endloop
  endfacet
  facet normal 0 0 1
    outer loop
      vertex 40.7365 20.4082 -1
      vertex 40.8908 19.2615 -1
      vertex 41.6408 20.0115 -1
    endloop
  endfacet
  facet normal 0 0 1
    outer loop
      vertex 40.7365 20.4082 -1
      vertex 39.9865 19.6582 -1
      vertex 40.8908 19.2615 -1
    endloop
  endfacet
  facet normal 0 0 1
    outer loop
      vertex 39.7523 20.4898 -1
      vertex 39.9865 19.6582 -1
      vertex 40.7365 20.4082 -1
    endloop
  endfacet
  facet normal 0 0 1
    outer loop
      vertex 39.7523 20.4898 -1
      vertex 39.0023 19.7398 -1
      vertex 39.9865 19.6582 -1
    endloop
  endfacet
  facet normal 0 0 1
    outer loop
      vertex 39.7523 20.4898 -1
      vertex 20.5023 19.7398 -1
      vertex 39.0023 19.7398 -1
    endloop
  endfacet
  facet normal -0 0 1
    outer loop
      vertex 19.7523 20.4898 -1
      vertex 20.5023 19.7398 -1
      vertex 39.7523 20.4898 -1
    endloop
  endfacet
  facet normal 0 0 1
    outer loop
      vertex 19.7523 20.4898 -1
      vertex 19.5449 19.4973 -1
      vertex 20.5023 19.7398 -1
    endloop
  endfacet
  facet normal -0 0 1
    outer loop
      vertex 18.7949 20.2473 -1
      vertex 19.5449 19.4973 -1
      vertex 19.7523 20.4898 -1
    endloop
  endfacet
  facet normal 0 0 1
    outer loop
      vertex 18.7949 20.2473 -1
      vertex 18.7182 18.9572 -1
      vertex 19.5449 19.4973 -1
    endloop
  endfacet
  facet normal -0 0 1
    outer loop
      vertex 17.9682 19.7072 -1
      vertex 18.7182 18.9572 -1
      vertex 18.7949 20.2473 -1
    endloop
  endfacet
  facet normal 0 0 1
    outer loop
      vertex 17.3616 18.9278 -1
      vertex 18.7182 18.9572 -1
      vertex 17.9682 19.7072 -1
    endloop
  endfacet
  facet normal 0 0 1
    outer loop
      vertex 18.7182 18.9572 -1
      vertex 17.3616 18.9278 -1
      vertex 18.1116 18.1778 -1
    endloop
  endfacet
  facet normal 0 0 1
    outer loop
      vertex 18.1116 18.1778 -1
      vertex 17.0409 17.9938 -1
      vertex 17.7909 17.2438 -1
    endloop
  endfacet
  facet normal 0 0 1
    outer loop
      vertex 17.0409 17.9938 -1
      vertex 18.1116 18.1778 -1
      vertex 17.3616 18.9278 -1
    endloop
  endfacet
  facet normal 0 0 1
    outer loop
      vertex 43 -17.5 -1
      vertex 42.0875 -17.7241 -1
      vertex 42.8375 -18.4741 -1
    endloop
  endfacet
  facet normal 0 0 1
    outer loop
      vertex 41.6174 -18.5926 -1
      vertex 42.8375 -18.4741 -1
      vertex 42.0875 -17.7241 -1
    endloop
  endfacet
  facet normal 0 0 1
    outer loop
      vertex 42.8375 -18.4741 -1
      vertex 41.6174 -18.5926 -1
      vertex 42.3674 -19.3426 -1
    endloop
  endfacet
  facet normal 0 0 1
    outer loop
      vertex 42.3674 -19.3426 -1
      vertex 41.6174 -18.5926 -1
      vertex 41.6408 -20.0115 -1
    endloop
  endfacet
  facet normal -0 0 1
    outer loop
      vertex 40.8908 -19.2615 -1
      vertex 41.6408 -20.0115 -1
      vertex 41.6174 -18.5926 -1
    endloop
  endfacet
  facet normal 0 0 1
    outer loop
      vertex 40.8908 -19.2615 -1
      vertex 40.7365 -20.4082 -1
      vertex 41.6408 -20.0115 -1
    endloop
  endfacet
  facet normal -0 0 1
    outer loop
      vertex 39.9865 -19.6582 -1
      vertex 40.7365 -20.4082 -1
      vertex 40.8908 -19.2615 -1
    endloop
  endfacet
  facet normal 0 0 1
    outer loop
      vertex 39.9865 -19.6582 -1
      vertex 39.7523 -20.4898 -1
      vertex 40.7365 -20.4082 -1
    endloop
  endfacet
  facet normal -0 0 1
    outer loop
      vertex 39.0023 -19.7398 -1
      vertex 39.7523 -20.4898 -1
      vertex 39.9865 -19.6582 -1
    endloop
  endfacet
  facet normal -0 0 1
    outer loop
      vertex 20.5023 -19.7398 -1
      vertex 39.7523 -20.4898 -1
      vertex 39.0023 -19.7398 -1
    endloop
  endfacet
  facet normal 0 0 1
    outer loop
      vertex 20.5023 -19.7398 -1
      vertex 19.7523 -20.4898 -1
      vertex 39.7523 -20.4898 -1
    endloop
  endfacet
  facet normal 0 0 1
    outer loop
      vertex 19.5449 -19.4973 -1
      vertex 19.7523 -20.4898 -1
      vertex 20.5023 -19.7398 -1
    endloop
  endfacet
  facet normal 0 0 1
    outer loop
      vertex 19.5449 -19.4973 -1
      vertex 18.7949 -20.2473 -1
      vertex 19.7523 -20.4898 -1
    endloop
  endfacet
  facet normal 0 0 1
    outer loop
      vertex 18.7182 -18.9572 -1
      vertex 18.7949 -20.2473 -1
      vertex 19.5449 -19.4973 -1
    endloop
  endfacet
  facet normal -0 0 1
    outer loop
      vertex 17.3616 -18.9278 -1
      vertex 18.7182 -18.9572 -1
      vertex 18.1116 -18.1778 -1
    endloop
  endfacet
  facet normal 0 0 1
    outer loop
      vertex 18.7182 -18.9572 -1
      vertex 17.9682 -19.7072 -1
      vertex 18.7949 -20.2473 -1
    endloop
  endfacet
  facet normal -0 0 1
    outer loop
      vertex 17.0409 -17.9938 -1
      vertex 18.1116 -18.1778 -1
      vertex 17.7909 -17.2438 -1
    endloop
  endfacet
  facet normal 0 0 1
    outer loop
      vertex 18.7182 -18.9572 -1
      vertex 17.3616 -18.9278 -1
      vertex 17.9682 -19.7072 -1
    endloop
  endfacet
  facet normal 0 0 1
    outer loop
      vertex 17.7909 17.2438 -1
      vertex 17.0409 17.9938 -1
      vertex 17.7909 -17.2438 -1
    endloop
  endfacet
  facet normal 0 0 1
    outer loop
      vertex 17.0409 -17.9938 -1
      vertex 17.7909 -17.2438 -1
      vertex 17.0409 17.9938 -1
    endloop
  endfacet
  facet normal 0 0 1
    outer loop
      vertex 18.1116 -18.1778 -1
      vertex 17.0409 -17.9938 -1
      vertex 17.3616 -18.9278 -1
    endloop
  endfacet
  facet normal -0 0 1
    outer loop
      vertex 41.3375 16.9741 1
      vertex 42.25 16.75 1
      vertex 42.0875 17.7241 1
    endloop
  endfacet
  facet normal 0 0 1
    outer loop
      vertex 42.25 16.75 1
      vertex 41.5 16 1
      vertex 42.25 -16.75 1
    endloop
  endfacet
  facet normal -0 0 1
    outer loop
      vertex 40.8674 17.8426 1
      vertex 42.0875 17.7241 1
      vertex 41.6174 18.5926 1
    endloop
  endfacet
  facet normal -0 0 1
    outer loop
      vertex 41.5 -16 1
      vertex 42.25 -16.75 1
      vertex 41.5 16 1
    endloop
  endfacet
  facet normal 0 0 1
    outer loop
      vertex 41.3375 -16.9741 1
      vertex 42.25 -16.75 1
      vertex 41.5 -16 1
    endloop
  endfacet
  facet normal 0 0 1
    outer loop
      vertex 42.25 16.75 1
      vertex 41.3375 16.9741 1
      vertex 41.5 16 1
    endloop
  endfacet
  facet normal 0 0 1
    outer loop
      vertex 40.8674 17.8426 1
      vertex 41.6174 18.5926 1
      vertex 40.8908 19.2615 1
    endloop
  endfacet
  facet normal 0 0 1
    outer loop
      vertex 42.0875 17.7241 1
      vertex 40.8674 17.8426 1
      vertex 41.3375 16.9741 1
    endloop
  endfacet
  facet normal 0 0 1
    outer loop
      vertex 40.8908 19.2615 1
      vertex 40.1408 18.5115 1
      vertex 40.8674 17.8426 1
    endloop
  endfacet
  facet normal 0 0 1
    outer loop
      vertex 39.9865 19.6582 1
      vertex 40.1408 18.5115 1
      vertex 40.8908 19.2615 1
    endloop
  endfacet
  facet normal 0 0 1
    outer loop
      vertex 39.9865 19.6582 1
      vertex 39.2365 18.9082 1
      vertex 40.1408 18.5115 1
    endloop
  endfacet
  facet normal 0 0 1
    outer loop
      vertex 39.0023 19.7398 1
      vertex 39.2365 18.9082 1
      vertex 39.9865 19.6582 1
    endloop
  endfacet
  facet normal 0 0 1
    outer loop
      vertex 39.0023 19.7398 1
      vertex 38.2523 18.9898 1
      vertex 39.2365 18.9082 1
    endloop
  endfacet
  facet normal 0 0 1
    outer loop
      vertex 39.0023 19.7398 1
      vertex 21.2523 18.9898 1
      vertex 38.2523 18.9898 1
    endloop
  endfacet
  facet normal -0 0 1
    outer loop
      vertex 20.5023 19.7398 1
      vertex 21.2523 18.9898 1
      vertex 39.0023 19.7398 1
    endloop
  endfacet
  facet normal 0 0 1
    outer loop
      vertex 20.5023 19.7398 1
      vertex 20.2949 18.7473 1
      vertex 21.2523 18.9898 1
    endloop
  endfacet
  facet normal -0 0 1
    outer loop
      vertex 19.5449 19.4973 1
      vertex 20.2949 18.7473 1
      vertex 20.5023 19.7398 1
    endloop
  endfacet
  facet normal 0 0 1
    outer loop
      vertex 19.5449 19.4973 1
      vertex 19.4682 18.2072 1
      vertex 20.2949 18.7473 1
    endloop
  endfacet
  facet normal -0 0 1
    outer loop
      vertex 18.7182 18.9572 1
      vertex 19.4682 18.2072 1
      vertex 19.5449 19.4973 1
    endloop
  endfacet
  facet normal 0 0 1
    outer loop
      vertex 18.1116 18.1778 1
      vertex 19.4682 18.2072 1
      vertex 18.7182 18.9572 1
    endloop
  endfacet
  facet normal 0 0 1
    outer loop
      vertex 19.4682 18.2072 1
      vertex 18.1116 18.1778 1
      vertex 18.8616 17.4278 1
    endloop
  endfacet
  facet normal 0 0 1
    outer loop
      vertex 18.8616 17.4278 1
      vertex 17.7909 17.2438 1
      vertex 18.5409 16.4938 1
    endloop
  endfacet
  facet normal 0 0 1
    outer loop
      vertex 17.7909 17.2438 1
      vertex 18.8616 17.4278 1
      vertex 18.1116 18.1778 1
    endloop
  endfacet
  facet normal 0 0 1
    outer loop
      vertex 42.25 -16.75 1
      vertex 41.3375 -16.9741 1
      vertex 42.0875 -17.7241 1
    endloop
  endfacet
  facet normal 0 0 1
    outer loop
      vertex 40.8674 -17.8426 1
      vertex 42.0875 -17.7241 1
      vertex 41.3375 -16.9741 1
    endloop
  endfacet
  facet normal 0 0 1
    outer loop
      vertex 42.0875 -17.7241 1
      vertex 40.8674 -17.8426 1
      vertex 41.6174 -18.5926 1
    endloop
  endfacet
  facet normal 0 0 1
    outer loop
      vertex 41.6174 -18.5926 1
      vertex 40.8674 -17.8426 1
      vertex 40.8908 -19.2615 1
    endloop
  endfacet
  facet normal -0 0 1
    outer loop
      vertex 40.1408 -18.5115 1
      vertex 40.8908 -19.2615 1
      vertex 40.8674 -17.8426 1
    endloop
  endfacet
  facet normal 0 0 1
    outer loop
      vertex 40.1408 -18.5115 1
      vertex 39.9865 -19.6582 1
      vertex 40.8908 -19.2615 1
    endloop
  endfacet
  facet normal -0 0 1
    outer loop
      vertex 39.2365 -18.9082 1
      vertex 39.9865 -19.6582 1
      vertex 40.1408 -18.5115 1
    endloop
  endfacet
  facet normal 0 0 1
    outer loop
      vertex 39.2365 -18.9082 1
      vertex 39.0023 -19.7398 1
      vertex 39.9865 -19.6582 1
    endloop
  endfacet
  facet normal -0 0 1
    outer loop
      vertex 38.2523 -18.9898 1
      vertex 39.0023 -19.7398 1
      vertex 39.2365 -18.9082 1
    endloop
  endfacet
  facet normal -0 0 1
    outer loop
      vertex 21.2523 -18.9898 1
      vertex 39.0023 -19.7398 1
      vertex 38.2523 -18.9898 1
    endloop
  endfacet
  facet normal 0 0 1
    outer loop
      vertex 21.2523 -18.9898 1
      vertex 20.5023 -19.7398 1
      vertex 39.0023 -19.7398 1
    endloop
  endfacet
  facet normal 0 0 1
    outer loop
      vertex 20.2949 -18.7473 1
      vertex 20.5023 -19.7398 1
      vertex 21.2523 -18.9898 1
    endloop
  endfacet
  facet normal 0 0 1
    outer loop
      vertex 20.2949 -18.7473 1
      vertex 19.5449 -19.4973 1
      vertex 20.5023 -19.7398 1
    endloop
  endfacet
  facet normal 0 0 1
    outer loop
      vertex 19.4682 -18.2072 1
      vertex 19.5449 -19.4973 1
      vertex 20.2949 -18.7473 1
    endloop
  endfacet
  facet normal -0 0 1
    outer loop
      vertex 18.1116 -18.1778 1
      vertex 19.4682 -18.2072 1
      vertex 18.8616 -17.4278 1
    endloop
  endfacet
  facet normal 0 0 1
    outer loop
      vertex 19.4682 -18.2072 1
      vertex 18.7182 -18.9572 1
      vertex 19.5449 -19.4973 1
    endloop
  endfacet
  facet normal -0 0 1
    outer loop
      vertex 17.7909 -17.2438 1
      vertex 18.8616 -17.4278 1
      vertex 18.5409 -16.4938 1
    endloop
  endfacet
  facet normal 0 0 1
    outer loop
      vertex 19.4682 -18.2072 1
      vertex 18.1116 -18.1778 1
      vertex 18.7182 -18.9572 1
    endloop
  endfacet
  facet normal 0 0 1
    outer loop
      vertex 18.5409 16.4938 1
      vertex 17.7909 17.2438 1
      vertex 18.5409 -16.4938 1
    endloop
  endfacet
  facet normal 0 0 1
    outer loop
      vertex 17.7909 -17.2438 1
      vertex 18.5409 -16.4938 1
      vertex 17.7909 17.2438 1
    endloop
  endfacet
  facet normal 0 0 1
    outer loop
      vertex 18.8616 -17.4278 1
      vertex 17.7909 -17.2438 1
      vertex 18.1116 -18.1778 1
    endloop
  endfacet
endsolid OpenSCAD_Model
